<svg width="60" height="60" viewBox="0 0 60 60" fill="none" xmlns="http://www.w3.org/2000/svg">
<path d="M5 17C6.65685 17 8 15.6569 8 14C8 12.3431 6.65685 11 5 11C3.34315 11 2 12.3431 2 14C2 15.6569 3.34315 17 5 17Z" stroke="white" stroke-width="2" stroke-miterlimit="10"/>
<path d="M11 9C12.6569 9 14 7.65685 14 6C14 4.34315 12.6569 3 11 3C9.34315 3 8 4.34315 8 6C8 7.65685 9.34315 9 11 9Z" stroke="white" stroke-width="2" stroke-miterlimit="10"/>
<path d="M23 9C24.6569 9 26 7.65685 26 6C26 4.34315 24.6569 3 23 3C21.3431 3 20 4.34315 20 6C20 7.65685 21.3431 9 23 9Z" stroke="white" stroke-width="2" stroke-miterlimit="10"/>
<path d="M37 9C38.6569 9 40 7.65685 40 6C40 4.34315 38.6569 3 37 3C35.3431 3 34 4.34315 34 6C34 7.65685 35.3431 9 37 9Z" stroke="white" stroke-width="2" stroke-miterlimit="10"/>
<path d="M49 9C50.6569 9 52 7.65685 52 6C52 4.34315 50.6569 3 49 3C47.3431 3 46 4.34315 46 6C46 7.65685 47.3431 9 49 9Z" stroke="white" stroke-width="2" stroke-miterlimit="10"/>
<path d="M17 17C18.6569 17 20 15.6569 20 14C20 12.3431 18.6569 11 17 11C15.3431 11 14 12.3431 14 14C14 15.6569 15.3431 17 17 17Z" stroke="white" stroke-width="2" stroke-miterlimit="10"/>
<path d="M21 28H0" stroke="white" stroke-width="2" stroke-miterlimit="10"/>
<path d="M2.0752 20.38C2.9402 20.138 3.9382 20 5.0002 20C8.3142 20 11.0002 21.343 11.0002 23V28" stroke="white" stroke-width="2" stroke-miterlimit="10"/>
<path d="M19.925 20.38C19.06 20.138 18.062 20 17 20C13.686 20 11 21.343 11 23" stroke="white" stroke-width="2" stroke-miterlimit="10"/>
<path d="M44 17C45.6569 17 47 15.6569 47 14C47 12.3431 45.6569 11 44 11C42.3431 11 41 12.3431 41 14C41 15.6569 42.3431 17 44 17Z" stroke="white" stroke-width="2" stroke-miterlimit="10"/>
<path d="M56 17C57.6569 17 59 15.6569 59 14C59 12.3431 57.6569 11 56 11C54.3431 11 53 12.3431 53 14C53 15.6569 54.3431 17 56 17Z" stroke="white" stroke-width="2" stroke-miterlimit="10"/>
<path d="M60 28H39" stroke="white" stroke-width="2" stroke-miterlimit="10"/>
<path d="M41.0752 20.38C41.9402 20.138 42.9382 20 44.0002 20C47.3142 20 50.0002 21.343 50.0002 23V28" stroke="white" stroke-width="2" stroke-miterlimit="10"/>
<path d="M58.925 20.38C58.06 20.138 57.062 20 56 20C52.686 20 50 21.343 50 23" stroke="white" stroke-width="2" stroke-miterlimit="10"/>
<path d="M23.1133 12.033C23.4023 12.011 23.6993 12 24.0003 12C27.3143 12 30.0003 13.343 30.0003 15" stroke="white" stroke-width="2" stroke-miterlimit="10"/>
<path d="M36.887 12.033C36.598 12.011 36.301 12 36 12C32.686 12 30 13.343 30 15" stroke="white" stroke-width="2" stroke-miterlimit="10"/>
<path d="M30 32C33.3137 32 36 28.866 36 25C36 21.134 33.3137 18 30 18C26.6863 18 24 21.134 24 25C24 28.866 26.6863 32 30 32Z" stroke="white" stroke-width="2" stroke-miterlimit="10"/>
<path d="M23 50H17C15.895 50 15 50.895 15 52V58" stroke="white" stroke-width="2" stroke-miterlimit="10"/>
<path d="M37 50H43C44.105 50 45 50.895 45 52V58" stroke="white" stroke-width="2" stroke-miterlimit="10"/>
<path d="M37 58V42.549L45.174 44.885C45.437 44.96 45.714 45 46 45C46.615 45 47.186 44.815 47.662 44.498L53.662 40.498C54.469 39.96 55 39.042 55 38C55 36.343 53.657 35 52 35C51.385 35 50.814 35.185 50.338 35.502L45.491 38.733L37.135 36.346C36.331 36.117 35.498 36 34.662 36H25.338C24.502 36 23.67 36.117 22.866 36.346L14.51 38.733L9.663 35.502C9.186 35.185 8.615 35 8 35C6.343 35 5 36.343 5 38C5 39.042 5.531 39.96 6.338 40.498L12.338 44.498C12.814 44.815 13.385 45 14 45C14.286 45 14.563 44.96 14.826 44.885L23 42.549V58" stroke="white" stroke-width="2" stroke-miterlimit="10"/>
<circle cx="41.5" cy="46.5" r="11.6" fill="#86BB64" stroke="white" stroke-width="1.8"/>
<path d="M34.6858 42.432C34.9845 42.432 35.2272 42.3993 35.4138 42.334C35.6098 42.2687 35.7685 42.18 35.8898 42.068C36.0112 41.956 36.1092 41.8253 36.1838 41.676C36.2585 41.5267 36.3238 41.368 36.3798 41.2H37.4158V51H35.8758V43.524H34.6858V42.432ZM40.6986 48.746C40.6986 49.1007 40.7686 49.3527 40.9086 49.502C41.0579 49.642 41.2539 49.712 41.4966 49.712C41.7393 49.712 41.9306 49.642 42.0706 49.502C42.2199 49.3527 42.2946 49.1007 42.2946 48.746V43.454C42.2946 43.0993 42.2199 42.852 42.0706 42.712C41.9306 42.5627 41.7393 42.488 41.4966 42.488C41.2539 42.488 41.0579 42.5627 40.9086 42.712C40.7686 42.852 40.6986 43.0993 40.6986 43.454V48.746ZM39.1586 43.552C39.1586 42.7587 39.3593 42.152 39.7606 41.732C40.1619 41.3027 40.7406 41.088 41.4966 41.088C42.2526 41.088 42.8313 41.3027 43.2326 41.732C43.6339 42.152 43.8346 42.7587 43.8346 43.552V48.648C43.8346 49.4413 43.6339 50.0527 43.2326 50.482C42.8313 50.902 42.2526 51.112 41.4966 51.112C40.7406 51.112 40.1619 50.902 39.7606 50.482C39.3593 50.0527 39.1586 49.4413 39.1586 48.648V43.552ZM46.2494 48.746C46.2494 49.1007 46.3194 49.3527 46.4594 49.502C46.6087 49.642 46.8047 49.712 47.0474 49.712C47.2901 49.712 47.4814 49.642 47.6214 49.502C47.7707 49.3527 47.8454 49.1007 47.8454 48.746V43.454C47.8454 43.0993 47.7707 42.852 47.6214 42.712C47.4814 42.5627 47.2901 42.488 47.0474 42.488C46.8047 42.488 46.6087 42.5627 46.4594 42.712C46.3194 42.852 46.2494 43.0993 46.2494 43.454V48.746ZM44.7094 43.552C44.7094 42.7587 44.9101 42.152 45.3114 41.732C45.7127 41.3027 46.2914 41.088 47.0474 41.088C47.8034 41.088 48.3821 41.3027 48.7834 41.732C49.1847 42.152 49.3854 42.7587 49.3854 43.552V48.648C49.3854 49.4413 49.1847 50.0527 48.7834 50.482C48.3821 50.902 47.8034 51.112 47.0474 51.112C46.2914 51.112 45.7127 50.902 45.3114 50.482C44.9101 50.0527 44.7094 49.4413 44.7094 48.648V43.552Z" fill="white"/>
</svg>
