<svg width="60" height="60" viewBox="0 0 60 60" fill="none" xmlns="http://www.w3.org/2000/svg">
<path d="M54 53H6C3.791 53 2 51.209 2 49V47H58V49C58 51.209 56.209 53 54 53Z" stroke="white" stroke-width="2" stroke-miterlimit="10"/>
<path d="M55 21V47" stroke="white" stroke-width="2" stroke-miterlimit="10"/>
<path d="M45.9961 8H51.0001C53.2091 8 55.0001 9.791 55.0001 12V15" stroke="white" stroke-width="2" stroke-miterlimit="10"/>
<path d="M5 47V12C5 9.791 6.791 8 9 8H23" stroke="white" stroke-width="2" stroke-miterlimit="10"/>
<path d="M53 50V53" stroke="white" stroke-width="2" stroke-miterlimit="10"/>
<path d="M49 50V53" stroke="white" stroke-width="2" stroke-miterlimit="10"/>
<path d="M45 50V53" stroke="white" stroke-width="2" stroke-miterlimit="10"/>
<path d="M11 57H25" stroke="white" stroke-width="2" stroke-miterlimit="10"/>
<path d="M27 57H29" stroke="white" stroke-width="2" stroke-miterlimit="10"/>
<path d="M23 8H46" stroke="white" stroke-width="2" stroke-miterlimit="10"/>
<path d="M10 11H8V13H10V11Z" fill="white"/>
<path d="M10 15H8V17H10V15Z" fill="white"/>
<path d="M10 19H8V21H10V19Z" fill="white"/>
<path d="M55 17V19" stroke="white" stroke-width="2" stroke-miterlimit="10"/>
<path d="M30.8147 24.384C30.8147 23.6947 30.6973 23.2327 30.4627 22.998C30.2427 22.7487 29.942 22.624 29.5607 22.624C29.1793 22.624 28.8713 22.7413 28.6367 22.976C28.4167 23.196 28.3067 23.5847 28.3067 24.142V25.792H26.0187V24.296C26.0187 23.0493 26.3193 22.096 26.9207 21.436C27.5367 20.7613 28.4387 20.424 29.6267 20.424C30.8147 20.424 31.7093 20.7613 32.3107 21.436C32.9267 22.096 33.2347 23.0493 33.2347 24.296C33.2347 25.1027 33.1173 25.836 32.8827 26.496C32.648 27.1413 32.3473 27.7353 31.9807 28.278C31.6287 28.806 31.24 29.2973 30.8147 29.752C30.404 30.2067 30.0153 30.6393 29.6487 31.05C29.2967 31.4607 29.0033 31.864 28.7687 32.26C28.534 32.6413 28.4167 33.0447 28.4167 33.47C28.4167 33.6167 28.424 33.7267 28.4387 33.8H33.0147V36H26.0187V34.108C26.0187 33.36 26.136 32.7 26.3707 32.128C26.6053 31.556 26.8987 31.0353 27.2507 30.566C27.6173 30.082 28.006 29.6347 28.4167 29.224C28.8273 28.7987 29.2087 28.3513 29.5607 27.882C29.9273 27.4127 30.228 26.8993 30.4627 26.342C30.6973 25.7847 30.8147 25.132 30.8147 24.384Z" fill="white"/>
<path d="M17.5147 22.536C17.984 22.536 18.3653 22.4847 18.6587 22.382C18.9667 22.2793 19.216 22.14 19.4067 21.964C19.5973 21.788 19.7513 21.5827 19.8687 21.348C19.986 21.1133 20.0887 20.864 20.1767 20.6H21.8047V36H19.3847V24.252H17.5147V22.536Z" fill="white"/>
<rect x="12" y="17" width="37" height="22" rx="1" stroke="white" stroke-width="2"/>
<mask id="mask0_31_438" style="mask-type:alpha" maskUnits="userSpaceOnUse" x="36" y="16" width="11" height="15">
<rect x="36" y="16" width="11" height="15" fill="#D9D9D9"/>
</mask>
<g mask="url(#mask0_31_438)">
<path d="M39.2407 26.458C39.2407 27.0153 39.3507 27.4113 39.5707 27.646C39.8053 27.866 40.1133 27.976 40.4947 27.976C40.876 27.976 41.1767 27.866 41.3967 27.646C41.6313 27.4113 41.7487 27.0153 41.7487 26.458V18.142C41.7487 17.5847 41.6313 17.196 41.3967 16.976C41.1767 16.7413 40.876 16.624 40.4947 16.624C40.1133 16.624 39.8053 16.7413 39.5707 16.976C39.3507 17.196 39.2407 17.5847 39.2407 18.142V26.458ZM36.8207 18.296C36.8207 17.0493 37.136 16.096 37.7667 15.436C38.3973 14.7613 39.3067 14.424 40.4947 14.424C41.6827 14.424 42.592 14.7613 43.2227 15.436C43.8533 16.096 44.1687 17.0493 44.1687 18.296V26.304C44.1687 27.5507 43.8533 28.5113 43.2227 29.186C42.592 29.846 41.6827 30.176 40.4947 30.176C39.3067 30.176 38.3973 29.846 37.7667 29.186C37.136 28.5113 36.8207 27.5507 36.8207 26.304V18.296Z" fill="white"/>
</g>
<mask id="mask1_31_438" style="mask-type:alpha" maskUnits="userSpaceOnUse" x="36" y="32" width="10" height="7">
<rect x="36" y="32" width="10" height="7" fill="#D9D9D9"/>
</mask>
<g mask="url(#mask1_31_438)">
<path d="M38.5147 34.536C38.984 34.536 39.3653 34.4847 39.6587 34.382C39.9667 34.2793 40.216 34.14 40.4067 33.964C40.5973 33.788 40.7513 33.5827 40.8687 33.348C40.986 33.1133 41.0887 32.864 41.1767 32.6H42.8047V48H40.3847V36.252H38.5147V34.536Z" fill="white"/>
</g>
</svg>
