<svg width="60" height="57" viewBox="0 0 60 57" fill="none" xmlns="http://www.w3.org/2000/svg">
<path d="M5 15C6.65685 15 8 13.6569 8 12C8 10.3431 6.65685 9 5 9C3.34315 9 2 10.3431 2 12C2 13.6569 3.34315 15 5 15Z" stroke="white" stroke-width="2" stroke-miterlimit="10"/>
<path d="M11 7C12.6569 7 14 5.65685 14 4C14 2.34315 12.6569 1 11 1C9.34315 1 8 2.34315 8 4C8 5.65685 9.34315 7 11 7Z" stroke="white" stroke-width="2" stroke-miterlimit="10"/>
<path d="M23 7C24.6569 7 26 5.65685 26 4C26 2.34315 24.6569 1 23 1C21.3431 1 20 2.34315 20 4C20 5.65685 21.3431 7 23 7Z" stroke="white" stroke-width="2" stroke-miterlimit="10"/>
<path d="M37 7C38.6569 7 40 5.65685 40 4C40 2.34315 38.6569 1 37 1C35.3431 1 34 2.34315 34 4C34 5.65685 35.3431 7 37 7Z" stroke="white" stroke-width="2" stroke-miterlimit="10"/>
<path d="M49 7C50.6569 7 52 5.65685 52 4C52 2.34315 50.6569 1 49 1C47.3431 1 46 2.34315 46 4C46 5.65685 47.3431 7 49 7Z" stroke="white" stroke-width="2" stroke-miterlimit="10"/>
<path d="M17 15C18.6569 15 20 13.6569 20 12C20 10.3431 18.6569 9 17 9C15.3431 9 14 10.3431 14 12C14 13.6569 15.3431 15 17 15Z" stroke="white" stroke-width="2" stroke-miterlimit="10"/>
<path d="M21 26H0" stroke="white" stroke-width="2" stroke-miterlimit="10"/>
<path d="M2.0752 18.38C2.9402 18.138 3.9382 18 5.0002 18C8.3142 18 11.0002 19.343 11.0002 21V26" stroke="white" stroke-width="2" stroke-miterlimit="10"/>
<path d="M19.925 18.38C19.06 18.138 18.062 18 17 18C13.686 18 11 19.343 11 21" stroke="white" stroke-width="2" stroke-miterlimit="10"/>
<path d="M44 15C45.6569 15 47 13.6569 47 12C47 10.3431 45.6569 9 44 9C42.3431 9 41 10.3431 41 12C41 13.6569 42.3431 15 44 15Z" stroke="white" stroke-width="2" stroke-miterlimit="10"/>
<path d="M56 15C57.6569 15 59 13.6569 59 12C59 10.3431 57.6569 9 56 9C54.3431 9 53 10.3431 53 12C53 13.6569 54.3431 15 56 15Z" stroke="white" stroke-width="2" stroke-miterlimit="10"/>
<path d="M60 26H39" stroke="white" stroke-width="2" stroke-miterlimit="10"/>
<path d="M41.0752 18.38C41.9402 18.138 42.9382 18 44.0002 18C47.3142 18 50.0002 19.343 50.0002 21V26" stroke="white" stroke-width="2" stroke-miterlimit="10"/>
<path d="M58.925 18.38C58.06 18.138 57.062 18 56 18C52.686 18 50 19.343 50 21" stroke="white" stroke-width="2" stroke-miterlimit="10"/>
<path d="M23.1133 10.033C23.4023 10.011 23.6993 10 24.0003 10C27.3143 10 30.0003 11.343 30.0003 13" stroke="white" stroke-width="2" stroke-miterlimit="10"/>
<path d="M36.887 10.033C36.598 10.011 36.301 10 36 10C32.686 10 30 11.343 30 13" stroke="white" stroke-width="2" stroke-miterlimit="10"/>
<path d="M30 30C33.3137 30 36 26.866 36 23C36 19.134 33.3137 16 30 16C26.6863 16 24 19.134 24 23C24 26.866 26.6863 30 30 30Z" stroke="white" stroke-width="2" stroke-miterlimit="10"/>
<path d="M23 48H17C15.895 48 15 48.895 15 50V56" stroke="white" stroke-width="2" stroke-miterlimit="10"/>
<path d="M52 39.5C52.807 38.962 55 37.042 55 36C55 34.343 53.657 33 52 33C51.385 33 49.476 34.683 49 35M36.5 34H25.338C24.502 34 23.67 34.117 22.866 34.346L14.51 36.733L9.663 33.502C9.186 33.185 8.615 33 8 33C6.343 33 5 34.343 5 36C5 37.042 5.531 37.96 6.338 38.498L12.338 42.498C12.814 42.815 13.385 43 14 43C14.286 43 14.563 42.96 14.826 42.885L23 40.549V56" stroke="white" stroke-width="2" stroke-miterlimit="10"/>
<circle cx="41.5" cy="44.5" r="11.6" stroke="white" stroke-width="1.8"/>
<path d="M34.5628 40.432C34.8614 40.432 35.1041 40.3993 35.2908 40.334C35.4868 40.2687 35.6454 40.18 35.7668 40.068C35.8881 39.956 35.9861 39.8253 36.0608 39.676C36.1354 39.5267 36.2008 39.368 36.2568 39.2H37.2928V49H35.7528V41.524H34.5628V40.432ZM41.1776 45.094L40.7016 45.99V49H39.1616V39.2H40.7016V43.47L42.7176 39.2H44.2576L42.1156 43.568L44.2576 49H42.6756L41.1776 45.094ZM47.7164 43.554H49.5924V44.646H47.7164V46.564H46.6244V44.646H44.7484V43.554H46.6244V41.664H47.7164V43.554Z" fill="white"/>
</svg>
