<svg width="62" height="60" viewBox="0 0 62 60" fill="none" xmlns="http://www.w3.org/2000/svg">
<path d="M14.7534 12.4993C20.8987 13.8243 24.826 19.8977 23.5686 26.1314C21.9893 25.0794 20.3171 24.115 18.5307 23.3123C18.3217 20.655 16.4186 18.3301 13.6923 17.7444C13.2421 17.6404 12.8072 17.6093 12.4015 17.6093C9.49846 17.6093 6.98047 19.6997 6.38834 22.5412C6.02742 24.1744 6.36194 25.831 7.23782 27.2074C8.1211 28.5955 9.50134 29.563 11.114 29.899C11.5629 30.0023 11.9967 30.0333 12.4015 30.0333C13.6842 30.0333 14.8496 29.6203 15.8267 28.9363C17.1819 30.1019 18.461 31.4015 19.5957 32.8218C17.0122 34.9256 13.5513 35.8929 10.0522 35.1439C3.88613 33.816 -0.047895 27.7078 1.24628 21.4526C2.53842 15.2073 8.61446 11.2252 14.7534 12.4993Z" stroke="white" stroke-width="2"/>
<path d="M27.5172 44.5724C27.519 44.0775 27.4995 43.5851 27.4598 43.0956M27.5172 44.5724C27.5172 44.573 27.5172 44.5737 27.5172 44.5744L27.4598 43.0956M27.5172 44.5724C27.5168 49.8583 25.7168 54.7287 22.6796 58.7432C24.1272 58.6216 25.6129 58.5535 27.1225 58.5535C29.1217 58.5535 31.081 58.6633 32.9625 58.8838C33.8039 56.8036 34.3473 54.6124 34.5769 52.3235C31.3698 50.0759 28.8573 46.8597 27.4598 43.0956M27.5172 44.5724C27.5172 44.5718 27.5172 44.5712 27.5172 44.5706L27.4598 43.0956M27.1794 30.1284C27.1272 29.8701 27.0797 29.619 27.039 29.3603C26.513 25.4467 26.859 21.6206 27.843 18.3552C27.504 20.9697 27.5412 24.0414 28.2206 27.5786C27.8121 28.3965 27.4635 29.248 27.1794 30.1284ZM30.5669 12.0748L30.1662 11.7322C29.407 11.0833 29.1304 10.042 29.529 9.10244L29.531 9.09752C29.8892 8.24041 30.7211 7.73828 31.5801 7.73828C31.8708 7.73828 32.1887 7.79907 32.4469 7.92078L32.4468 7.92086L32.4594 7.9266C33.6151 8.45197 34.1338 9.79034 33.6327 10.9585L33.6327 10.9584L33.6291 10.967C33.2709 11.8242 32.439 12.3263 31.5801 12.3263C31.2894 12.3263 30.9714 12.2655 30.7133 12.1438L30.5669 12.0748ZM25.6835 31.8047L26.5659 32.598C26.2332 34.4352 26.1581 36.239 26.3098 37.9784C24.7544 33.7494 21.8383 29.9161 18.4054 26.8635C21.0484 28.1792 23.5082 29.8491 25.6835 31.8047ZM15.1377 24.2593C15.101 24.339 15.0337 24.5097 15.0337 24.7232V24.8075L14.7215 25.2994C14.205 26.1135 13.3304 26.6142 12.4016 26.6142C12.2345 26.6142 12.0567 26.5961 11.8385 26.5525C10.3651 26.2212 9.39659 24.7473 9.71985 23.2369L9.71993 23.2369L9.72238 23.2247C9.98401 21.9235 11.1332 21.0255 12.4016 21.0255C12.5755 21.0255 12.7808 21.0451 12.9923 21.0872C14.419 21.408 15.3722 22.8001 15.1377 24.2593Z" stroke="white" stroke-width="2"/>
<path d="M41.6925 26.7178L41.6876 26.7188C37.7116 27.5284 34.5626 30.9636 34.0707 35.0267C33.3373 40.9312 37.9012 45.9887 43.6481 45.9887C44.6797 45.9887 45.6955 45.8358 46.6332 45.5205C49.1185 44.7007 51.9559 45.3819 54.2478 46.9766C54.2479 46.9767 54.2481 46.9769 54.2483 46.977L56.1918 48.3362C53.0393 51.6978 48.59 53.7734 43.6481 53.7734C40.1889 53.7734 36.9654 52.7492 34.2604 50.9888L34.2594 50.9881C28.5108 47.2566 25.0951 40.1855 26.6873 32.4593L26.6875 32.4581C26.9988 30.9385 27.5172 29.4982 28.217 28.1628L28.2171 28.1629L28.2215 28.1543C30.5915 23.5236 34.9912 20.0843 40.1272 19.0618C46.445 17.8254 52.2883 20.0261 56.1643 24.1571L53.9433 25.712L53.9388 25.7152C51.7721 27.2499 49.044 27.7782 46.5728 26.9705L46.5652 26.9681L46.5576 26.9657C45.057 26.5016 43.4028 26.3784 41.6925 26.7178Z" stroke="white" stroke-width="2"/>
<path d="M23.4439 6.38901L23.4441 6.38848C25.4267 1.83208 30.6972 -0.234741 35.1913 1.76091C39.6917 3.75936 41.7532 9.08905 39.7449 13.6476L39.744 13.6497C38.1633 17.2601 34.533 19.3027 30.8518 18.9996C31.0055 17.6899 31.2561 16.5315 31.5611 15.5233C31.5673 15.5233 31.5736 15.5233 31.5799 15.5233C33.7706 15.5233 35.7237 14.2272 36.5963 12.2268L36.5968 12.2255C37.802 9.4523 36.5697 6.19202 33.8013 4.96419L33.8013 4.96416L33.7932 4.96064C33.1065 4.66332 32.3663 4.48915 31.6074 4.48915C29.4174 4.48915 27.465 5.78432 26.5919 7.78349C25.8472 9.47061 26.0515 11.3277 26.9074 12.783C26.2816 13.9155 25.7691 15.1593 25.343 16.4451C22.7966 13.8897 21.9125 9.90319 23.4439 6.38901Z" stroke="white" stroke-width="2"/>
<path d="M38.9764 32.82C39.2964 32.82 39.5564 32.785 39.7564 32.715C39.9664 32.645 40.1364 32.55 40.2664 32.43C40.3964 32.31 40.5014 32.17 40.5814 32.01C40.6614 31.85 40.7314 31.68 40.7914 31.5H41.9014V42H40.2514V33.99H38.9764V32.82ZM43.7987 34.11C43.7987 33.22 44.0037 32.545 44.4137 32.085C44.8237 31.615 45.4587 31.38 46.3187 31.38C47.1287 31.38 47.7387 31.61 48.1487 32.07C48.5687 32.52 48.7787 33.17 48.7787 34.02V34.29H47.2187V33.915C47.2187 33.535 47.1387 33.27 46.9787 33.12C46.8287 32.96 46.6237 32.88 46.3637 32.88C46.0737 32.88 45.8487 32.97 45.6887 33.15C45.5287 33.33 45.4487 33.67 45.4487 34.17V36.09C45.7387 35.47 46.2487 35.16 46.9787 35.16C47.5887 35.16 48.0437 35.365 48.3437 35.775C48.6537 36.185 48.8087 36.78 48.8087 37.56V39.48C48.8087 40.33 48.5937 40.985 48.1637 41.445C47.7337 41.895 47.1137 42.12 46.3037 42.12C45.4937 42.12 44.8737 41.895 44.4437 41.445C44.0137 40.985 43.7987 40.33 43.7987 39.48V34.11ZM46.3037 36.66C46.0437 36.66 45.8337 36.74 45.6737 36.9C45.5237 37.05 45.4487 37.315 45.4487 37.695V39.585C45.4487 39.965 45.5237 40.23 45.6737 40.38C45.8337 40.53 46.0437 40.605 46.3037 40.605C46.5637 40.605 46.7687 40.53 46.9187 40.38C47.0787 40.23 47.1587 39.965 47.1587 39.585V37.695C47.1587 37.315 47.0787 37.05 46.9187 36.9C46.7687 36.74 46.5637 36.66 46.3037 36.66ZM55.356 31.5L53.631 36.6L55.476 42H53.736L52.386 37.845L51.021 42H49.476L51.321 36.6L49.596 31.5H51.306L52.551 35.37L53.826 31.5H55.356ZM55.9063 38.595L58.9063 31.5H60.7063V38.595H61.4863V40.095H60.7063V42H59.0863V40.095H55.9063V38.595ZM59.0863 38.595V34.65L57.4213 38.595H59.0863Z" fill="white"/>
</svg>
