<svg width="73" height="75" viewBox="0 0 73 75" fill="none" xmlns="http://www.w3.org/2000/svg">
<circle cx="45.9559" cy="27.9559" r="19.9559" fill="white" fill-opacity="0.15"/>
<circle cx="15.6765" cy="57.3249" r="8.67647" fill="white" fill-opacity="0.15"/>
<g clip-path="url(#clip0_31_64)">
<path d="M36.2241 43.8271C32.6836 43.8271 29.8105 40.9541 29.8105 37.4135C29.8105 33.873 32.6836 31 36.2241 31C39.7646 31 42.6376 33.873 42.6376 37.4135C42.6376 40.9541 39.7646 43.8271 36.2241 43.8271ZM36.2241 33.1765C33.8879 33.1765 31.9871 35.0774 31.9871 37.4135C31.9871 39.7497 33.8879 41.6505 36.2241 41.6505C38.5602 41.6505 40.4611 39.7497 40.4611 37.4135C40.4611 35.0774 38.5602 33.1765 36.2241 33.1765Z" fill="white"/>
<path d="M55.2612 43.8271C51.7207 43.8271 48.8477 40.9541 48.8477 37.4135C48.8477 33.873 51.7207 31 55.2612 31C58.8017 31 61.6747 33.873 61.6747 37.4135C61.6747 40.9541 58.8017 43.8271 55.2612 43.8271ZM55.2612 33.1765C52.9251 33.1765 51.0242 35.0774 51.0242 37.4135C51.0242 39.7497 52.9251 41.6505 55.2612 41.6505C57.5974 41.6505 59.4982 39.7497 59.4982 37.4135C59.4982 35.0774 57.5974 33.1765 55.2612 33.1765Z" fill="white"/>
<path d="M62.7637 66.2021C62.6186 66.2021 62.488 66.1876 62.3429 66.173C61.3417 66.0424 60.4711 65.4766 59.9342 64.6204C59.2087 63.4306 59.3103 61.936 60.1519 60.8623V48.4705C60.1519 48.0207 60.4276 47.6144 60.8629 47.4548C61.2837 47.2952 61.7625 47.4113 62.0672 47.7595L67.3345 53.8103C67.6827 54.2021 67.6972 54.7825 67.378 55.1888L62.0672 61.9941C62.0382 62.0376 62.0092 62.0666 61.9802 62.0957C61.6029 62.4584 61.5449 63.0388 61.806 63.4741C61.9802 63.7643 62.2849 63.9675 62.6186 64.011C62.9378 64.0545 63.2571 63.953 63.5037 63.7353L69.7286 56.0594C70.4687 55.1452 70.4977 53.8538 69.8012 52.9106L62.9088 44.219C62.4445 43.6241 61.8205 43.2033 61.095 43.0001L58.6573 42.3036C58.0769 42.144 57.7432 41.5346 57.9173 40.9542C58.0769 40.3738 58.6863 40.04 59.2667 40.2142L61.7045 40.9106C62.8653 41.2444 63.881 41.9264 64.621 42.8695L71.5279 51.5757C71.5279 51.5902 71.5424 51.5902 71.5424 51.6047C72.8484 53.346 72.8048 55.7547 71.4264 57.4524L65.1579 65.1863C65.1289 65.2154 65.0999 65.2444 65.0709 65.2879C64.4324 65.8828 63.6053 66.2021 62.7637 66.2021ZM62.3284 51.3871V58.1053L65.0999 54.5648L62.3284 51.3871Z" fill="white"/>
<path d="M48.6596 65.7217C48.0646 65.7217 47.5713 65.2283 47.5713 64.6334V47.1195C47.5713 46.5246 48.0646 46.0312 48.6596 46.0312C49.2545 46.0312 49.7478 46.5246 49.7478 47.1195V64.6334C49.7478 65.2429 49.2545 65.7217 48.6596 65.7217Z" fill="white"/>
<path d="M40.3013 41.9838C39.8225 41.9838 39.3726 41.6646 39.2565 41.1712C39.0969 40.5908 39.4452 39.9959 40.0256 39.8363L41.4621 39.459C43.6677 38.8786 45.9313 38.7335 48.1949 39.0382L50.9518 39.401C51.5467 39.4735 51.9675 40.0249 51.895 40.6198C51.8224 41.2147 51.2711 41.6355 50.6761 41.563L47.9192 41.2002C45.9458 40.939 43.9579 41.0696 42.028 41.5775L40.5915 41.9548C40.4899 41.9693 40.4029 41.9838 40.3013 41.9838Z" fill="white"/>
<path d="M42.8266 65.7245C42.2316 65.7245 41.7383 65.2311 41.7383 64.6362V46.2372C41.7383 45.8744 41.9269 45.5262 42.2316 45.323L46.4251 42.5661C46.4977 42.5225 46.5702 42.479 46.6573 42.45L51.3296 40.7523C51.8955 40.5491 52.5194 40.8393 52.7226 41.4052C52.9257 41.9711 52.6355 42.5951 52.0696 42.7982L47.5134 44.4524L43.9148 46.8176V64.6362C43.9148 65.2456 43.436 65.7245 42.8266 65.7245Z" fill="white"/>
<path d="M48.5871 49.2818C48.5146 49.2818 48.4565 49.2818 48.384 49.2673L42.6234 48.2081C42.0285 48.092 41.6367 47.5261 41.7528 46.9457C41.8689 46.3508 42.4348 45.959 43.0152 46.0751L48.7758 47.1343C49.3707 47.2504 49.7625 47.8163 49.6464 48.3967C49.5593 48.9046 49.1095 49.2818 48.5871 49.2818Z" fill="white"/>
<path d="M17.2153 43.8271C13.6748 43.8271 10.8018 40.9541 10.8018 37.4135C10.8018 33.873 13.6748 31 17.2153 31C20.7558 31 23.6288 33.873 23.6288 37.4135C23.6288 40.9541 20.7413 43.8271 17.2153 43.8271ZM17.2153 33.1765C14.8791 33.1765 12.9783 35.0774 12.9783 37.4135C12.9783 39.7497 14.8791 41.6505 17.2153 41.6505C19.5514 41.6505 21.4523 39.7497 21.4523 37.4135C21.4523 35.0774 19.5514 33.1765 17.2153 33.1765Z" fill="white"/>
<path d="M9.71371 66.2025C8.8576 66.2025 8.04502 65.8688 7.42108 65.2738C7.39206 65.2448 7.36304 65.2158 7.33402 65.1723L1.06559 57.4383C-0.312891 55.7406 -0.356429 53.3464 0.949496 51.5906C0.949496 51.5761 0.964002 51.5761 0.964002 51.5616L7.87091 42.8555C8.62544 41.9123 9.62665 41.2303 10.7875 40.8966L13.2252 40.2001C13.8056 40.0405 14.4005 40.3742 14.5747 40.9401C14.7343 41.5205 14.4005 42.1154 13.8346 42.2895L11.3969 42.986C10.6714 43.1892 10.0474 43.61 9.58311 44.2049L2.69073 52.9111C1.99424 53.8542 2.02326 55.1457 2.76328 56.0598L8.98819 63.7357C9.23487 63.9534 9.55409 64.055 9.87332 64.0114C10.2216 63.9679 10.5118 63.7793 10.6859 63.4746C10.9616 63.0247 10.889 62.4588 10.5118 62.0961C10.4828 62.0671 10.4537 62.0235 10.4247 61.9945L5.11396 55.1892C4.79473 54.7829 4.80923 54.2025 5.15748 53.8107L10.4247 47.7599C10.7294 47.4117 11.2083 47.2956 11.6291 47.4552C12.0499 47.6148 12.3401 48.0211 12.3401 48.4709V60.8627C13.1817 61.9365 13.2832 63.4165 12.5577 64.6209C12.0353 65.4915 11.1502 66.0574 10.149 66.1735C9.9894 66.2025 9.85881 66.2025 9.71371 66.2025ZM7.37756 54.5652L10.149 58.1058V51.3875L7.37756 54.5652Z" fill="white"/>
<path d="M23.8178 65.7217C23.2228 65.7217 22.7295 65.2283 22.7295 64.6334V47.1195C22.7295 46.5246 23.2228 46.0312 23.8178 46.0312C24.4127 46.0312 24.906 46.5246 24.906 47.1195V64.6334C24.906 65.2429 24.4272 65.7217 23.8178 65.7217Z" fill="white"/>
<path d="M32.1608 41.9838C32.0737 41.9838 31.9722 41.9693 31.8851 41.9548L30.4486 41.5775C28.5187 41.0696 26.5308 40.939 24.5574 41.2002L21.8005 41.563C21.2056 41.6355 20.6542 41.2292 20.5816 40.6198C20.5091 40.0249 20.9153 39.4735 21.5248 39.401L24.2817 39.0382C26.5453 38.7335 28.8089 38.8786 31.0145 39.459L32.451 39.8363C33.0314 39.9959 33.3797 40.5908 33.2201 41.1712C33.0895 41.6646 32.6542 41.9838 32.1608 41.9838Z" fill="white"/>
<path d="M29.6366 65.7245C29.0417 65.7245 28.5483 65.2311 28.5483 64.6362V46.8176L24.9498 44.4524L20.3935 42.7982C19.8276 42.5951 19.5374 41.9711 19.7406 41.4052C19.9437 40.8393 20.5676 40.5491 21.1335 40.7523L25.8059 42.45C25.8784 42.479 25.9655 42.5225 26.038 42.5661L30.2315 45.323C30.5362 45.5262 30.7248 45.8599 30.7248 46.2372V64.6362C30.7248 65.2456 30.246 65.7245 29.6366 65.7245Z" fill="white"/>
<path d="M23.8754 49.2818C23.3675 49.2818 22.9032 48.9191 22.8016 48.3967C22.6855 47.8018 23.0773 47.2359 23.6722 47.1343L29.4328 46.0751C30.0278 45.959 30.5937 46.3508 30.6952 46.9457C30.8113 47.5406 30.4195 48.1065 29.8246 48.2081L24.064 49.2673C24.006 49.2673 23.9479 49.2818 23.8754 49.2818Z" fill="white"/>
<path d="M57.8428 13.7891V16.4733" stroke="white" stroke-width="1.8" stroke-miterlimit="10"/>
<path d="M55.1592 21.8411C55.1592 22.8289 55.9609 23.6306 56.9487 23.6306H58.7381C59.7259 23.6306 60.5276 22.8289 60.5276 21.8411C60.5276 20.8533 59.7259 20.0516 58.7381 20.0516H56.9487C55.9609 20.0516 55.1592 19.2499 55.1592 18.2621C55.1592 17.2743 55.9609 16.4727 56.9487 16.4727H58.7381C59.7259 16.4727 60.5276 17.2743 60.5276 18.2621" stroke="white" stroke-width="1.8" stroke-miterlimit="10"/>
<path d="M57.8428 26.317V23.6328" stroke="white" stroke-width="1.8" stroke-miterlimit="10"/>
<path d="M52.4585 27.7939L48.825 28.9687C48.3356 29.1271 47.8739 28.6636 48.0314 28.1742L49.2062 24.5416C49.0049 23.9779 48.8957 23.3712 48.8957 22.7369V17.3684C48.8957 14.4042 51.299 12 54.2641 12H61.422C64.3863 12 66.7905 14.4042 66.7905 17.3684V22.7369C66.7905 25.7011 64.3863 28.1053 61.422 28.1053H54.2641C53.6316 28.1053 53.0222 27.9952 52.4585 27.7939Z" stroke="white" stroke-width="1.8" stroke-miterlimit="10"/>
<g clip-path="url(#clip1_31_64)">
<path d="M40.0361 24.5133C39.8942 24.5876 39.7523 24.6527 39.6154 24.7085C39.0831 24.9455 38.4393 25.0664 37.6789 25.0664C36.2087 25.0664 35.0985 24.6899 34.0846 23.6999C33.6892 23.3141 33.3749 22.8958 33.1316 22.4402H37.1162V20.6786H32.5993C32.579 20.4741 32.5638 20.2696 32.5638 20.0558C32.5638 19.8048 32.579 19.5631 32.6094 19.326H37.1162V17.5598H33.1721C33.4104 17.1275 33.7146 16.7231 34.0846 16.3559C35.0884 15.3426 36.1986 14.9568 37.6687 14.9568C38.2568 14.9568 38.8347 15.0544 39.4075 15.2497L40.2693 13.5113C39.4025 13.172 38.7333 13 37.8157 13C35.4635 13 33.674 13.7205 32.1937 15.3938C31.6006 16.0724 31.1494 16.7928 30.8503 17.5598H29V19.3214H30.4245C30.3992 19.5677 30.384 19.8187 30.384 20.0697C30.384 20.2742 30.3941 20.4788 30.4093 20.6786H29V22.4402H30.7895C31.1444 23.407 31.7274 24.2855 32.5435 25.0664C33.9883 26.4376 35.6055 27 37.6484 27C38.6268 27 39.5748 26.8234 40.4924 26.4748L40.0361 24.5133Z" fill="white"/>
</g>
<g clip-path="url(#clip2_31_64)">
<path d="M15.6576 18.8586C15.0642 19.4402 13.8917 19.9411 12.9509 20.038C12.039 20.135 11.46 20.1188 10.881 19.7311C10.3165 19.3433 10.0125 18.9232 9.95463 18.1638C9.89673 17.4691 10.0994 17.0005 10.5191 16.4835C10.9389 15.9665 11.5758 15.4979 12.7193 15.0617C14.1089 14.5285 15.1655 13.8499 15.8892 13.0097C16.6274 12.1695 17.0761 11.0224 16.9893 9.89138C16.9025 8.71191 16.2366 7.61323 15.3102 6.90231C14.3839 6.1914 13.2548 5.90057 11.8942 6.02983C11.0113 6.12677 10.2152 6.36913 9.53487 6.78921V8.93811C10.1139 8.46955 11.0837 8.06562 12.0535 7.96868C12.9509 7.87174 13.6601 8.04947 14.1812 8.45339C14.7023 8.87348 14.9773 9.30972 15.0352 10.0691C15.0931 10.7315 14.8615 11.1678 14.3839 11.6687C13.9062 12.1695 13.0812 12.6381 11.9377 13.1066C10.5626 13.656 9.54934 14.4962 8.88351 15.3525C8.21768 16.2088 7.92818 17.2105 8.01503 18.3577C8.10188 19.5856 8.62297 20.5228 9.57829 21.1852C10.5191 21.8476 11.7061 22.1062 13.1246 21.9607C14.0799 21.8638 14.905 21.5568 15.6721 21.0559V18.8586H15.6576Z" fill="white"/>
<path d="M19 11H7V13H19V11Z" fill="white"/>
<path d="M19 15H7V17H19V15Z" fill="white"/>
</g>
<path d="M5.5 27V29.5" stroke="white" stroke-width="1.7" stroke-miterlimit="10"/>
<path d="M5.5 31.5V34" stroke="white" stroke-width="1.7" stroke-miterlimit="10"/>
<path d="M9 30.5H6.5" stroke="white" stroke-width="1.7" stroke-miterlimit="10"/>
<path d="M4.5 30.5H2" stroke="white" stroke-width="1.7" stroke-miterlimit="10"/>
<path d="M32.6035 7.15001V0" stroke="white" stroke-width="1.6" stroke-miterlimit="10"/>
<path d="M29.8955 9.75157V2.60156" stroke="white" stroke-width="1.6" stroke-miterlimit="10"/>
<path d="M29.8955 13.0008V11.0508" stroke="white" stroke-width="1.6" stroke-miterlimit="10"/>
</g>
<path d="M49 74C55.0751 74 60 69.0751 60 63C60 56.9249 55.0751 52 49 52C42.9249 52 38 56.9249 38 63C38 69.0751 42.9249 74 49 74Z" fill="#86BB64" stroke="white" stroke-width="2" stroke-miterlimit="10"/>
<path d="M47.0612 60.608C47.0612 60.1693 46.9866 59.8753 46.8372 59.726C46.6972 59.5673 46.5059 59.488 46.2632 59.488C46.0206 59.488 45.8246 59.5627 45.6752 59.712C45.5352 59.852 45.4652 60.0993 45.4652 60.454V61.504H44.0092V60.552C44.0092 59.7587 44.2006 59.152 44.5832 58.732C44.9752 58.3027 45.5492 58.088 46.3052 58.088C47.0612 58.088 47.6306 58.3027 48.0132 58.732C48.4052 59.152 48.6012 59.7587 48.6012 60.552C48.6012 61.0653 48.5266 61.532 48.3772 61.952C48.2279 62.3627 48.0366 62.7407 47.8032 63.086C47.5792 63.422 47.3319 63.7347 47.0612 64.024C46.7999 64.3133 46.5526 64.5887 46.3192 64.85C46.0952 65.1113 45.9086 65.368 45.7592 65.62C45.6099 65.8627 45.5352 66.1193 45.5352 66.39C45.5352 66.4833 45.5399 66.5533 45.5492 66.6H48.4612V68H44.0092V66.796C44.0092 66.32 44.0839 65.9 44.2332 65.536C44.3826 65.172 44.5692 64.8407 44.7932 64.542C45.0266 64.234 45.2739 63.9493 45.5352 63.688C45.7966 63.4173 46.0392 63.1327 46.2632 62.834C46.4966 62.5353 46.6879 62.2087 46.8372 61.854C46.9866 61.4993 47.0612 61.084 47.0612 60.608ZM50.974 65.746C50.974 66.1007 51.044 66.3527 51.184 66.502C51.3333 66.642 51.5293 66.712 51.772 66.712C52.0147 66.712 52.206 66.642 52.346 66.502C52.4953 66.3527 52.57 66.1007 52.57 65.746V60.454C52.57 60.0993 52.4953 59.852 52.346 59.712C52.206 59.5627 52.0147 59.488 51.772 59.488C51.5293 59.488 51.3333 59.5627 51.184 59.712C51.044 59.852 50.974 60.0993 50.974 60.454V65.746ZM49.434 60.552C49.434 59.7587 49.6347 59.152 50.036 58.732C50.4373 58.3027 51.016 58.088 51.772 58.088C52.528 58.088 53.1067 58.3027 53.508 58.732C53.9093 59.152 54.11 59.7587 54.11 60.552V65.648C54.11 66.4413 53.9093 67.0527 53.508 67.482C53.1067 67.902 52.528 68.112 51.772 68.112C51.016 68.112 50.4373 67.902 50.036 67.482C49.6347 67.0527 49.434 66.4413 49.434 65.648V60.552Z" fill="white"/>
<defs>
<clipPath id="clip0_31_64">
<rect width="73" height="67" fill="white"/>
</clipPath>
<clipPath id="clip1_31_64">
<rect width="10" height="14" fill="white" transform="translate(29 13)"/>
</clipPath>
<clipPath id="clip2_31_64">
<rect width="12" height="16" fill="white" transform="translate(7 6)"/>
</clipPath>
</defs>
</svg>
