<svg width="60" height="60" viewBox="0 0 60 60" fill="none" xmlns="http://www.w3.org/2000/svg">
<path d="M5 17C6.65685 17 8 15.6569 8 14C8 12.3431 6.65685 11 5 11C3.34315 11 2 12.3431 2 14C2 15.6569 3.34315 17 5 17Z" stroke="white" stroke-width="2" stroke-miterlimit="10"/>
<path d="M11 9C12.6569 9 14 7.65685 14 6C14 4.34315 12.6569 3 11 3C9.34315 3 8 4.34315 8 6C8 7.65685 9.34315 9 11 9Z" stroke="white" stroke-width="2" stroke-miterlimit="10"/>
<path d="M23 9C24.6569 9 26 7.65685 26 6C26 4.34315 24.6569 3 23 3C21.3431 3 20 4.34315 20 6C20 7.65685 21.3431 9 23 9Z" stroke="white" stroke-width="2" stroke-miterlimit="10"/>
<path d="M37 9C38.6569 9 40 7.65685 40 6C40 4.34315 38.6569 3 37 3C35.3431 3 34 4.34315 34 6C34 7.65685 35.3431 9 37 9Z" stroke="white" stroke-width="2" stroke-miterlimit="10"/>
<path d="M49 9C50.6569 9 52 7.65685 52 6C52 4.34315 50.6569 3 49 3C47.3431 3 46 4.34315 46 6C46 7.65685 47.3431 9 49 9Z" stroke="white" stroke-width="2" stroke-miterlimit="10"/>
<path d="M17 17C18.6569 17 20 15.6569 20 14C20 12.3431 18.6569 11 17 11C15.3431 11 14 12.3431 14 14C14 15.6569 15.3431 17 17 17Z" stroke="white" stroke-width="2" stroke-miterlimit="10"/>
<path d="M21 28H0" stroke="white" stroke-width="2" stroke-miterlimit="10"/>
<path d="M2.0752 20.38C2.9402 20.138 3.9382 20 5.0002 20C8.3142 20 11.0002 21.343 11.0002 23V28" stroke="white" stroke-width="2" stroke-miterlimit="10"/>
<path d="M19.925 20.38C19.06 20.138 18.062 20 17 20C13.686 20 11 21.343 11 23" stroke="white" stroke-width="2" stroke-miterlimit="10"/>
<path d="M44 17C45.6569 17 47 15.6569 47 14C47 12.3431 45.6569 11 44 11C42.3431 11 41 12.3431 41 14C41 15.6569 42.3431 17 44 17Z" stroke="white" stroke-width="2" stroke-miterlimit="10"/>
<path d="M56 17C57.6569 17 59 15.6569 59 14C59 12.3431 57.6569 11 56 11C54.3431 11 53 12.3431 53 14C53 15.6569 54.3431 17 56 17Z" stroke="white" stroke-width="2" stroke-miterlimit="10"/>
<path d="M60 28H39" stroke="white" stroke-width="2" stroke-miterlimit="10"/>
<path d="M41.0752 20.38C41.9402 20.138 42.9382 20 44.0002 20C47.3142 20 50.0002 21.343 50.0002 23V28" stroke="white" stroke-width="2" stroke-miterlimit="10"/>
<path d="M58.925 20.38C58.06 20.138 57.062 20 56 20C52.686 20 50 21.343 50 23" stroke="white" stroke-width="2" stroke-miterlimit="10"/>
<path d="M23.1133 12.033C23.4023 12.011 23.6993 12 24.0003 12C27.3143 12 30.0003 13.343 30.0003 15" stroke="white" stroke-width="2" stroke-miterlimit="10"/>
<path d="M36.887 12.033C36.598 12.011 36.301 12 36 12C32.686 12 30 13.343 30 15" stroke="white" stroke-width="2" stroke-miterlimit="10"/>
<path d="M30 32C33.3137 32 36 28.866 36 25C36 21.134 33.3137 18 30 18C26.6863 18 24 21.134 24 25C24 28.866 26.6863 32 30 32Z" stroke="white" stroke-width="2" stroke-miterlimit="10"/>
<path d="M23 50H17C15.895 50 15 50.895 15 52V58" stroke="white" stroke-width="2" stroke-miterlimit="10"/>
<path d="M52 41.5C52.807 40.962 55 39.042 55 38C55 36.343 53.657 35 52 35C51.385 35 48.976 36.683 48.5 37M36.5 36H25.338C24.502 36 23.67 36.117 22.866 36.346L14.51 38.733L9.663 35.502C9.186 35.185 8.615 35 8 35C6.343 35 5 36.343 5 38C5 39.042 5.531 39.96 6.338 40.498L12.338 44.498C12.814 44.815 13.385 45 14 45C14.286 45 14.563 44.96 14.826 44.885L23 42.549V58" stroke="white" stroke-width="2" stroke-miterlimit="10"/>
<circle cx="41.5" cy="46.5" r="11.6" stroke="white" stroke-width="1.8"/>
<path d="M39.0612 43.608C39.0612 43.1693 38.9866 42.8753 38.8372 42.726C38.6972 42.5673 38.5059 42.488 38.2632 42.488C38.0206 42.488 37.8246 42.5627 37.6752 42.712C37.5352 42.852 37.4652 43.0993 37.4652 43.454V44.504H36.0092V43.552C36.0092 42.7587 36.2006 42.152 36.5832 41.732C36.9752 41.3027 37.5492 41.088 38.3052 41.088C39.0612 41.088 39.6306 41.3027 40.0132 41.732C40.4052 42.152 40.6012 42.7587 40.6012 43.552C40.6012 44.0653 40.5266 44.532 40.3772 44.952C40.2279 45.3627 40.0366 45.7407 39.8032 46.086C39.5792 46.422 39.3319 46.7347 39.0612 47.024C38.7999 47.3133 38.5526 47.5887 38.3192 47.85C38.0952 48.1113 37.9086 48.368 37.7592 48.62C37.6099 48.8627 37.5352 49.1193 37.5352 49.39C37.5352 49.4833 37.5399 49.5533 37.5492 49.6H40.4612V51H36.0092V49.796C36.0092 49.32 36.0839 48.9 36.2332 48.536C36.3826 48.172 36.5692 47.8407 36.7932 47.542C37.0266 47.234 37.2739 46.9493 37.5352 46.688C37.7966 46.4173 38.0392 46.1327 38.2632 45.834C38.4966 45.5353 38.6879 45.2087 38.8372 44.854C38.9866 44.4993 39.0612 44.084 39.0612 43.608ZM42.974 48.746C42.974 49.1007 43.044 49.3527 43.184 49.502C43.3333 49.642 43.5293 49.712 43.772 49.712C44.0147 49.712 44.206 49.642 44.346 49.502C44.4953 49.3527 44.57 49.1007 44.57 48.746V43.454C44.57 43.0993 44.4953 42.852 44.346 42.712C44.206 42.5627 44.0147 42.488 43.772 42.488C43.5293 42.488 43.3333 42.5627 43.184 42.712C43.044 42.852 42.974 43.0993 42.974 43.454V48.746ZM41.434 43.552C41.434 42.7587 41.6347 42.152 42.036 41.732C42.4373 41.3027 43.016 41.088 43.772 41.088C44.528 41.088 45.1067 41.3027 45.508 41.732C45.9093 42.152 46.11 42.7587 46.11 43.552V48.648C46.11 49.4413 45.9093 50.0527 45.508 50.482C45.1067 50.902 44.528 51.112 43.772 51.112C43.016 51.112 42.4373 50.902 42.036 50.482C41.6347 50.0527 41.434 49.4413 41.434 48.648V43.552Z" fill="white"/>
</svg>
