<svg width="60" height="60" viewBox="0 0 60 60" fill="none" xmlns="http://www.w3.org/2000/svg">
<path d="M54 53H6C3.791 53 2 51.209 2 49V47H58V49C58 51.209 56.209 53 54 53Z" stroke="white" stroke-width="2" stroke-miterlimit="10"/>
<path d="M55 21V47" stroke="white" stroke-width="2" stroke-miterlimit="10"/>
<path d="M45.9961 8H51.0001C53.2091 8 55.0001 9.791 55.0001 12V15" stroke="white" stroke-width="2" stroke-miterlimit="10"/>
<path d="M5 47V12C5 9.791 6.791 8 9 8H23" stroke="white" stroke-width="2" stroke-miterlimit="10"/>
<path d="M53 50V53" stroke="white" stroke-width="2" stroke-miterlimit="10"/>
<path d="M49 50V53" stroke="white" stroke-width="2" stroke-miterlimit="10"/>
<path d="M45 50V53" stroke="white" stroke-width="2" stroke-miterlimit="10"/>
<path d="M11 57H25" stroke="white" stroke-width="2" stroke-miterlimit="10"/>
<path d="M27 57H29" stroke="white" stroke-width="2" stroke-miterlimit="10"/>
<path d="M23 8H46" stroke="white" stroke-width="2" stroke-miterlimit="10"/>
<path d="M10 11H8V13H10V11Z" fill="white"/>
<path d="M10 15H8V17H10V15Z" fill="white"/>
<path d="M10 19H8V21H10V19Z" fill="white"/>
<path d="M55 17V19" stroke="white" stroke-width="2" stroke-miterlimit="10"/>
<path d="M25.8147 24.384C25.8147 23.6947 25.6973 23.2327 25.4627 22.998C25.2427 22.7487 24.942 22.624 24.5607 22.624C24.1793 22.624 23.8713 22.7413 23.6367 22.976C23.4167 23.196 23.3067 23.5847 23.3067 24.142V25.792H21.0187V24.296C21.0187 23.0493 21.3193 22.096 21.9207 21.436C22.5367 20.7613 23.4387 20.424 24.6267 20.424C25.8147 20.424 26.7093 20.7613 27.3107 21.436C27.9267 22.096 28.2347 23.0493 28.2347 24.296C28.2347 25.1027 28.1173 25.836 27.8827 26.496C27.648 27.1413 27.3473 27.7353 26.9807 28.278C26.6287 28.806 26.24 29.2973 25.8147 29.752C25.404 30.2067 25.0153 30.6393 24.6487 31.05C24.2967 31.4607 24.0033 31.864 23.7687 32.26C23.534 32.6413 23.4167 33.0447 23.4167 33.47C23.4167 33.6167 23.424 33.7267 23.4387 33.8H28.0147V36H21.0187V34.108C21.0187 33.36 21.136 32.7 21.3707 32.128C21.6053 31.556 21.8987 31.0353 22.2507 30.566C22.6173 30.082 23.006 29.6347 23.4167 29.224C23.8273 28.7987 24.2087 28.3513 24.5607 27.882C24.9273 27.4127 25.228 26.8993 25.4627 26.342C25.6973 25.7847 25.8147 25.132 25.8147 24.384Z" fill="white"/>
<rect x="12" y="17" width="37" height="22" rx="1" stroke="white" stroke-width="2"/>
<mask id="mask0_31_788" style="mask-type:alpha" maskUnits="userSpaceOnUse" x="31" y="16" width="11" height="15">
<rect x="31" y="16" width="11" height="15" fill="#D9D9D9"/>
</mask>
<g mask="url(#mask0_31_788)">
<path d="M34.2407 26.458C34.2407 27.0153 34.3507 27.4113 34.5707 27.646C34.8053 27.866 35.1133 27.976 35.4947 27.976C35.876 27.976 36.1767 27.866 36.3967 27.646C36.6313 27.4113 36.7487 27.0153 36.7487 26.458V18.142C36.7487 17.5847 36.6313 17.196 36.3967 16.976C36.1767 16.7413 35.876 16.624 35.4947 16.624C35.1133 16.624 34.8053 16.7413 34.5707 16.976C34.3507 17.196 34.2407 17.5847 34.2407 18.142V26.458ZM31.8207 18.296C31.8207 17.0493 32.136 16.096 32.7667 15.436C33.3973 14.7613 34.3067 14.424 35.4947 14.424C36.6827 14.424 37.592 14.7613 38.2227 15.436C38.8533 16.096 39.1687 17.0493 39.1687 18.296V26.304C39.1687 27.5507 38.8533 28.5113 38.2227 29.186C37.592 29.846 36.6827 30.176 35.4947 30.176C34.3067 30.176 33.3973 29.846 32.7667 29.186C32.136 28.5113 31.8207 27.5507 31.8207 26.304V18.296Z" fill="white"/>
</g>
<mask id="mask1_31_788" style="mask-type:alpha" maskUnits="userSpaceOnUse" x="31" y="32" width="10" height="7">
<rect x="31" y="32" width="10" height="7" fill="#D9D9D9"/>
</mask>
<g mask="url(#mask1_31_788)">
<path d="M33.5147 34.536C33.984 34.536 34.3653 34.4847 34.6587 34.382C34.9667 34.2793 35.216 34.14 35.4067 33.964C35.5973 33.788 35.7513 33.5827 35.8687 33.348C35.986 33.1133 36.0887 32.864 36.1767 32.6H37.8047V48H35.3847V36.252H33.5147V34.536Z" fill="white"/>
</g>
</svg>
