<svg width="70" height="60" viewBox="0 0 70 60" fill="none" xmlns="http://www.w3.org/2000/svg">
<path d="M14.7534 12.4993C20.8987 13.8243 24.826 19.8977 23.5686 26.1314C21.9893 25.0794 20.3171 24.115 18.5307 23.3123C18.3217 20.655 16.4186 18.3301 13.6923 17.7444C13.2421 17.6404 12.8072 17.6093 12.4015 17.6093C9.49846 17.6093 6.98047 19.6997 6.38834 22.5412C6.02742 24.1744 6.36194 25.831 7.23782 27.2074C8.1211 28.5955 9.50134 29.563 11.114 29.899C11.5629 30.0023 11.9967 30.0333 12.4015 30.0333C13.6842 30.0333 14.8496 29.6203 15.8267 28.9363C17.1819 30.1019 18.461 31.4015 19.5957 32.8218C17.0122 34.9256 13.5513 35.8929 10.0522 35.1439C3.88613 33.816 -0.047895 27.7078 1.24628 21.4526C2.53842 15.2073 8.61446 11.2252 14.7534 12.4993Z" stroke="white" stroke-width="2"/>
<path d="M27.5172 44.5724C27.519 44.0775 27.4995 43.5851 27.4598 43.0956M27.5172 44.5724C27.5172 44.573 27.5172 44.5737 27.5172 44.5744L27.4598 43.0956M27.5172 44.5724C27.5168 49.8583 25.7168 54.7287 22.6796 58.7432C24.1272 58.6216 25.6129 58.5535 27.1225 58.5535C29.1217 58.5535 31.081 58.6633 32.9625 58.8838C33.8039 56.8036 34.3473 54.6124 34.5769 52.3235C31.3698 50.0759 28.8573 46.8597 27.4598 43.0956M27.5172 44.5724C27.5172 44.5718 27.5172 44.5712 27.5172 44.5706L27.4598 43.0956M27.1794 30.1284C27.1272 29.8701 27.0797 29.619 27.039 29.3603C26.513 25.4467 26.859 21.6206 27.843 18.3552C27.504 20.9697 27.5412 24.0414 28.2206 27.5786C27.8121 28.3965 27.4635 29.248 27.1794 30.1284ZM30.5669 12.0748L30.1662 11.7322C29.407 11.0833 29.1304 10.042 29.529 9.10244L29.531 9.09752C29.8892 8.24041 30.7211 7.73828 31.5801 7.73828C31.8708 7.73828 32.1887 7.79907 32.4469 7.92078L32.4468 7.92086L32.4594 7.9266C33.6151 8.45197 34.1338 9.79034 33.6327 10.9585L33.6327 10.9584L33.6291 10.967C33.2709 11.8242 32.439 12.3263 31.5801 12.3263C31.2894 12.3263 30.9714 12.2655 30.7133 12.1438L30.5669 12.0748ZM25.6835 31.8047L26.5659 32.598C26.2332 34.4352 26.1581 36.239 26.3098 37.9784C24.7544 33.7494 21.8383 29.9161 18.4054 26.8635C21.0484 28.1792 23.5082 29.8491 25.6835 31.8047ZM15.1377 24.2593C15.101 24.339 15.0337 24.5097 15.0337 24.7232V24.8075L14.7215 25.2994C14.205 26.1135 13.3304 26.6142 12.4016 26.6142C12.2345 26.6142 12.0567 26.5961 11.8385 26.5525C10.3651 26.2212 9.39659 24.7473 9.71985 23.2369L9.71993 23.2369L9.72238 23.2247C9.98401 21.9235 11.1332 21.0255 12.4016 21.0255C12.5755 21.0255 12.7808 21.0451 12.9923 21.0872C14.419 21.408 15.3722 22.8001 15.1377 24.2593Z" stroke="white" stroke-width="2"/>
<path d="M41.6925 26.7178L41.6876 26.7188C37.7116 27.5284 34.5626 30.9636 34.0707 35.0267C33.3373 40.9312 37.9012 45.9887 43.6481 45.9887C44.6797 45.9887 45.6955 45.8358 46.6332 45.5205C49.1185 44.7007 51.9559 45.3819 54.2478 46.9766C54.2479 46.9767 54.2481 46.9769 54.2483 46.977L56.1918 48.3362C53.0393 51.6978 48.59 53.7734 43.6481 53.7734C40.1889 53.7734 36.9654 52.7492 34.2604 50.9888L34.2594 50.9881C28.5108 47.2566 25.0951 40.1855 26.6873 32.4593L26.6875 32.4581C26.9988 30.9385 27.5172 29.4982 28.217 28.1628L28.2171 28.1629L28.2215 28.1543C30.5915 23.5236 34.9912 20.0843 40.1272 19.0618C46.445 17.8254 52.2883 20.0261 56.1643 24.1571L53.9433 25.712L53.9388 25.7152C51.7721 27.2499 49.044 27.7782 46.5728 26.9705L46.5652 26.9681L46.5576 26.9657C45.057 26.5016 43.4028 26.3784 41.6925 26.7178Z" stroke="white" stroke-width="2"/>
<path d="M23.4439 6.38901L23.4441 6.38848C25.4267 1.83208 30.6972 -0.234741 35.1913 1.76091C39.6917 3.75936 41.7532 9.08905 39.7449 13.6476L39.744 13.6497C38.1633 17.2601 34.533 19.3027 30.8518 18.9996C31.0055 17.6899 31.2561 16.5315 31.5611 15.5233C31.5673 15.5233 31.5736 15.5233 31.5799 15.5233C33.7706 15.5233 35.7237 14.2272 36.5963 12.2268L36.5968 12.2255C37.802 9.4523 36.5697 6.19202 33.8013 4.96419L33.8013 4.96416L33.7932 4.96064C33.1065 4.66332 32.3663 4.48915 31.6074 4.48915C29.4174 4.48915 27.465 5.78432 26.5919 7.78349C25.8472 9.47061 26.0515 11.3277 26.9074 12.783C26.2816 13.9155 25.7691 15.1593 25.343 16.4451C22.7966 13.8897 21.9125 9.90319 23.4439 6.38901Z" stroke="white" stroke-width="2"/>
<path d="M43.2528 34.08C43.2528 33.61 43.1728 33.295 43.0128 33.135C42.8628 32.965 42.6578 32.88 42.3978 32.88C42.1378 32.88 41.9278 32.96 41.7678 33.12C41.6178 33.27 41.5428 33.535 41.5428 33.915V35.04H39.9828V34.02C39.9828 33.17 40.1878 32.52 40.5978 32.07C41.0178 31.61 41.6328 31.38 42.4428 31.38C43.2528 31.38 43.8628 31.61 44.2728 32.07C44.6928 32.52 44.9028 33.17 44.9028 34.02C44.9028 34.57 44.8228 35.07 44.6628 35.52C44.5028 35.96 44.2978 36.365 44.0478 36.735C43.8078 37.095 43.5428 37.43 43.2528 37.74C42.9728 38.05 42.7078 38.345 42.4578 38.625C42.2178 38.905 42.0178 39.18 41.8578 39.45C41.6978 39.71 41.6178 39.985 41.6178 40.275C41.6178 40.375 41.6228 40.45 41.6328 40.5H44.7528V42H39.9828V40.71C39.9828 40.2 40.0628 39.75 40.2228 39.36C40.3828 38.97 40.5828 38.615 40.8228 38.295C41.0728 37.965 41.3378 37.66 41.6178 37.38C41.8978 37.09 42.1578 36.785 42.3978 36.465C42.6478 36.145 42.8528 35.795 43.0128 35.415C43.1728 35.035 43.2528 34.59 43.2528 34.08ZM47.4151 38.61V39.585C47.4151 39.965 47.4901 40.23 47.6401 40.38C47.8001 40.53 48.0101 40.605 48.2701 40.605C48.5301 40.605 48.7351 40.53 48.8851 40.38C49.0451 40.23 49.1251 39.965 49.1251 39.585V37.275C49.1251 36.895 49.0451 36.63 48.8851 36.48C48.7351 36.32 48.5301 36.24 48.2701 36.24C48.0101 36.24 47.8001 36.32 47.6401 36.48C47.4901 36.63 47.4151 36.895 47.4151 37.275V37.59H45.8551L46.1551 31.5H50.5051V33H47.6401L47.5051 35.505C47.8151 34.995 48.2951 34.74 48.9451 34.74C49.5551 34.74 50.0101 34.945 50.3101 35.355C50.6201 35.765 50.7751 36.36 50.7751 37.14V39.48C50.7751 40.33 50.5651 40.985 50.1451 41.445C49.7351 41.895 49.1251 42.12 48.3151 42.12C47.5051 42.12 46.8901 41.895 46.4701 41.445C46.0601 40.985 45.8551 40.33 45.8551 39.48V38.61H47.4151ZM51.7723 34.11C51.7723 33.22 51.9773 32.545 52.3873 32.085C52.7973 31.615 53.4323 31.38 54.2923 31.38C55.1023 31.38 55.7123 31.61 56.1223 32.07C56.5423 32.52 56.7523 33.17 56.7523 34.02V34.29H55.1923V33.915C55.1923 33.535 55.1123 33.27 54.9523 33.12C54.8023 32.96 54.5973 32.88 54.3373 32.88C54.0473 32.88 53.8223 32.97 53.6623 33.15C53.5023 33.33 53.4223 33.67 53.4223 34.17V36.09C53.7123 35.47 54.2223 35.16 54.9523 35.16C55.5623 35.16 56.0173 35.365 56.3173 35.775C56.6273 36.185 56.7823 36.78 56.7823 37.56V39.48C56.7823 40.33 56.5673 40.985 56.1373 41.445C55.7073 41.895 55.0873 42.12 54.2773 42.12C53.4673 42.12 52.8473 41.895 52.4173 41.445C51.9873 40.985 51.7723 40.33 51.7723 39.48V34.11ZM54.2773 36.66C54.0173 36.66 53.8073 36.74 53.6473 36.9C53.4973 37.05 53.4223 37.315 53.4223 37.695V39.585C53.4223 39.965 53.4973 40.23 53.6473 40.38C53.8073 40.53 54.0173 40.605 54.2773 40.605C54.5373 40.605 54.7423 40.53 54.8923 40.38C55.0523 40.23 55.1323 39.965 55.1323 39.585V37.695C55.1323 37.315 55.0523 37.05 54.8923 36.9C54.7423 36.74 54.5373 36.66 54.2773 36.66ZM63.3296 31.5L61.6046 36.6L63.4496 42H61.7096L60.3596 37.845L58.9946 42H57.4496L59.2946 36.6L57.5696 31.5H59.2796L60.5246 35.37L61.7996 31.5H63.3296ZM63.8799 38.595L66.8799 31.5H68.6799V38.595H69.4599V40.095H68.6799V42H67.0599V40.095H63.8799V38.595ZM67.0599 38.595V34.65L65.3949 38.595H67.0599Z" fill="white"/>
</svg>
