<svg width="60" height="57" viewBox="0 0 60 57" fill="none" xmlns="http://www.w3.org/2000/svg">
<path d="M5 15C6.65685 15 8 13.6569 8 12C8 10.3431 6.65685 9 5 9C3.34315 9 2 10.3431 2 12C2 13.6569 3.34315 15 5 15Z" stroke="white" stroke-width="2" stroke-miterlimit="10"/>
<path d="M11 7C12.6569 7 14 5.65685 14 4C14 2.34315 12.6569 1 11 1C9.34315 1 8 2.34315 8 4C8 5.65685 9.34315 7 11 7Z" stroke="white" stroke-width="2" stroke-miterlimit="10"/>
<path d="M23 7C24.6569 7 26 5.65685 26 4C26 2.34315 24.6569 1 23 1C21.3431 1 20 2.34315 20 4C20 5.65685 21.3431 7 23 7Z" stroke="white" stroke-width="2" stroke-miterlimit="10"/>
<path d="M37 7C38.6569 7 40 5.65685 40 4C40 2.34315 38.6569 1 37 1C35.3431 1 34 2.34315 34 4C34 5.65685 35.3431 7 37 7Z" stroke="white" stroke-width="2" stroke-miterlimit="10"/>
<path d="M49 7C50.6569 7 52 5.65685 52 4C52 2.34315 50.6569 1 49 1C47.3431 1 46 2.34315 46 4C46 5.65685 47.3431 7 49 7Z" stroke="white" stroke-width="2" stroke-miterlimit="10"/>
<path d="M17 15C18.6569 15 20 13.6569 20 12C20 10.3431 18.6569 9 17 9C15.3431 9 14 10.3431 14 12C14 13.6569 15.3431 15 17 15Z" stroke="white" stroke-width="2" stroke-miterlimit="10"/>
<path d="M21 26H0" stroke="white" stroke-width="2" stroke-miterlimit="10"/>
<path d="M2.0752 18.38C2.9402 18.138 3.9382 18 5.0002 18C8.3142 18 11.0002 19.343 11.0002 21V26" stroke="white" stroke-width="2" stroke-miterlimit="10"/>
<path d="M19.925 18.38C19.06 18.138 18.062 18 17 18C13.686 18 11 19.343 11 21" stroke="white" stroke-width="2" stroke-miterlimit="10"/>
<path d="M44 15C45.6569 15 47 13.6569 47 12C47 10.3431 45.6569 9 44 9C42.3431 9 41 10.3431 41 12C41 13.6569 42.3431 15 44 15Z" stroke="white" stroke-width="2" stroke-miterlimit="10"/>
<path d="M56 15C57.6569 15 59 13.6569 59 12C59 10.3431 57.6569 9 56 9C54.3431 9 53 10.3431 53 12C53 13.6569 54.3431 15 56 15Z" stroke="white" stroke-width="2" stroke-miterlimit="10"/>
<path d="M60 26H39" stroke="white" stroke-width="2" stroke-miterlimit="10"/>
<path d="M41.0752 18.38C41.9402 18.138 42.9382 18 44.0002 18C47.3142 18 50.0002 19.343 50.0002 21V26" stroke="white" stroke-width="2" stroke-miterlimit="10"/>
<path d="M58.925 18.38C58.06 18.138 57.062 18 56 18C52.686 18 50 19.343 50 21" stroke="white" stroke-width="2" stroke-miterlimit="10"/>
<path d="M23.1133 10.033C23.4023 10.011 23.6993 10 24.0003 10C27.3143 10 30.0003 11.343 30.0003 13" stroke="white" stroke-width="2" stroke-miterlimit="10"/>
<path d="M36.887 10.033C36.598 10.011 36.301 10 36 10C32.686 10 30 11.343 30 13" stroke="white" stroke-width="2" stroke-miterlimit="10"/>
<path d="M30 30C33.3137 30 36 26.866 36 23C36 19.134 33.3137 16 30 16C26.6863 16 24 19.134 24 23C24 26.866 26.6863 30 30 30Z" stroke="white" stroke-width="2" stroke-miterlimit="10"/>
<path d="M23 48H17C15.895 48 15 48.895 15 50V56" stroke="white" stroke-width="2" stroke-miterlimit="10"/>
<path d="M52 39.5C52.807 38.962 55 37.042 55 36C55 34.343 53.657 33 52 33C51.385 33 48.976 35.183 48.5 35.5M36.5 34H25.338C24.502 34 23.67 34.117 22.866 34.346L14.51 36.733L9.663 33.502C9.186 33.185 8.615 33 8 33C6.343 33 5 34.343 5 36C5 37.042 5.531 37.96 6.338 38.498L12.338 42.498C12.814 42.815 13.385 43 14 43C14.286 43 14.563 42.96 14.826 42.885L23 40.549V56" stroke="white" stroke-width="2" stroke-miterlimit="10"/>
<circle cx="41.5" cy="44.5" r="11.6" stroke="white" stroke-width="1.8"/>
<path d="M36.7018 41.608C36.7018 41.1693 36.6272 40.8753 36.4778 40.726C36.3378 40.5673 36.1465 40.488 35.9038 40.488C35.6612 40.488 35.4652 40.5627 35.3158 40.712C35.1758 40.852 35.1058 41.0993 35.1058 41.454V42.084H33.6498V41.552C33.6498 40.7587 33.8412 40.152 34.2238 39.732C34.6158 39.3027 35.1898 39.088 35.9458 39.088C36.7018 39.088 37.2712 39.3027 37.6538 39.732C38.0458 40.152 38.2418 40.7587 38.2418 41.552V41.804C38.2418 42.8493 37.8825 43.5213 37.1638 43.82C37.5558 43.988 37.8312 44.2493 37.9898 44.604C38.1578 44.9493 38.2418 45.374 38.2418 45.878V46.648C38.2418 47.4413 38.0458 48.0527 37.6538 48.482C37.2712 48.902 36.7018 49.112 35.9458 49.112C35.1898 49.112 34.6158 48.902 34.2238 48.482C33.8412 48.0527 33.6498 47.4413 33.6498 46.648V45.836H35.1058V46.746C35.1058 47.1007 35.1758 47.3527 35.3158 47.502C35.4652 47.642 35.6612 47.712 35.9038 47.712C36.1465 47.712 36.3378 47.6373 36.4778 47.488C36.6272 47.3387 36.7018 47.0447 36.7018 46.606V45.836C36.7018 45.3787 36.6225 45.0567 36.4638 44.87C36.3052 44.6833 36.0485 44.59 35.6938 44.59H35.1758V43.19H35.7778C36.0672 43.19 36.2912 43.1153 36.4498 42.966C36.6178 42.8167 36.7018 42.546 36.7018 42.154V41.608ZM40.6706 45.836V46.746C40.6706 47.1007 40.7406 47.348 40.8806 47.488C41.0299 47.628 41.2259 47.698 41.4686 47.698C41.7113 47.698 41.9026 47.628 42.0426 47.488C42.1919 47.348 42.2666 47.1007 42.2666 46.746V44.59C42.2666 44.2353 42.1919 43.988 42.0426 43.848C41.9026 43.6987 41.7113 43.624 41.4686 43.624C41.2259 43.624 41.0299 43.6987 40.8806 43.848C40.7406 43.988 40.6706 44.2353 40.6706 44.59V44.884H39.2146L39.4946 39.2H43.5546V40.6H40.8806L40.7546 42.938C41.0439 42.462 41.4919 42.224 42.0986 42.224C42.6679 42.224 43.0926 42.4153 43.3726 42.798C43.6619 43.1807 43.8066 43.736 43.8066 44.464V46.648C43.8066 47.4413 43.6106 48.0527 43.2186 48.482C42.8359 48.902 42.2666 49.112 41.5106 49.112C40.7546 49.112 40.1806 48.902 39.7886 48.482C39.4059 48.0527 39.2146 47.4413 39.2146 46.648V45.836H40.6706ZM46.2494 46.746C46.2494 47.1007 46.3194 47.3527 46.4594 47.502C46.6087 47.642 46.8047 47.712 47.0474 47.712C47.2901 47.712 47.4814 47.642 47.6214 47.502C47.7707 47.3527 47.8454 47.1007 47.8454 46.746V41.454C47.8454 41.0993 47.7707 40.852 47.6214 40.712C47.4814 40.5627 47.2901 40.488 47.0474 40.488C46.8047 40.488 46.6087 40.5627 46.4594 40.712C46.3194 40.852 46.2494 41.0993 46.2494 41.454V46.746ZM44.7094 41.552C44.7094 40.7587 44.9101 40.152 45.3114 39.732C45.7127 39.3027 46.2914 39.088 47.0474 39.088C47.8034 39.088 48.3821 39.3027 48.7834 39.732C49.1847 40.152 49.3854 40.7587 49.3854 41.552V46.648C49.3854 47.4413 49.1847 48.0527 48.7834 48.482C48.3821 48.902 47.8034 49.112 47.0474 49.112C46.2914 49.112 45.7127 48.902 45.3114 48.482C44.9101 48.0527 44.7094 47.4413 44.7094 46.648V41.552Z" fill="white"/>
</svg>
