<svg width="60" height="59" viewBox="0 0 60 59" fill="none" xmlns="http://www.w3.org/2000/svg">
<circle cx="38.9559" cy="19.9559" r="19.9559" fill="white" fill-opacity="0.15"/>
<circle cx="8.67647" cy="49.3249" r="8.67647" fill="white" fill-opacity="0.15"/>
<path d="M5 17C6.65685 17 8 15.6569 8 14C8 12.3431 6.65685 11 5 11C3.34315 11 2 12.3431 2 14C2 15.6569 3.34315 17 5 17Z" stroke="white" stroke-width="2" stroke-miterlimit="10"/>
<path d="M11 9C12.6569 9 14 7.65685 14 6C14 4.34315 12.6569 3 11 3C9.34315 3 8 4.34315 8 6C8 7.65685 9.34315 9 11 9Z" stroke="white" stroke-width="2" stroke-miterlimit="10"/>
<path d="M23 9C24.6569 9 26 7.65685 26 6C26 4.34315 24.6569 3 23 3C21.3431 3 20 4.34315 20 6C20 7.65685 21.3431 9 23 9Z" stroke="white" stroke-width="2" stroke-miterlimit="10"/>
<path d="M37 9C38.6569 9 40 7.65685 40 6C40 4.34315 38.6569 3 37 3C35.3431 3 34 4.34315 34 6C34 7.65685 35.3431 9 37 9Z" stroke="white" stroke-width="2" stroke-miterlimit="10"/>
<path d="M49 9C50.6569 9 52 7.65685 52 6C52 4.34315 50.6569 3 49 3C47.3431 3 46 4.34315 46 6C46 7.65685 47.3431 9 49 9Z" stroke="white" stroke-width="2" stroke-miterlimit="10"/>
<path d="M17 17C18.6569 17 20 15.6569 20 14C20 12.3431 18.6569 11 17 11C15.3431 11 14 12.3431 14 14C14 15.6569 15.3431 17 17 17Z" stroke="white" stroke-width="2" stroke-miterlimit="10"/>
<path d="M21 28H0" stroke="white" stroke-width="2" stroke-miterlimit="10"/>
<path d="M2.0752 20.38C2.9402 20.138 3.9382 20 5.0002 20C8.3142 20 11.0002 21.343 11.0002 23V28" stroke="white" stroke-width="2" stroke-miterlimit="10"/>
<path d="M19.925 20.38C19.06 20.138 18.062 20 17 20C13.686 20 11 21.343 11 23" stroke="white" stroke-width="2" stroke-miterlimit="10"/>
<path d="M44 17C45.6569 17 47 15.6569 47 14C47 12.3431 45.6569 11 44 11C42.3431 11 41 12.3431 41 14C41 15.6569 42.3431 17 44 17Z" stroke="white" stroke-width="2" stroke-miterlimit="10"/>
<path d="M56 17C57.6569 17 59 15.6569 59 14C59 12.3431 57.6569 11 56 11C54.3431 11 53 12.3431 53 14C53 15.6569 54.3431 17 56 17Z" stroke="white" stroke-width="2" stroke-miterlimit="10"/>
<path d="M60 28H39" stroke="white" stroke-width="2" stroke-miterlimit="10"/>
<path d="M41.0752 20.38C41.9402 20.138 42.9382 20 44.0002 20C47.3142 20 50.0002 21.343 50.0002 23V28" stroke="white" stroke-width="2" stroke-miterlimit="10"/>
<path d="M58.925 20.38C58.06 20.138 57.062 20 56 20C52.686 20 50 21.343 50 23" stroke="white" stroke-width="2" stroke-miterlimit="10"/>
<path d="M23.1133 12.033C23.4023 12.011 23.6993 12 24.0003 12C27.3143 12 30.0003 13.343 30.0003 15" stroke="white" stroke-width="2" stroke-miterlimit="10"/>
<path d="M36.887 12.033C36.598 12.011 36.301 12 36 12C32.686 12 30 13.343 30 15" stroke="white" stroke-width="2" stroke-miterlimit="10"/>
<path d="M30 32C33.3137 32 36 28.866 36 25C36 21.134 33.3137 18 30 18C26.6863 18 24 21.134 24 25C24 28.866 26.6863 32 30 32Z" stroke="white" stroke-width="2" stroke-miterlimit="10"/>
<path d="M23 50H17C15.895 50 15 50.895 15 52V58" stroke="white" stroke-width="2" stroke-miterlimit="10"/>
<path d="M37 50H43C44.105 50 45 50.895 45 52V58" stroke="white" stroke-width="2" stroke-miterlimit="10"/>
<path d="M37 58V42.549L45.174 44.885C45.437 44.96 45.714 45 46 45C46.615 45 47.186 44.815 47.662 44.498L53.662 40.498C54.469 39.96 55 39.042 55 38C55 36.343 53.657 35 52 35C51.385 35 50.814 35.185 50.338 35.502L45.491 38.733L37.135 36.346C36.331 36.117 35.498 36 34.662 36H25.338C24.502 36 23.67 36.117 22.866 36.346L14.51 38.733L9.663 35.502C9.186 35.185 8.615 35 8 35C6.343 35 5 36.343 5 38C5 39.042 5.531 39.96 6.338 40.498L12.338 44.498C12.814 44.815 13.385 45 14 45C14.286 45 14.563 44.96 14.826 44.885L23 42.549V58" stroke="white" stroke-width="2" stroke-miterlimit="10"/>
<circle cx="41.5" cy="46.5" r="11.6" fill="#86BB64" stroke="white" stroke-width="1.8"/>
<path d="M36.7018 43.608C36.7018 43.1693 36.6272 42.8753 36.4778 42.726C36.3378 42.5673 36.1465 42.488 35.9038 42.488C35.6612 42.488 35.4652 42.5627 35.3158 42.712C35.1758 42.852 35.1058 43.0993 35.1058 43.454V44.084H33.6498V43.552C33.6498 42.7587 33.8412 42.152 34.2238 41.732C34.6158 41.3027 35.1898 41.088 35.9458 41.088C36.7018 41.088 37.2712 41.3027 37.6538 41.732C38.0458 42.152 38.2418 42.7587 38.2418 43.552V43.804C38.2418 44.8493 37.8825 45.5213 37.1638 45.82C37.5558 45.988 37.8312 46.2493 37.9898 46.604C38.1578 46.9493 38.2418 47.374 38.2418 47.878V48.648C38.2418 49.4413 38.0458 50.0527 37.6538 50.482C37.2712 50.902 36.7018 51.112 35.9458 51.112C35.1898 51.112 34.6158 50.902 34.2238 50.482C33.8412 50.0527 33.6498 49.4413 33.6498 48.648V47.836H35.1058V48.746C35.1058 49.1007 35.1758 49.3527 35.3158 49.502C35.4652 49.642 35.6612 49.712 35.9038 49.712C36.1465 49.712 36.3378 49.6373 36.4778 49.488C36.6272 49.3387 36.7018 49.0447 36.7018 48.606V47.836C36.7018 47.3787 36.6225 47.0567 36.4638 46.87C36.3052 46.6833 36.0485 46.59 35.6938 46.59H35.1758V45.19H35.7778C36.0672 45.19 36.2912 45.1153 36.4498 44.966C36.6178 44.8167 36.7018 44.546 36.7018 44.154V43.608ZM40.6706 47.836V48.746C40.6706 49.1007 40.7406 49.348 40.8806 49.488C41.0299 49.628 41.2259 49.698 41.4686 49.698C41.7113 49.698 41.9026 49.628 42.0426 49.488C42.1919 49.348 42.2666 49.1007 42.2666 48.746V46.59C42.2666 46.2353 42.1919 45.988 42.0426 45.848C41.9026 45.6987 41.7113 45.624 41.4686 45.624C41.2259 45.624 41.0299 45.6987 40.8806 45.848C40.7406 45.988 40.6706 46.2353 40.6706 46.59V46.884H39.2146L39.4946 41.2H43.5546V42.6H40.8806L40.7546 44.938C41.0439 44.462 41.4919 44.224 42.0986 44.224C42.6679 44.224 43.0926 44.4153 43.3726 44.798C43.6619 45.1807 43.8066 45.736 43.8066 46.464V48.648C43.8066 49.4413 43.6106 50.0527 43.2186 50.482C42.8359 50.902 42.2666 51.112 41.5106 51.112C40.7546 51.112 40.1806 50.902 39.7886 50.482C39.4059 50.0527 39.2146 49.4413 39.2146 48.648V47.836H40.6706ZM46.2494 48.746C46.2494 49.1007 46.3194 49.3527 46.4594 49.502C46.6087 49.642 46.8047 49.712 47.0474 49.712C47.2901 49.712 47.4814 49.642 47.6214 49.502C47.7707 49.3527 47.8454 49.1007 47.8454 48.746V43.454C47.8454 43.0993 47.7707 42.852 47.6214 42.712C47.4814 42.5627 47.2901 42.488 47.0474 42.488C46.8047 42.488 46.6087 42.5627 46.4594 42.712C46.3194 42.852 46.2494 43.0993 46.2494 43.454V48.746ZM44.7094 43.552C44.7094 42.7587 44.9101 42.152 45.3114 41.732C45.7127 41.3027 46.2914 41.088 47.0474 41.088C47.8034 41.088 48.3821 41.3027 48.7834 41.732C49.1847 42.152 49.3854 42.7587 49.3854 43.552V48.648C49.3854 49.4413 49.1847 50.0527 48.7834 50.482C48.3821 50.902 47.8034 51.112 47.0474 51.112C46.2914 51.112 45.7127 50.902 45.3114 50.482C44.9101 50.0527 44.7094 49.4413 44.7094 48.648V43.552Z" fill="white"/>
</svg>
