<svg width="60" height="60" viewBox="0 0 60 60" fill="none" xmlns="http://www.w3.org/2000/svg">
<path d="M54 53H6C3.791 53 2 51.209 2 49V47H58V49C58 51.209 56.209 53 54 53Z" stroke="white" stroke-width="2" stroke-miterlimit="10"/>
<path d="M55 21V47" stroke="white" stroke-width="2" stroke-miterlimit="10"/>
<path d="M45.9961 8H51.0001C53.2091 8 55.0001 9.791 55.0001 12V15" stroke="white" stroke-width="2" stroke-miterlimit="10"/>
<path d="M5 47V12C5 9.791 6.791 8 9 8H23" stroke="white" stroke-width="2" stroke-miterlimit="10"/>
<path d="M53 50V53" stroke="white" stroke-width="2" stroke-miterlimit="10"/>
<path d="M49 50V53" stroke="white" stroke-width="2" stroke-miterlimit="10"/>
<path d="M45 50V53" stroke="white" stroke-width="2" stroke-miterlimit="10"/>
<path d="M11 57H25" stroke="white" stroke-width="2" stroke-miterlimit="10"/>
<path d="M27 57H29" stroke="white" stroke-width="2" stroke-miterlimit="10"/>
<path d="M23 8H46" stroke="white" stroke-width="2" stroke-miterlimit="10"/>
<path d="M10 11H8V13H10V11Z" fill="white"/>
<path d="M10 15H8V17H10V15Z" fill="white"/>
<path d="M10 19H8V21H10V19Z" fill="white"/>
<path d="M55 17V19" stroke="white" stroke-width="2" stroke-miterlimit="10"/>
<path d="M28.2407 32.458C28.2407 33.0153 28.3507 33.4113 28.5707 33.646C28.8053 33.866 29.1133 33.976 29.4947 33.976C29.876 33.976 30.1767 33.866 30.3967 33.646C30.6313 33.4113 30.7487 33.0153 30.7487 32.458V24.142C30.7487 23.5847 30.6313 23.196 30.3967 22.976C30.1767 22.7413 29.876 22.624 29.4947 22.624C29.1133 22.624 28.8053 22.7413 28.5707 22.976C28.3507 23.196 28.2407 23.5847 28.2407 24.142V32.458ZM25.8207 24.296C25.8207 23.0493 26.136 22.096 26.7667 21.436C27.3973 20.7613 28.3067 20.424 29.4947 20.424C30.6827 20.424 31.592 20.7613 32.2227 21.436C32.8533 22.096 33.1687 23.0493 33.1687 24.296V32.304C33.1687 33.5507 32.8533 34.5113 32.2227 35.186C31.592 35.846 30.6827 36.176 29.4947 36.176C28.3067 36.176 27.3973 35.846 26.7667 35.186C26.136 34.5113 25.8207 33.5507 25.8207 32.304V24.296Z" fill="white"/>
<path d="M15.4467 31.006L19.8467 20.6H22.4867V31.006H23.6307V33.206H22.4867V36H20.1107V33.206H15.4467V31.006ZM20.1107 31.006V25.22L17.6687 31.006H20.1107Z" fill="white"/>
<rect x="12" y="17" width="37" height="22" rx="1" stroke="white" stroke-width="2"/>
<mask id="mask0_31_246" style="mask-type:alpha" maskUnits="userSpaceOnUse" x="36" y="16" width="11" height="15">
<rect x="36" y="16" width="11" height="15" fill="#D9D9D9"/>
</mask>
<g mask="url(#mask0_31_246)">
<path d="M39.2407 26.458C39.2407 27.0153 39.3507 27.4113 39.5707 27.646C39.8053 27.866 40.1133 27.976 40.4947 27.976C40.876 27.976 41.1767 27.866 41.3967 27.646C41.6313 27.4113 41.7487 27.0153 41.7487 26.458V18.142C41.7487 17.5847 41.6313 17.196 41.3967 16.976C41.1767 16.7413 40.876 16.624 40.4947 16.624C40.1133 16.624 39.8053 16.7413 39.5707 16.976C39.3507 17.196 39.2407 17.5847 39.2407 18.142V26.458ZM36.8207 18.296C36.8207 17.0493 37.136 16.096 37.7667 15.436C38.3973 14.7613 39.3067 14.424 40.4947 14.424C41.6827 14.424 42.592 14.7613 43.2227 15.436C43.8533 16.096 44.1687 17.0493 44.1687 18.296V26.304C44.1687 27.5507 43.8533 28.5113 43.2227 29.186C42.592 29.846 41.6827 30.176 40.4947 30.176C39.3067 30.176 38.3973 29.846 37.7667 29.186C37.136 28.5113 36.8207 27.5507 36.8207 26.304V18.296Z" fill="white"/>
</g>
<mask id="mask1_31_246" style="mask-type:alpha" maskUnits="userSpaceOnUse" x="36" y="32" width="10" height="7">
<rect x="36" y="32" width="10" height="7" fill="#D9D9D9"/>
</mask>
<g mask="url(#mask1_31_246)">
<path d="M38.5147 34.536C38.984 34.536 39.3653 34.4847 39.6587 34.382C39.9667 34.2793 40.216 34.14 40.4067 33.964C40.5973 33.788 40.7513 33.5827 40.8687 33.348C40.986 33.1133 41.0887 32.864 41.1767 32.6H42.8047V48H40.3847V36.252H38.5147V34.536Z" fill="white"/>
</g>
</svg>
