<svg width="60" height="60" viewBox="0 0 60 60" fill="none" xmlns="http://www.w3.org/2000/svg">
<path d="M54 53H6C3.791 53 2 51.209 2 49V47H58V49C58 51.209 56.209 53 54 53Z" stroke="white" stroke-width="2" stroke-miterlimit="10"/>
<path d="M55 21V47" stroke="white" stroke-width="2" stroke-miterlimit="10"/>
<path d="M45.9961 8H51.0001C53.2091 8 55.0001 9.791 55.0001 12V15" stroke="white" stroke-width="2" stroke-miterlimit="10"/>
<path d="M5 47V12C5 9.791 6.791 8 9 8H23" stroke="white" stroke-width="2" stroke-miterlimit="10"/>
<path d="M53 50V53" stroke="white" stroke-width="2" stroke-miterlimit="10"/>
<path d="M49 50V53" stroke="white" stroke-width="2" stroke-miterlimit="10"/>
<path d="M45 50V53" stroke="white" stroke-width="2" stroke-miterlimit="10"/>
<path d="M11 57H25" stroke="white" stroke-width="2" stroke-miterlimit="10"/>
<path d="M27 57H29" stroke="white" stroke-width="2" stroke-miterlimit="10"/>
<path d="M23 8H46" stroke="white" stroke-width="2" stroke-miterlimit="10"/>
<path d="M10 11H8V13H10V11Z" fill="white"/>
<path d="M10 15H8V17H10V15Z" fill="white"/>
<path d="M10 19H8V21H10V19Z" fill="white"/>
<path d="M55 17V19" stroke="white" stroke-width="2" stroke-miterlimit="10"/>
<path d="M23.1967 31.028V32.458C23.1967 33.0153 23.3067 33.404 23.5267 33.624C23.7613 33.844 24.0693 33.954 24.4507 33.954C24.832 33.954 25.1327 33.844 25.3527 33.624C25.5873 33.404 25.7047 33.0153 25.7047 32.458V29.07C25.7047 28.5127 25.5873 28.124 25.3527 27.904C25.1327 27.6693 24.832 27.552 24.4507 27.552C24.0693 27.552 23.7613 27.6693 23.5267 27.904C23.3067 28.124 23.1967 28.5127 23.1967 29.07V29.532H20.9087L21.3487 20.6H27.7287V22.8H23.5267L23.3287 26.474C23.7833 25.726 24.4873 25.352 25.4407 25.352C26.3353 25.352 27.0027 25.6527 27.4427 26.254C27.8973 26.8553 28.1247 27.728 28.1247 28.872V32.304C28.1247 33.5507 27.8167 34.5113 27.2007 35.186C26.5993 35.846 25.7047 36.176 24.5167 36.176C23.3287 36.176 22.4267 35.846 21.8107 35.186C21.2093 34.5113 20.9087 33.5507 20.9087 32.304V31.028H23.1967Z" fill="white"/>
<rect x="12" y="17" width="37" height="22" rx="1" stroke="white" stroke-width="2"/>
<mask id="mask0_31_552" style="mask-type:alpha" maskUnits="userSpaceOnUse" x="31" y="16" width="11" height="15">
<rect x="31" y="16" width="11" height="15" fill="#D9D9D9"/>
</mask>
<g mask="url(#mask0_31_552)">
<path d="M34.2407 26.458C34.2407 27.0153 34.3507 27.4113 34.5707 27.646C34.8053 27.866 35.1133 27.976 35.4947 27.976C35.876 27.976 36.1767 27.866 36.3967 27.646C36.6313 27.4113 36.7487 27.0153 36.7487 26.458V18.142C36.7487 17.5847 36.6313 17.196 36.3967 16.976C36.1767 16.7413 35.876 16.624 35.4947 16.624C35.1133 16.624 34.8053 16.7413 34.5707 16.976C34.3507 17.196 34.2407 17.5847 34.2407 18.142V26.458ZM31.8207 18.296C31.8207 17.0493 32.136 16.096 32.7667 15.436C33.3973 14.7613 34.3067 14.424 35.4947 14.424C36.6827 14.424 37.592 14.7613 38.2227 15.436C38.8533 16.096 39.1687 17.0493 39.1687 18.296V26.304C39.1687 27.5507 38.8533 28.5113 38.2227 29.186C37.592 29.846 36.6827 30.176 35.4947 30.176C34.3067 30.176 33.3973 29.846 32.7667 29.186C32.136 28.5113 31.8207 27.5507 31.8207 26.304V18.296Z" fill="white"/>
</g>
<mask id="mask1_31_552" style="mask-type:alpha" maskUnits="userSpaceOnUse" x="31" y="32" width="10" height="7">
<rect x="31" y="32" width="10" height="7" fill="#D9D9D9"/>
</mask>
<g mask="url(#mask1_31_552)">
<path d="M33.5147 34.536C33.984 34.536 34.3653 34.4847 34.6587 34.382C34.9667 34.2793 35.216 34.14 35.4067 33.964C35.5973 33.788 35.7513 33.5827 35.8687 33.348C35.986 33.1133 36.0887 32.864 36.1767 32.6H37.8047V48H35.3847V36.252H33.5147V34.536Z" fill="white"/>
</g>
</svg>
