<svg width="60" height="60" viewBox="0 0 60 60" fill="none" xmlns="http://www.w3.org/2000/svg">
<g clip-path="url(#clip0_27_1620)">
<path d="M37 35H35V37H37V35Z" fill="white"/>
<path d="M27.683 25.5664C26.088 26.4024 25 28.0734 25 29.9984C25 32.7594 27.239 34.9984 30 34.9984C31.934 34.9984 33.612 33.8994 34.444 32.2924" stroke="white" stroke-width="2" stroke-miterlimit="10"/>
<path d="M13 26L10 23L23 10L29 16" stroke="white" stroke-width="2" stroke-miterlimit="10"/>
<path d="M33 46L18.4541 31.4531" stroke="white" stroke-width="2" stroke-miterlimit="10"/>
<path d="M15.3916 54.609L19.6416 50.359C20.5256 49.475 21.6646 48.889 22.8976 48.683L25.1046 48.315C26.3386 48.109 27.4766 47.524 28.3606 46.639L31.0006 44" stroke="white" stroke-width="2" stroke-miterlimit="10"/>
<path d="M17.5161 38.619C18.0931 37.946 19.0001 36.391 19.0001 34C19.0001 33.21 18.6481 31.772 18.2071 30.872C18.0651 30.579 18.0001 30.258 18.0001 29.933C18.0001 29.336 18.2371 28.763 18.6601 28.34L22.1721 24.828C22.7021 24.298 23.0001 23.578 23.0001 22.828C23.0001 21.266 21.7341 20 20.1721 20C19.4221 20 18.7021 20.298 18.1721 20.828L12.5571 26.443C10.9201 28.08 10.0001 30.301 10.0001 32.616V34.757C10.0001 35.553 9.68413 36.316 9.12113 36.878L3.45312 42.546" stroke="white" stroke-width="2" stroke-miterlimit="10"/>
<path d="M45 27C45 27.64 44.746 28.254 44.293 28.706L41.707 31.292C41.254 31.745 40.64 32 40 32C39.36 32 38.746 31.746 38.294 31.293L27.707 20.707C27.254 20.254 27 19.64 27 19C27 18.36 27.255 17.745 27.708 17.293L30.298 14.706C30.75 14.254 31.363 14 32.004 14C32.644 14 33.258 14.254 33.711 14.707L44.294 25.293C44.746 25.745 45 26.36 45 27V27Z" stroke="white" stroke-width="2" stroke-miterlimit="10"/>
<path d="M47.3916 12.6093L51.5946 8.40625" stroke="white" stroke-width="2" stroke-miterlimit="10"/>
<path d="M36.6865 6.97L38.2195 1.25" stroke="white" stroke-width="2" stroke-miterlimit="10"/>
<path d="M6.8284 24.2986L1.1084 22.7656" stroke="white" stroke-width="2" stroke-miterlimit="10"/>
<path d="M23.3142 6.97L21.7812 1.25" stroke="white" stroke-width="2" stroke-miterlimit="10"/>
<path d="M53.1729 24.2986L58.8928 22.7656" stroke="white" stroke-width="2" stroke-miterlimit="10"/>
<path d="M12.6093 12.6093L8.40625 8.40625" stroke="white" stroke-width="2" stroke-miterlimit="10"/>
<path d="M53.1729 35.7031L58.8928 37.2361" stroke="white" stroke-width="2" stroke-miterlimit="10"/>
<circle cx="44.5" cy="47.5" r="11.6" stroke="white" stroke-width="1.8"/>
<path d="M38.1198 48.836V49.746C38.1198 50.1007 38.1898 50.348 38.3298 50.488C38.4792 50.628 38.6752 50.698 38.9178 50.698C39.1605 50.698 39.3518 50.628 39.4918 50.488C39.6412 50.348 39.7158 50.1007 39.7158 49.746V47.59C39.7158 47.2353 39.6412 46.988 39.4918 46.848C39.3518 46.6987 39.1605 46.624 38.9178 46.624C38.6752 46.624 38.4792 46.6987 38.3298 46.848C38.1898 46.988 38.1198 47.2353 38.1198 47.59V47.884H36.6638L36.9438 42.2H41.0038V43.6H38.3298L38.2038 45.938C38.4932 45.462 38.9412 45.224 39.5478 45.224C40.1172 45.224 40.5418 45.4153 40.8218 45.798C41.1112 46.1807 41.2558 46.736 41.2558 47.464V49.648C41.2558 50.4413 41.0598 51.0527 40.6678 51.482C40.2852 51.902 39.7158 52.112 38.9598 52.112C38.2038 52.112 37.6298 51.902 37.2378 51.482C36.8552 51.0527 36.6638 50.4413 36.6638 49.648V48.836H38.1198ZM43.6986 49.746C43.6986 50.1007 43.7686 50.3527 43.9086 50.502C44.0579 50.642 44.2539 50.712 44.4966 50.712C44.7393 50.712 44.9306 50.642 45.0706 50.502C45.2199 50.3527 45.2946 50.1007 45.2946 49.746V44.454C45.2946 44.0993 45.2199 43.852 45.0706 43.712C44.9306 43.5627 44.7393 43.488 44.4966 43.488C44.2539 43.488 44.0579 43.5627 43.9086 43.712C43.7686 43.852 43.6986 44.0993 43.6986 44.454V49.746ZM42.1586 44.552C42.1586 43.7587 42.3593 43.152 42.7606 42.732C43.1619 42.3027 43.7406 42.088 44.4966 42.088C45.2526 42.088 45.8313 42.3027 46.2326 42.732C46.6339 43.152 46.8346 43.7587 46.8346 44.552V49.648C46.8346 50.4413 46.6339 51.0527 46.2326 51.482C45.8313 51.902 45.2526 52.112 44.4966 52.112C43.7406 52.112 43.1619 51.902 42.7606 51.482C42.3593 51.0527 42.1586 50.4413 42.1586 49.648V44.552ZM49.2494 49.746C49.2494 50.1007 49.3194 50.3527 49.4594 50.502C49.6087 50.642 49.8047 50.712 50.0474 50.712C50.2901 50.712 50.4814 50.642 50.6214 50.502C50.7707 50.3527 50.8454 50.1007 50.8454 49.746V44.454C50.8454 44.0993 50.7707 43.852 50.6214 43.712C50.4814 43.5627 50.2901 43.488 50.0474 43.488C49.8047 43.488 49.6087 43.5627 49.4594 43.712C49.3194 43.852 49.2494 44.0993 49.2494 44.454V49.746ZM47.7094 44.552C47.7094 43.7587 47.9101 43.152 48.3114 42.732C48.7127 42.3027 49.2914 42.088 50.0474 42.088C50.8034 42.088 51.3821 42.3027 51.7834 42.732C52.1847 43.152 52.3854 43.7587 52.3854 44.552V49.648C52.3854 50.4413 52.1847 51.0527 51.7834 51.482C51.3821 51.902 50.8034 52.112 50.0474 52.112C49.2914 52.112 48.7127 51.902 48.3114 51.482C47.9101 51.0527 47.7094 50.4413 47.7094 49.648V44.552Z" fill="white"/>
</g>
<defs>
<clipPath id="clip0_27_1620">
<rect width="60" height="60" fill="white"/>
</clipPath>
</defs>
</svg>
