<svg width="60" height="60" viewBox="0 0 60 60" fill="none" xmlns="http://www.w3.org/2000/svg">
<circle cx="39.9559" cy="20.9559" r="19.9559" fill="white" fill-opacity="0.15"/>
<circle cx="9.67647" cy="50.3249" r="8.67647" fill="white" fill-opacity="0.15"/>
<path d="M29 30C32.866 30 36 26.4183 36 22C36 17.5817 32.866 14 29 14C25.134 14 22 17.5817 22 22C22 26.4183 25.134 30 29 30Z" stroke="white" stroke-width="2" stroke-miterlimit="10"/>
<path d="M19 43V39C19 36.239 21.239 34 24 34H34C36.761 34 39 36.239 39 39V43" stroke="white" stroke-width="2" stroke-miterlimit="10"/>
<path d="M55 52H53V54H55V52Z" fill="white"/>
<path d="M58 48H56V50H58V48Z" fill="white"/>
<path d="M51 55H49V57H51V55Z" fill="white"/>
<path d="M37.727 11.3308C35.089 10.0024 32.129 9.25781 29 9.25781C17.954 9.25781 9 18.5434 9 29.9986C9 41.4537 17.954 50.7393 29 50.7393C37.184 50.7393 44.219 45.6464 47.315 38.3446L44.611 37.1759C44.252 37.0193 44 36.6501 44 36.2208C44 35.8879 44.152 35.5913 44.387 35.4015L53.382 28.1464C53.553 28.0074 53.767 27.9245 54 27.9245C54.468 27.9245 54.862 28.2584 54.97 28.7095L57.97 41.154C57.99 41.2338 58 41.3188 58 41.406C58 41.9784 57.552 42.443 57 42.443C56.862 42.443 56.73 42.414 56.611 42.3611L53.78 41.1374C49.626 51.0597 40.095 57.9986 29 57.9986C14.088 57.9986 2 45.4628 2 29.9986C2 23.0151 4.465 16.6291 8.542 11.7249" stroke="white" stroke-width="2" stroke-miterlimit="10"/>
<path d="M41.8105 14.0718C41.2995 13.629 40.7665 13.2121 40.2145 12.8242" stroke="white" stroke-width="2" stroke-miterlimit="10"/>
<path d="M45.6045 18.4368C45.2155 17.8374 44.7965 17.2598 44.3515 16.707" stroke="white" stroke-width="2" stroke-miterlimit="10"/>
<path d="M49.6572 11.969C44.7052 5.87333 37.2882 2 29.0002 2C22.2892 2 16.1512 4.53867 11.4282 8.74074" stroke="white" stroke-width="2" stroke-miterlimit="10"/>
<path d="M52.5781 16.3483C52.2621 15.7624 51.9261 15.1889 51.5711 14.6289" stroke="white" stroke-width="2" stroke-miterlimit="10"/>
<path d="M54.4111 20.5128C54.2061 19.9227 53.9821 19.3409 53.7411 18.7695" stroke="white" stroke-width="2" stroke-miterlimit="10"/>
</svg>
