<svg width="55" height="60" viewBox="0 0 55 60" fill="none" xmlns="http://www.w3.org/2000/svg">
<path d="M27.5892 39.6648C26.5092 39.6648 25.6825 39.3582 25.1092 38.7448C24.5358 38.1315 24.2492 37.2648 24.2492 36.1448V28.9048C24.2492 26.4782 25.3692 25.2648 27.6092 25.2648C28.6758 25.2648 29.4892 25.5715 30.0492 26.1848C30.6092 26.7848 30.8892 27.6515 30.8892 28.7848V29.0448H28.8092V28.6448C28.8092 27.7248 28.4292 27.2648 27.6692 27.2648C27.2558 27.2648 26.9492 27.3915 26.7492 27.6448C26.5492 27.8982 26.4492 28.3448 26.4492 28.9848V31.6648H26.4892C26.8758 30.8515 27.5425 30.4448 28.4892 30.4448C29.2892 30.4448 29.8958 30.7182 30.3092 31.2648C30.7225 31.8115 30.9292 32.6048 30.9292 33.6448V36.1448C30.9292 37.2648 30.6425 38.1315 30.0692 38.7448C29.4958 39.3582 28.6692 39.6648 27.5892 39.6648ZM27.5892 37.6648C28.3492 37.6648 28.7292 37.2115 28.7292 36.3048V33.8248C28.7292 32.9048 28.3492 32.4448 27.5892 32.4448C26.8292 32.4448 26.4492 32.9048 26.4492 33.8248V36.3048C26.4492 37.2115 26.8292 37.6648 27.5892 37.6648Z" fill="white"/>
<path d="M26.5195 16.843L19.0866 22.3986L23.3475 16.843L15.8672 11.8651C19.4653 9.41178 23.1423 8.53177 24.5311 8.39844C27.7504 10.8518 30.4175 9.42067 31.3485 8.39844L35.4674 9.37623L35.0413 17.3319L26.5195 16.843Z" stroke="white" stroke-width="1.4" stroke-linejoin="round"/>
<circle cx="28.253" cy="3.96785" r="3.26785" stroke="white" stroke-width="1.4"/>
<path d="M5.44238 33.2489L12.7017 29.8672L16.0834 37.1716L24.47 40.4631L17.4812 39.6966L16.7147 48.4439C14.9832 47.6143 11.334 44.1905 9.72585 42.5823C10.8982 39.0654 7.38122 37.1716 6.43434 37.1716L5.44238 33.2489Z" stroke="white" stroke-width="1.4" stroke-linejoin="round"/>
<circle cx="3.96785" cy="42.6124" r="3.26785" stroke="white" stroke-width="1.4"/>
<path d="M19.6006 50.453L20.0966 42.4722L28.6184 43.0133L35.6072 37.332L31.5943 43.2838L38.538 48.1534C35.6884 50.3898 31.7296 51.3397 30.1064 51.5351C27.5453 49.2626 24.7708 50.5882 23.7037 51.5351L19.6006 50.453Z" stroke="white" stroke-width="1.4" stroke-linejoin="round"/>
<circle cx="26.9952" cy="56.0303" r="3.26785" stroke="white" stroke-width="1.4"/>
<path d="M39.3587 35.6333L37.6002 27.0664L40.7565 33.4691L48.602 29.7267C49.1791 34.0913 47.9106 37.3467 47.2042 38.4289C43.9578 39.8357 43.6873 42.7424 43.9578 44.0199L41.2074 47.1762L34.5342 42.3967L39.3587 35.6333Z" stroke="white" stroke-width="1.4" stroke-linejoin="round"/>
<circle cx="49.7022" cy="44.1007" r="3.26785" stroke="white" stroke-width="1.4"/>
<circle cx="50.6348" cy="17.0343" r="3.26785" stroke="white" stroke-width="1.4"/>
<path d="M38.2989 22.1559L29.8672 19.2251L37.1716 19.6309L37.8029 11.1992C43.5743 14.2653 44.6113 16.655 44.8368 16.8354C44.4761 20.7671 46.9109 22.0206 48.1734 22.1559L49.1653 26.3041L41.8158 29.7759L38.2989 22.1559Z" stroke="white" stroke-width="1.4" stroke-linejoin="round"/>
<circle cx="4.90144" cy="16.1436" r="3.26785" stroke="white" stroke-width="1.4"/>
<path d="M20.1733 17.6183L13.5452 13.1094L10.6144 16.0853C11.3358 19.9088 8.69058 21.3757 7.27779 21.6312C5.43815 24.8416 5.78985 28.8605 6.19565 30.4687L13.8157 26.6361L17.1072 33.5348L15.3938 24.1111L20.1733 17.6183Z" stroke="white" stroke-width="1.4" stroke-linejoin="round"/>
</svg>
