<svg width="59" height="65" viewBox="0 0 59 65" fill="none" xmlns="http://www.w3.org/2000/svg">
<ellipse cx="19.5708" cy="41.356" rx="19.5717" ry="20.644" transform="rotate(-180 19.5708 41.356)" fill="white" fill-opacity="0.15"/>
<path d="M29.5366 24.446C27.0946 24.446 25.9946 25.964 25.9946 28.406V36.26C25.9946 38.614 27.1606 40.154 29.5366 40.154C31.8906 40.154 33.0566 38.614 33.0566 36.26V33.928C33.0566 31.706 32.1766 30.276 30.1966 30.276C28.9646 30.276 28.1286 30.87 27.7106 31.926V28.472C27.7106 26.822 28.2826 25.986 29.5806 25.986C30.8346 25.986 31.4066 26.8 31.4066 28.186V28.582H33.0126V28.296C33.0126 25.942 31.9126 24.446 29.5366 24.446ZM29.5366 31.838C30.7686 31.838 31.3626 32.674 31.3626 34.06V36.37C31.3626 37.756 30.7686 38.592 29.5366 38.592C28.2826 38.592 27.7106 37.756 27.7106 36.37V34.06C27.7106 32.674 28.2826 31.838 29.5366 31.838Z" fill="white"/>
<ellipse cx="49.2679" cy="10.9775" rx="8.50945" ry="8.97566" transform="rotate(-180 49.2679 10.9775)" fill="white" fill-opacity="0.15"/>
<path d="M28.413 18.0476L20.4493 24L25.0145 18.0476L17 12.7143C20.8551 10.0857 24.7947 9.14286 26.2826 9C29.7319 11.6286 32.5894 10.0952 33.587 9L38 10.0476L37.5435 18.5714L28.413 18.0476Z" stroke="white" stroke-width="1.4" stroke-linejoin="round"/>
<circle cx="30.2707" cy="4.25121" r="3.55121" stroke="white" stroke-width="1.4"/>
<path d="M5.83105 35.6232L13.6088 32L17.232 39.8261L26.2175 43.3527L18.7296 42.5314L17.9083 51.9034C16.0533 51.0145 12.1435 47.3462 10.4204 45.6232C11.6765 41.8551 7.90835 39.8261 6.89386 39.8261L5.83105 35.6232Z" stroke="white" stroke-width="1.4" stroke-linejoin="round"/>
<circle cx="4.25121" cy="45.6575" r="3.55121" stroke="white" stroke-width="1.4"/>
<path d="M21 54.058L21.5314 45.5072L30.6618 46.087L38.1498 40L33.8502 46.3768L41.2899 51.5942C38.2367 53.9903 33.9952 55.0081 32.256 55.2174C29.5121 52.7826 26.5395 54.2029 25.3961 55.2174L21 54.058Z" stroke="white" stroke-width="1.4" stroke-linejoin="round"/>
<circle cx="28.9231" cy="60.0325" r="3.55121" stroke="white" stroke-width="1.4"/>
<path d="M42.1691 38.1787L40.285 29L43.6667 35.8599L52.0725 31.8502C52.6908 36.5266 51.3317 40.0145 50.5749 41.1739C47.0966 42.6812 46.8068 45.7955 47.0966 47.1643L44.1498 50.5459L37 45.4251L42.1691 38.1787Z" stroke="white" stroke-width="1.4" stroke-linejoin="round"/>
<circle cx="53.2512" cy="47.2512" r="3.55121" stroke="white" stroke-width="1.4"/>
<circle cx="54.2512" cy="18.2512" r="3.55121" stroke="white" stroke-width="1.4"/>
<path d="M41.0338 23.7391L32 20.599L39.8261 21.0338L40.5024 12C46.686 15.285 47.7971 17.8454 48.0386 18.0386C47.6522 22.2512 50.2609 23.5942 51.6135 23.7391L52.6763 28.1836L44.8019 31.9034L41.0338 23.7391Z" stroke="white" stroke-width="1.4" stroke-linejoin="round"/>
<circle cx="5.25121" cy="17.2942" r="3.55121" stroke="white" stroke-width="1.4"/>
<path d="M21.6136 18.8739L14.5122 14.043L11.3721 17.2314C12.145 21.328 9.31088 22.8997 7.79719 23.1734C5.82618 26.613 6.20299 30.919 6.63777 32.642L14.802 28.5357L18.3286 35.927L16.4928 25.8304L21.6136 18.8739Z" stroke="white" stroke-width="1.4" stroke-linejoin="round"/>
</svg>
