<svg width="60" height="60" viewBox="0 0 60 60" fill="none" xmlns="http://www.w3.org/2000/svg">
<path d="M14.0768 0.999931L47.3077 0.999931C47.6898 0.999931 48 1.31009 48 1.69224L48 18.3077C48 18.6898 47.6898 19 47.3077 19L14.0768 19C13.6946 19 13.3845 18.6898 13.3845 18.3077L13.3845 1.69224C13.3845 1.31009 13.6946 0.999931 14.0768 0.999931Z" stroke="white" stroke-width="1.8" stroke-miterlimit="10"/>
<path d="M30.6927 7.23105C29.1633 7.23105 27.9234 8.47088 27.9234 10.0003C27.9234 11.5297 29.1633 12.7695 30.6927 12.7695C32.2221 12.7695 33.4619 11.5297 33.4619 10.0003C33.4619 8.47088 32.2221 7.23105 30.6927 7.23105Z" stroke="white" stroke-width="1.8" stroke-miterlimit="10"/>
<path d="M36.9229 4.4621L18.9228 4.4621C18.9228 5.99141 17.6829 7.23134 16.1535 7.23134L16.1535 12.7698C17.6829 12.7698 18.9228 14.0097 18.9228 15.5391L22.3843 15.5391" stroke="white" stroke-width="1.8" stroke-miterlimit="10"/>
<path d="M25.1535 15.5391L42.4612 15.5391C42.4612 14.0097 43.7012 12.7698 45.2305 12.7698V7.23134C43.7012 7.23134 42.4612 5.99141 42.4612 4.4621L39.692 4.4621" stroke="white" stroke-width="1.8" stroke-miterlimit="10"/>
<path d="M29.1098 33.8008H31.0898V33.0008H29.1098V33.8008Z" fill="white"/>
<path d="M29.1098 31.4023H31.0898V30.6023H29.1098V31.4023Z" fill="white"/>
<path d="M29.1098 29H31.0898V28.2H29.1098V29Z" fill="white"/>
<path d="M29.8896 55.4471C31.8517 53.485 30.7797 49.2317 27.4952 45.9471C24.2106 42.6625 19.9573 41.5905 17.9952 43.5527C16.033 45.5148 17.105 49.7681 20.3896 53.0527C23.6741 56.3372 27.9274 57.4093 29.8896 55.4471Z" stroke="white" stroke-width="1.5" stroke-miterlimit="10"/>
<path d="M17.9949 43.5508L15.5203 46.0254C13.5585 47.9878 14.6305 52.2411 17.9148 55.5259C21.1991 58.8107 25.4529 59.8827 27.4153 57.9204L29.8899 55.4457" stroke="white" stroke-width="1.5" stroke-miterlimit="10"/>
<path d="M6.125 51.9727V54.9422C6.125 56.8556 9.22717 58.4066 13.0539 58.4066C14.7045 58.4066 16.2199 58.1181 17.4102 57.6365" stroke="white" stroke-width="1.5" stroke-miterlimit="10"/>
<path d="M19.2021 44.7578L20.6354 46.1911" stroke="white" stroke-width="1.5" stroke-miterlimit="10"/>
<path d="M27.249 52.8086L28.6902 54.2498" stroke="white" stroke-width="1.5" stroke-miterlimit="10"/>
<path d="M15.4493 55.2278C14.7025 55.3654 13.8958 55.4406 13.0539 55.4406C9.22717 55.4406 6.125 53.8895 6.125 51.9762C6.125 50.0628 9.22717 48.5117 13.0539 48.5117" stroke="white" stroke-width="1.5" stroke-miterlimit="10"/>
<path d="M24.016 52.7179C24.4239 53.1722 25.0153 53.4578 25.674 53.4578C26.9039 53.4578 27.9012 52.4605 27.9012 51.2307C27.9012 50.0008 26.9039 49.0035 25.674 49.0035C25.4008 49.0035 25.139 49.0525 24.897 49.1426L22.9866 49.8538C22.7446 49.9444 22.4828 49.9934 22.2096 49.9934C20.9797 49.9934 19.9824 48.9961 19.9824 47.7662C19.9824 46.5363 20.9797 45.5391 22.2096 45.5391C22.8683 45.5391 23.4597 45.8246 23.8676 46.279" stroke="white" stroke-width="1.5" stroke-miterlimit="10"/>
<path d="M38 52C40.7614 52 43 50.6569 43 49C43 47.3431 40.7614 46 38 46C35.2386 46 33 47.3431 33 49C33 50.6569 35.2386 52 38 52Z" stroke="white" stroke-width="1.6" stroke-miterlimit="10"/>
<path d="M42.705 48.7786C43.5779 49.51 45.1729 50 47 50C49.7614 50 52 48.8807 52 47.5C52 46.1193 49.7614 45 47 45C44.2386 45 42 46.1193 42 47.5C42 47.55 42 47.5957 42.0057 47.645" stroke="white" stroke-width="1.6" stroke-miterlimit="10"/>
<path d="M33 53C33 54.1046 35.2386 55 38 55C40.7614 55 43 54.1046 43 53" stroke="white" stroke-width="1.6" stroke-miterlimit="10"/>
<path d="M43 49V56.4074C43 57.8393 40.7614 59 38 59C35.2386 59 33 57.8393 33 56.4074V49" stroke="white" stroke-width="1.6" stroke-miterlimit="10"/>
<path d="M43 56.7422C43.8475 57.4956 45.3888 58 47.1531 58C49.83 58 52 56.8393 52 55.4074V48" stroke="white" stroke-width="1.6" stroke-miterlimit="10"/>
<path d="M43 52.5429C43.8474 53.4154 45.3885 54 47.1538 54C49.8303 54 52 52.6569 52 51" stroke="white" stroke-width="1.6" stroke-miterlimit="10"/>
<path d="M33.5 21V32.4H36.0081C36.5555 32.4 37 32.7804 37 33.2496C37 33.4746 36.8943 33.69 36.7088 33.8496L31.1949 38.5758C30.8778 38.8476 30.448 39 30 39C29.5513 39 29.1222 38.8476 28.8051 38.5758L23.2912 33.8496C23.105 33.69 22.9993 33.4728 23 33.2472C23.0014 32.7792 23.4459 32.4 23.9919 32.4H26.5V21" stroke="white" stroke-width="1.8" stroke-miterlimit="10"/>
</svg>
