<svg width="1021" height="1028" viewBox="0 0 1021 1028" fill="none" xmlns="http://www.w3.org/2000/svg">
<g clip-path="url(#clip0_505_16848)">
<g opacity="0.07">
<path d="M303.299 611.301C282.611 630.357 256.446 642.036 227.24 642.036C219.33 642.036 211.42 641.421 203.51 639.577C173.695 633.43 148.139 615.604 131.71 589.786C115.281 563.969 109.197 533.234 115.89 503.114C126.842 450.25 173.695 411.523 227.24 411.523C235.15 411.523 243.06 412.138 250.97 413.982C305.732 425.662 342.849 475.452 341.024 530.161C393.352 552.29 441.421 581.181 486.448 613.145C489.49 603.31 493.75 594.089 495.575 583.639C526.607 433.653 432.294 286.739 283.828 254.775C135.969 224.04 -10.0633 319.933 -41.0953 469.92C-72.1273 619.907 22.1856 766.82 170.652 798.784C262.531 818.455 353.193 788.949 416.474 728.709C383.617 684.45 344.675 645.109 303.299 611.301Z" fill="#619441"/>
<path d="M960.446 939.55C1035.72 939.55 1096.74 877.902 1096.74 801.857C1096.74 725.811 1035.72 664.164 960.446 664.164C885.171 664.164 824.148 725.811 824.148 801.857C824.148 877.902 885.171 939.55 960.446 939.55Z" fill="#85BB64"/>
<path d="M564.331 713.956C571.633 678.304 583.802 644.495 600.231 613.145C571.024 468.691 591.712 361.118 622.744 288.584C631.871 292.887 642.215 294.731 651.342 294.731C678.723 294.731 705.496 278.749 717.057 251.087C732.877 214.205 716.448 171.791 679.94 155.194C670.813 150.891 660.469 149.047 651.342 149.047C623.961 149.047 597.188 165.029 585.627 192.691C572.849 222.811 581.977 256.005 605.707 276.29C541.818 367.265 509.569 508.032 529.04 652.486C530.865 664.166 533.299 675.23 535.733 686.909C469.41 627.284 391.525 579.337 307.557 546.758C307.557 546.143 308.165 544.914 308.774 544.299C318.509 498.811 289.303 454.553 244.884 444.718C238.8 443.488 232.715 442.874 227.239 442.874C188.905 442.874 154.222 469.92 146.312 509.261C136.577 554.749 165.783 599.007 210.201 608.843C216.286 610.072 221.762 610.687 227.239 610.687C255.837 610.687 282.001 595.319 297.213 571.346C431.076 671.542 539.992 823.988 539.384 985.654C539.384 1115.97 487.664 1234.61 402.478 1326.81C450.547 1320.67 501.05 1316.98 552.77 1316.98C602.056 1316.98 650.125 1320.05 695.76 1326.2C720.708 1269.65 735.919 1209.4 740.787 1146.09C607.532 1058.8 527.214 893.449 564.331 713.956Z" fill="#85BB64"/>
<path d="M1020.08 985.654C1001.82 991.801 981.743 994.875 961.055 994.875C847.271 994.875 756.609 894.679 771.213 777.271C780.948 696.745 843.621 628.513 922.113 612.531C956.187 605.77 989.045 608.228 1018.86 617.449C1080.92 637.734 1148.46 624.211 1201.4 586.714L1270.77 538.153C1180.71 429.351 1035.9 369.11 878.912 399.845C758.435 423.818 655.603 504.344 600.233 612.531C583.804 643.881 571.635 677.689 564.333 713.342C527.216 893.449 606.926 1058.8 741.398 1146.09C804.679 1187.28 880.129 1211.25 961.055 1211.25C1085.79 1211.25 1197.14 1154.7 1271.37 1064.95L1208.09 1020.69C1153.33 982.581 1083.36 964.754 1020.08 985.654Z" fill="#619441"/>
<path d="M740.179 18.7296C629.438 -30.4464 499.833 20.5737 451.156 132.449C408.563 230.186 442.029 342.677 524.781 402.302C536.95 358.659 552.77 316.859 574.067 281.821C552.77 254.16 546.077 215.434 561.289 181.01C577.109 144.743 612.4 121.384 651.951 121.384C665.337 121.384 678.724 124.458 691.501 129.99C741.396 152.119 763.909 211.131 742.004 261.536C726.184 297.803 690.893 321.162 651.342 321.162C645.866 321.162 640.998 320.547 635.522 319.318C623.961 351.897 614.834 391.853 611.183 439.184C709.147 457.625 810.153 406.605 852.138 310.712C901.424 198.837 850.921 67.9056 740.179 18.7296Z" fill="#619441"/>
</g>
</g>
<defs>
<clipPath id="clip0_505_16848">
<rect width="1021" height="1028" fill="white"/>
</clipPath>
</defs>
</svg>
