<?xml version="1.0" encoding="utf-8"?><svg viewBox="0 0 42 43" xmlns="http://www.w3.org/2000/svg" xmlns:xlink="http://www.w3.org/1999/xlink"><style>:root>svg{display:none}:root>svg:target{display:block}</style><svg viewBox="0 0 19 12" id="arrow" xmlns="http://www.w3.org/2000/svg"><path d="M9.916 11.576l8.378-9.334a.866.866 0 00.218-.578.866.866 0 00-.218-.578l-.01-.01a.727.727 0 00-.24-.178.69.69 0 00-.812.178l-7.889 8.79-7.885-8.79a.727.727 0 00-.24-.178.69.69 0 00-.812.178l-.01.01a.866.866 0 00-.218.578c0 .215.078.422.218.578l8.378 9.334a.79.79 0 00.26.192.75.75 0 00.882-.192z"/></svg><svg fill="none" viewBox="0 0 20 21" id="arrow-box" xmlns="http://www.w3.org/2000/svg"><path d="M15.5 19.8H2.4a1.6 1.6 0 01-1.6-1.6V6" stroke="#86BB64" stroke-miterlimit="10"/><path d="M.8 6.2V3a1.6 1.6 0 011.6-1.6h15.2A1.6 1.6 0 0119.2 3v15.2a1.6 1.6 0 01-1.6 1.6h-2.4M16 17l-7-7" stroke="#86BB64" stroke-miterlimit="10"/><path d="M8 17h8V9" stroke="#86BB64" stroke-miterlimit="10"/></svg><svg viewBox="0 0 22 15" id="arrow-sub" xmlns="http://www.w3.org/2000/svg"><path fill-rule="evenodd" clip-rule="evenodd" d="M.5 7.5a.75.75 0 01.75-.75h17.69l-4.721-4.718A.751.751 0 0115.281.97l6 6a.75.75 0 010 1.062l-6 6a.75.75 0 11-1.062-1.062l4.72-4.72H1.25A.75.75 0 01.5 7.5z"/></svg><svg viewBox="0 0 20 21" id="attention" xmlns="http://www.w3.org/2000/svg"><path d="M10 .5C4.473.5 0 4.973 0 10.5s4.473 10 10 10 10-4.473 10-10-4.473-10-10-10zm0 18.438A8.433 8.433 0 011.562 10.5 8.433 8.433 0 0110 2.062a8.433 8.433 0 018.438 8.438A8.433 8.433 0 0110 18.938z"/></svg><svg viewBox="0 0 20 21" id="basket" xmlns="http://www.w3.org/2000/svg"><path d="M8 4h4a2 2 0 10-4 0zM6.5 4a3.5 3.5 0 117 0h5.75a.75.75 0 110 1.5h-1.32l-1.17 12.111A3.75 3.75 0 0113.026 21H6.974a3.75 3.75 0 01-3.733-3.389L2.07 5.5H.75a.75.75 0 010-1.5H6.5zm2 4.75a.75.75 0 00-1.5 0v7.5a.75.75 0 101.5 0v-7.5zM12.25 8a.75.75 0 01.75.75v7.5a.75.75 0 11-1.5 0v-7.5a.75.75 0 01.75-.75zm-7.516 9.467a2.25 2.25 0 002.24 2.033h6.052a2.25 2.25 0 002.24-2.033L16.424 5.5H3.576l1.158 11.967z"/></svg><svg viewBox="0 0 20 30" id="bookmark" xmlns="http://www.w3.org/2000/svg"><path d="M1.606 28.978c-.47-.267-.757-.795-.756-1.363m.756 1.363l1.47-.12L10 23.374l6.924 5.482.093-.117-.093.117c.428.34.997.387 1.47.12.469-.267.756-.795.756-1.362V1.692c0-.45-.334-.842-.777-.842H1.627c-.443 0-.777.391-.777.842v25.923m.756 1.363c.473.267 1.042.22 1.47-.12l-1.47.12zM.85 27.615H1 .85zm9.608-5.963a.73.73 0 00-.916 0l-7.138 5.653V2.535h15.192v24.77l-7.138-5.653z"/></svg><svg viewBox="0 0 16 21" id="bookmark2" xmlns="http://www.w3.org/2000/svg"><path d="M1 20V3a2 2 0 012-2h10a2 2 0 012 2v17l-7-5.429L1 20z"/></svg><svg viewBox="0 0 24 24" id="calendar" xmlns="http://www.w3.org/2000/svg"><path d="M8.719 21.14h6.562a.703.703 0 00.703-.703V19.5c0-1.461-.79-2.74-1.967-3.434a2.802 2.802 0 00.796-1.957A2.816 2.816 0 0012 11.297a2.816 2.816 0 00-2.813 2.812c0 .76.304 1.45.796 1.957A3.986 3.986 0 008.016 19.5v.938c0 .388.314.703.703.703zm1.875-7.03c0-.776.63-1.407 1.406-1.407.775 0 1.406.631 1.406 1.406 0 .776-.63 1.407-1.406 1.407-.775 0-1.406-.631-1.406-1.407zM9.422 19.5A2.581 2.581 0 0112 16.922a2.581 2.581 0 012.578 2.578v.234H9.422V19.5z"/><path d="M21.422 2.813h-.103a3.863 3.863 0 00-.703-1.708C20.09.403 19.341 0 18.563 0c-.78 0-1.528.403-2.054 1.105-.36.48-.6 1.07-.703 1.708h-1.05a3.864 3.864 0 00-.702-1.708C13.527.403 12.78 0 12 0c-.779 0-1.527.403-2.054 1.105-.36.48-.6 1.07-.702 1.708h-1.05a3.864 3.864 0 00-.702-1.708C6.965.403 6.216 0 5.438 0c-.78 0-1.528.403-2.055 1.105-.36.48-.6 1.07-.702 1.708h-.103A2.581 2.581 0 000 5.39v16.03A2.581 2.581 0 002.578 24h18.844A2.581 2.581 0 0024 21.422V5.39a2.581 2.581 0 00-2.578-2.579zm-2.86-1.407c.6 0 1.125.597 1.323 1.407H17.24c.198-.81.724-1.407 1.323-1.407zm-6.562 0c.599 0 1.124.597 1.322 1.407h-2.644c.197-.81.723-1.407 1.322-1.407zm-6.563 0c.6 0 1.125.597 1.323 1.407H4.115c.198-.81.724-1.407 1.322-1.407zm-4.03 3.985c0-.647.525-1.172 1.171-1.172h.103c.102.637.343 1.228.702 1.707.527.702 1.276 1.105 2.054 1.105a.703.703 0 000-1.406c-.598 0-1.124-.596-1.322-1.406h5.129c.102.637.342 1.228.702 1.707.527.702 1.275 1.105 2.054 1.105a.703.703 0 000-1.406c-.599 0-1.124-.596-1.322-1.406h5.128c.102.637.343 1.228.702 1.707.527.702 1.276 1.105 2.055 1.105a.703.703 0 000-1.406c-.6 0-1.125-.596-1.323-1.406h4.182c.646 0 1.172.525 1.172 1.172v3.046H1.406V5.392zm21.187 16.03c0 .647-.526 1.173-1.172 1.173H2.578a1.173 1.173 0 01-1.172-1.172V9.844h21.188v11.578z"/></svg><svg viewBox="0 0 28 28" id="camera" xmlns="http://www.w3.org/2000/svg"><path d="M23.835 6.385h-3.722l-.433-1.27a3.09 3.09 0 00-1.15-1.532A3.211 3.211 0 0016.676 3h-5.354c-.665 0-1.313.204-1.852.583-.539.38-.941.916-1.15 1.532l-.434 1.27H4.165c-.84 0-1.644.326-2.237.906A3.057 3.057 0 001 9.475v12.438c.002.819.336 1.604.93 2.182A3.208 3.208 0 004.164 25h19.673a3.208 3.208 0 002.235-.907c.593-.58.926-1.364.927-2.183V9.47a3.057 3.057 0 00-.93-2.182 3.208 3.208 0 00-2.235-.904zm1.432 15.525c0 .37-.152.726-.42.988-.269.262-.633.41-1.012.41H4.165c-.38 0-.743-.148-1.012-.41a1.383 1.383 0 01-.42-.988V9.47c.002-.37.153-.724.421-.985a1.451 1.451 0 011.011-.41h4.346a.881.881 0 00.507-.159.848.848 0 00.315-.419l.632-1.85c.095-.279.277-.52.52-.692.245-.172.537-.264.838-.264h5.354c.3 0 .594.092.838.264.243.172.426.414.52.692l.632 1.85a.848.848 0 00.315.419.88.88 0 00.507.16h4.346c.38 0 .743.148 1.012.41.268.262.42.617.42.988V21.91z"/><path d="M14 8.75a6.562 6.562 0 106.563 6.563A6.57 6.57 0 0014 8.75zm0 11.375a4.813 4.813 0 110-9.625 4.813 4.813 0 010 9.625zM22.75 11.375a.875.875 0 100-1.75.875.875 0 000 1.75z"/></svg><svg viewBox="0 0 25 17" id="chat" xmlns="http://www.w3.org/2000/svg"><path d="M.824.559h23.72v2.99H.825V.56zM.824 6.941h23.72v2.991H.825v-2.99zM.824 13.328h23.72v2.991H.825v-2.99z"/></svg><svg fill="none" viewBox="0 0 10 7" id="check" xmlns="http://www.w3.org/2000/svg"><path d="M3.84 6.193a.56.56 0 01-.393-.164L.837 3.388a.498.498 0 01.024-.723.554.554 0 01.76.023L3.834 4.93 8.351.23a.532.532 0 01.376-.19.563.563 0 01.403.13.513.513 0 01.177.369.49.49 0 01-.161.375l-4.91 5.11a.537.537 0 01-.391.168h-.006z" fill="#fff"/></svg><svg fill="none" viewBox="0 0 16 20" id="copy" xmlns="http://www.w3.org/2000/svg"><path d="M14.277 2.918h-1.229V1.706c0-.94-.774-1.706-1.723-1.706H1.723C.774 0 0 .766 0 1.706v13.667c0 .94.774 1.706 1.723 1.706h1.229v1.215c0 .94.774 1.706 1.723 1.706h9.602c.949 0 1.723-.767 1.723-1.706V4.624c0-.94-.771-1.706-1.723-1.706zM.91 15.37V1.706c0-.446.365-.808.816-.808h9.6c.452 0 .817.362.817.808v13.667a.811.811 0 01-.816.807H1.723a.815.815 0 01-.812-.81zm14.181 2.921a.811.811 0 01-.816.808h-9.6a.811.811 0 01-.816-.808v-1.215h7.465c.949 0 1.723-.767 1.723-1.706V3.817h1.229c.45 0 .815.36.815.807V18.29z" fill="#fff"/></svg><svg viewBox="0 0 25 25" id="emoji" xmlns="http://www.w3.org/2000/svg"><path d="M16.146 11.458a1.563 1.563 0 100-3.125 1.563 1.563 0 000 3.125zm-5.73-1.562a1.563 1.563 0 11-3.125 0 1.563 1.563 0 013.126 0zM6.593 15.76a.781.781 0 011.083.204l.01.012.045.062c.044.056.115.141.212.247.194.212.491.5.893.789.8.576 2.01 1.155 3.665 1.155 1.654 0 2.865-.579 3.665-1.155.402-.289.7-.577.893-.789.091-.099.177-.202.259-.309l.007-.01a.781.781 0 111.292.88h-.003v.003l-.003.003-.007.01-.023.033a5.75 5.75 0 01-.37.446 7.43 7.43 0 01-1.133 1.002c-1.01.726-2.533 1.449-4.577 1.449s-3.567-.723-4.577-1.45c-.41-.294-.79-.63-1.133-1.001a5.729 5.729 0 01-.392-.478l-.008-.01-.002-.004-.002-.002v-.001a.781.781 0 01.206-1.086zM12.5 0C5.597 0 0 5.597 0 12.5S5.597 25 12.5 25 25 19.403 25 12.5 19.403 0 12.5 0zM1.562 12.5C1.563 6.46 6.46 1.562 12.5 1.562c6.04 0 10.938 4.897 10.938 10.938 0 6.04-4.897 10.938-10.938 10.938-6.04 0-10.938-4.897-10.938-10.938z"/></svg><svg fill="none" viewBox="0 0 24 23" id="exit" xmlns="http://www.w3.org/2000/svg"><path d="M14.5 2H9a5 5 0 00-5 5v8a5 5 0 005 5h5.5M9 10.5h11M16 6.5l4 4-4 4"/></svg><svg viewBox="0 0 20 16" id="eye" xmlns="http://www.w3.org/2000/svg"><path d="M12.483 8.36l1.136-1.136c.083.31.131.632.131.967a3.754 3.754 0 01-3.75 3.75c-.335 0-.658-.048-.967-.13l1.135-1.137a2.489 2.489 0 002.315-2.314zm7.438-.472c-.077-.138-1.167-2.049-3.298-3.668l-.91.91a12.51 12.51 0 012.927 3.062c-.741 1.128-3.647 5-8.64 5a9.185 9.185 0 01-2.1-.25L6.873 13.97c.944.29 1.982.471 3.127.471 6.543 0 9.786-5.703 9.921-5.946a.624.624 0 000-.607zm-2.604-6.13l-13.75 13.75a.623.623 0 01-.884 0 .625.625 0 010-.883l1.75-1.75C1.603 11.168.167 8.655.079 8.495a.625.625 0 010-.607C.214 7.645 3.457 1.94 10 1.94c1.692 0 3.157.386 4.41.957L16.433.875a.625.625 0 11.884.883zM5.365 11.943l1.582-1.582a3.725 3.725 0 01-.697-2.17A3.754 3.754 0 0110 4.441c.809 0 1.556.26 2.17.697l1.279-1.28A9.203 9.203 0 0010 3.192c-4.993 0-7.899 3.872-8.64 5 .47.712 1.823 2.517 4.005 3.752zm2.49-2.49l3.407-3.407c-.372-.22-.8-.355-1.262-.355a2.503 2.503 0 00-2.5 2.5c0 .463.135.89.354 1.262z"/></svg><svg viewBox="0 0 18 12" id="eye2" xmlns="http://www.w3.org/2000/svg"><path d="M17.639 5.658c-.157-.213-3.882-5.236-8.64-5.236C4.243.422.518 5.445.362 5.658a.577.577 0 000 .681c.156.214 3.881 5.237 8.639 5.237 4.757 0 8.482-5.023 8.639-5.237a.577.577 0 000-.68zm-8.64 4.764c-3.504 0-6.539-3.334-7.437-4.424C2.459 4.908 5.488 1.576 9 1.576c3.504 0 6.54 3.333 7.438 4.423-.897 1.09-3.926 4.423-7.438 4.423z"/><path d="M8.999 2.54A3.466 3.466 0 005.537 6 3.466 3.466 0 009 9.463a3.466 3.466 0 003.461-3.461A3.466 3.466 0 009 2.539zm0 5.768A2.31 2.31 0 016.69 6.001a2.31 2.31 0 012.308-2.308A2.31 2.31 0 0111.306 6 2.31 2.31 0 019 8.308z"/></svg><svg viewBox="0 0 36 28" id="family" xmlns="http://www.w3.org/2000/svg"><path d="M29.002 11.03c1.354-.985 2.245-2.656 2.245-4.547C31.247 3.46 28.968 1 26.167 1c-2.802 0-5.081 2.46-5.081 5.483 0 1.89.89 3.56 2.244 4.547a8.618 8.618 0 00-2.727 1.627c-.693-.72-1.623-1.134-2.603-1.134-.98 0-1.91.414-2.602 1.133a8.622 8.622 0 00-2.727-1.627c1.352-.986 2.243-2.655 2.243-4.546C14.914 3.46 12.634 1 9.834 1c-2.802 0-5.08 2.46-5.08 5.483 0 1.891.891 3.562 2.244 4.548-3.478 1.275-5.99 4.832-5.997 9.01l-.001.02c0 1.104.582 2.734 3.352 4.228 1.975 1.064 4.688 1.864 7.847 2.313 1.853.264 3.805.398 5.801.398 1.997 0 3.949-.134 5.802-.398 3.158-.449 5.871-1.249 7.846-2.313C34.418 22.795 35 21.165 35 20.06c0-4.186-2.514-7.751-5.998-9.03zm-6.583-4.547c0-2.23 1.681-4.044 3.748-4.044 2.066 0 3.747 1.814 3.747 4.044 0 2.23-1.681 4.044-3.747 4.044-2.067 0-3.748-1.814-3.748-4.044zm-6.408 7.603c.453-.704 1.196-1.124 1.989-1.124.793 0 1.537.42 1.99 1.124.283.439.432.954.432 1.49 0 1.441-1.087 2.614-2.422 2.614-1.335 0-2.421-1.173-2.421-2.614 0-.537.149-1.052.432-1.49zM6.087 6.483c0-2.23 1.68-4.044 3.746-4.044 2.067 0 3.748 1.814 3.748 4.044 0 2.23-1.681 4.044-3.748 4.044-2.066 0-3.746-1.814-3.746-4.044zM11.62 25.06c-2.689-.442-4.984-1.148-6.672-2.058-1.681-.907-2.609-1.948-2.614-2.933v-.008c0-4.464 3.364-8.095 7.5-8.095 1.759 0 3.437.656 4.78 1.857a4.299 4.299 0 00-.369 1.753c0 1.252.53 2.374 1.36 3.118-2.33 1.023-3.98 3.49-3.985 6.366zm11.428.193A40.529 40.529 0 0118 25.56a40.52 40.52 0 01-5.047-.308v-.177c0-3.004 2.264-5.447 5.047-5.447 2.784 0 5.048 2.443 5.048 5.447v.177zm8.004-2.251c-1.688.91-3.983 1.616-6.67 2.058-.007-2.876-1.655-5.343-3.986-6.366.83-.744 1.36-1.866 1.36-3.118 0-.613-.127-1.209-.37-1.753 1.343-1.201 3.021-1.857 4.78-1.857 4.136 0 7.5 3.631 7.5 8.094 0 .988-.928 2.033-2.614 2.942z"/></svg><svg viewBox="0 0 24 21" id="followers" xmlns="http://www.w3.org/2000/svg"><path d="M21.923.117H2.077A2.08 2.08 0 000 2.194v12.923a2.08 2.08 0 002.077 2.077h6.808l2.561 3.416a.692.692 0 001.108 0l2.561-3.416h6.808A2.08 2.08 0 0024 15.117V2.194A2.08 2.08 0 0021.923.117zm.692 15c0 .382-.31.692-.692.692H14.77a.692.692 0 00-.554.277L12 19.04l-2.215-2.954a.692.692 0 00-.554-.276H2.077a.693.693 0 01-.692-.693V2.194c0-.382.31-.692.692-.692h19.846c.382 0 .692.31.692.692v12.923z"/><path d="M14.287 8.483a3.453 3.453 0 001.175-2.596A3.465 3.465 0 0012 2.426 3.465 3.465 0 008.54 5.887c0 1.033.455 1.96 1.174 2.596a5.314 5.314 0 00-3.02 4.789c0 .382.31.692.692.692h9.23c.383 0 .693-.31.693-.692a5.314 5.314 0 00-3.021-4.79zM12 3.81a2.08 2.08 0 012.077 2.077A2.08 2.08 0 0112 7.964a2.08 2.08 0 01-2.077-2.077A2.08 2.08 0 0112 3.81zm-3.862 8.77A3.93 3.93 0 0112 9.349a3.93 3.93 0 013.862 3.23H8.138z"/></svg><svg viewBox="0 0 36 35" id="friends" xmlns="http://www.w3.org/2000/svg"><path d="M16.857 33.849H6.94c-.281 0-.517-.296-.548-.687l-.358-4.502-.761 4.591c-.058.35-.28.598-.537.598H1.432c-.17 0-.329-.109-.433-.295a1.025 1.025 0 01-.103-.66L2.93 21.182c1.084-5.068 4.574-8.426 8.31-8.024 8.84.953 15.25 1.125 18.045.482.742-.168 1.49.287 1.908 1.165.31.652.403 1.46.256 2.216-.145.746-.513 1.367-1.008 1.703-2.182 1.479-6.62 3.83-12.232 3.354l-.803 11.077c-.029.394-.266.694-.548.694zm-9.424-1.545h8.926l.807-11.13c.03-.418.29-.736.594-.69 5.607.651 10.05-1.693 12.2-3.151.212-.143.362-.399.425-.72a1.57 1.57 0 00-.11-.951c-.178-.375-.493-.575-.811-.498-3.696.846-11.995.214-18.31-.467-3.215-.35-6.234 2.55-7.162 6.889l-1.86 10.718H4.3l1.389-8.383c.06-.367.307-.618.568-.596.268.022.486.311.516.684l.66 8.295zM12.422 11.965a5.412 5.412 0 01-5.406-5.407 5.412 5.412 0 015.406-5.406 5.412 5.412 0 015.406 5.406 5.412 5.412 0 01-5.406 5.407zm0-9.52a4.118 4.118 0 00-4.113 4.113 4.118 4.118 0 004.113 4.114 4.118 4.118 0 004.113-4.114 4.118 4.118 0 00-4.113-4.113zM24.605 12.76A4.51 4.51 0 0120.1 8.256a4.51 4.51 0 014.505-4.506 4.51 4.51 0 014.505 4.506 4.51 4.51 0 01-4.505 4.504zm0-7.801a3.3 3.3 0 00-3.297 3.297 3.3 3.3 0 003.297 3.296A3.3 3.3 0 0027.9 8.256a3.3 3.3 0 00-3.296-3.297z"/><path d="M34.53 33.85h-4.346c-.23 0-.44-.176-.536-.45l-1.046-2.98v2.652c0 .43-.265.778-.59.778H18.59c-.168 0-.328-.093-.44-.257a.947.947 0 01-.148-.603l.73-9.043c.033-.396.286-.696.588-.696.07 0 7.148-.048 12.018-3.714a.461.461 0 01.513-.046c.168.088.295.272.346.5l2.897 12.86a.984.984 0 01-.092.686c-.112.197-.288.313-.474.313zm-3.97-1.556h3.178l-2.465-10.943c-4.314 2.9-9.715 3.366-11.42 3.44l-.606 7.503h8.174V26.89c0-.364.193-.68.464-.759.268-.077.545.102.662.433l2.014 5.73z"/></svg><svg viewBox="0 0 21 24" id="gender" xmlns="http://www.w3.org/2000/svg"><path d="M10.825 11.561c1.588 0 2.964-.57 4.087-1.694 1.124-1.123 1.694-2.498 1.694-4.087 0-1.588-.57-2.963-1.694-4.087C13.788.57 12.413 0 10.825 0 9.237 0 7.862.57 6.738 1.693c-1.124 1.124-1.694 2.5-1.694 4.087 0 1.589.57 2.964 1.694 4.088 1.124 1.123 2.5 1.693 4.087 1.693zM7.733 2.688c.862-.862 1.873-1.282 3.092-1.282s2.23.42 3.093 1.282c.862.862 1.281 1.874 1.281 3.092 0 1.22-.419 2.23-1.281 3.093-.863.862-1.874 1.282-3.093 1.282-1.218 0-2.23-.42-3.092-1.282C6.87 8.011 6.45 6.999 6.45 5.78c0-1.218.42-2.23 1.282-3.092z"/><path d="M20.94 18.424a14.276 14.276 0 00-.195-1.516 11.953 11.953 0 00-.373-1.525 7.535 7.535 0 00-.627-1.422 5.36 5.36 0 00-.945-1.232 4.17 4.17 0 00-1.357-.853 4.695 4.695 0 00-1.734-.313c-.245 0-.482.1-.94.398-.28.184-.61.396-.978.631-.314.2-.74.388-1.266.558a5.029 5.029 0 01-1.55.25 5.032 5.032 0 01-1.548-.25c-.526-.17-.952-.357-1.265-.558-.365-.232-.694-.445-.98-.631-.457-.298-.694-.399-.94-.399-.623 0-1.206.106-1.732.315a4.166 4.166 0 00-1.358.853 5.362 5.362 0 00-.945 1.231c-.26.459-.472.937-.627 1.422-.15.47-.275.982-.373 1.525a14.181 14.181 0 00-.194 1.517c-.032.458-.048.935-.048 1.417 0 1.253.398 2.267 1.183 3.015.776.738 1.802 1.113 3.05 1.113h11.557c1.248 0 2.274-.375 3.05-1.113.785-.747 1.183-1.762 1.183-3.015 0-.483-.016-.96-.048-1.418zm-2.105 3.414c-.513.488-1.193.725-2.08.725H5.197c-.887 0-1.567-.237-2.08-.724-.502-.479-.747-1.132-.747-1.997 0-.45.015-.893.045-1.32.029-.418.088-.877.176-1.366.086-.482.196-.934.328-1.344.125-.393.297-.781.51-1.156.203-.357.436-.664.694-.91.241-.231.545-.42.903-.562a3.237 3.237 0 011.108-.214c.05.027.137.077.28.17.288.188.622.403.99.638.415.265.95.504 1.59.71.653.212 1.32.319 1.981.319.662 0 1.328-.107 1.981-.319.64-.206 1.175-.445 1.59-.71.378-.241.702-.45.991-.639.142-.092.23-.142.279-.169.404.011.777.083 1.108.214.358.142.662.331.903.562.258.246.492.553.695.91.213.374.384.764.51 1.156.131.41.242.862.328 1.344.088.49.147.949.176 1.366.03.425.045.87.045 1.32 0 .865-.245 1.518-.747 1.996z"/></svg><svg viewBox="0 0 28 28" id="groups" xmlns="http://www.w3.org/2000/svg"><path d="M22.321 10.202a.715.715 0 00-.542.137c-.76.572-1.643.91-2.576.99.092-.23.166-.47.228-.715 2.53-.34 4.5-2.592 4.5-5.282 0-2.94-2.318-5.332-5.168-5.332-2.103 0-3.984 1.332-4.77 3.301h-.025C13.18 1.33 11.298 0 9.194 0 6.345 0 4.028 2.392 4.028 5.332c0 2.69 1.97 4.94 4.496 5.282.062.245.136.484.228.715a4.992 4.992 0 01-2.58-.996.722.722 0 00-.533-.139c-3.426.483-5.84 3.42-5.626 6.84V19.5c0 .141.038.279.11.399.532.894 1.793 1.566 3.748 2.003.003.065.004.13.008.196v2.737c0 .14.038.279.11.398C5.297 27.427 10.438 28 14.125 28c.53 0 1.03-.012 1.485-.033 2.18-.1 7.37-.57 8.446-2.792a.779.779 0 00.078-.34v-2.762c0-.05-.006-.098-.007-.147 2.06-.445 3.338-1.144 3.795-2.085a.78.78 0 00.078-.34v-2.493c0-3.383-2.441-6.31-5.679-6.806zM9.806 9.13c0-2.376 1.871-4.308 4.172-4.308 2.3 0 4.173 1.932 4.173 4.308 0 2.375-1.872 4.307-4.173 4.307-2.3 0-4.172-1.932-4.172-4.307zm8.958-7.608c2.036 0 3.694 1.71 3.694 3.81 0 1.786-1.217 3.3-2.839 3.702-.041-2.62-1.764-4.822-4.102-5.508.632-1.21 1.873-2.004 3.247-2.004zM5.502 5.332c0-2.1 1.656-3.81 3.692-3.81 1.373 0 2.615.794 3.25 2.003-2.34.684-4.066 2.887-4.108 5.509-1.62-.403-2.834-1.916-2.834-3.701zM22.66 24.622c-.59.793-3.135 1.646-7.115 1.827-4.695.215-9.149-.612-10.193-1.86v-2.515l-.001-.051c-.188-2.859 1.78-5.334 4.617-5.867a7.028 7.028 0 004.01 1.249 7.025 7.025 0 003.993-1.239c2.692.555 4.689 3.044 4.689 5.908v2.548zm3.866-5.341c-.278.345-1.078.792-2.581 1.132-.659-2.968-3.031-5.341-6.037-5.802a.717.717 0 00-.541.137 5.605 5.605 0 01-3.389 1.135 5.604 5.604 0 01-3.397-1.141.72.72 0 00-.534-.14c-3.16.445-5.536 2.798-6.069 5.768-1.617-.386-2.251-.859-2.49-1.123v-2.238c0-.017-.001-.035-.003-.052-.168-2.53 1.57-4.722 4.077-5.208a6.407 6.407 0 004.078 1.107c1.037 1.284 2.596 2.104 4.338 2.104s3.301-.82 4.338-2.104a6.402 6.402 0 004.067-1.098c2.381.506 4.143 2.713 4.143 5.25v2.273z"/></svg><svg viewBox="0 0 16 14" id="like" xmlns="http://www.w3.org/2000/svg"><path d="M15.225 2.983a4.57 4.57 0 00-1-1.455A4.664 4.664 0 0010.948.196a4.695 4.695 0 00-2.949 1.038A4.695 4.695 0 005.052.195a4.664 4.664 0 00-3.276 1.333 4.543 4.543 0 00-1.37 3.246c0 .586.12 1.196.357 1.816.199.519.483 1.057.847 1.6.577.86 1.37 1.756 2.354 2.665a26.319 26.319 0 003.315 2.589l.417.267a.565.565 0 00.606 0l.417-.267a26.664 26.664 0 003.315-2.59c.985-.908 1.777-1.805 2.354-2.664a8.04 8.04 0 00.847-1.6c.238-.62.357-1.23.357-1.816a4.475 4.475 0 00-.367-1.79zM8 12.321S1.742 8.31 1.742 4.774c0-1.79 1.482-3.243 3.31-3.243 1.285 0 2.4.717 2.948 1.765a3.32 3.32 0 012.948-1.765c1.828 0 3.31 1.452 3.31 3.243C14.258 8.311 8 12.321 8 12.321z"/></svg><svg viewBox="0 0 18 19" id="link" xmlns="http://www.w3.org/2000/svg"><path d="M3.738 7.798l-2.279 2.366A5.28 5.28 0 000 13.824a5.28 5.28 0 001.46 3.66A4.89 4.89 0 004.981 19a4.89 4.89 0 003.523-1.516l3.036-3.155a5.215 5.215 0 001.225-2.092 5.369 5.369 0 00.162-2.442 5.278 5.278 0 00-.936-2.247A5.026 5.026 0 0010.166 6l-.973 1.01a1.722 1.722 0 00-.256.344 3.3 3.3 0 011.463.91c.403.43.691.963.835 1.544.145.582.14 1.192-.012 1.771a3.482 3.482 0 01-.856 1.532l-3.034 3.153a3.261 3.261 0 01-2.35 1.012 3.261 3.261 0 01-2.35-1.012 3.521 3.521 0 01-.973-2.44c0-.916.35-1.794.973-2.442l1.317-1.366a7.19 7.19 0 01-.212-2.22v.002z"/><path d="M6.459 4.67a5.215 5.215 0 00-1.225 2.092 5.37 5.37 0 00-.162 2.443 5.28 5.28 0 00.936 2.247A5.026 5.026 0 007.834 13l1.287-1.339a3.295 3.295 0 01-1.489-.893 3.485 3.485 0 01-.859-1.547 3.58 3.58 0 010-1.786c.151-.585.448-1.119.86-1.547l3.034-3.154a3.261 3.261 0 012.35-1.011c.881 0 1.726.364 2.35 1.011.623.648.973 1.526.973 2.442 0 .915-.35 1.793-.973 2.44L14.05 8.984c.186.725.257 1.476.212 2.22l2.279-2.366A5.28 5.28 0 0018 5.177a5.28 5.28 0 00-1.46-3.66A4.89 4.89 0 0013.019 0a4.89 4.89 0 00-3.523 1.516L6.459 4.67z"/></svg><svg viewBox="0 0 36 33" id="message" xmlns="http://www.w3.org/2000/svg"><path d="M30.766.152H5.236C2.566.152.395 2.344.395 5.038v15.77c0 2.688 2.162 4.877 4.823 4.886v7.156l10.19-7.156h15.358c2.67 0 4.841-2.192 4.841-4.886V5.038c0-2.694-2.171-4.886-4.84-4.886zm2.778 20.656c0 1.546-1.246 2.804-2.778 2.804H14.76l-7.478 5.252v-5.252H5.236c-1.532 0-2.778-1.258-2.778-2.804V5.038c0-1.546 1.246-2.803 2.778-2.803h25.53c1.532 0 2.778 1.257 2.778 2.803v15.77z"/><path d="M9.215 6.898h17.532V9.11H9.215V6.9zM9.215 11.617h17.532v2.21H9.215v-2.21zM9.215 16.336h17.532v2.21H9.215v-2.21z"/></svg><svg viewBox="0 0 22 22" id="minus" xmlns="http://www.w3.org/2000/svg"><path d="M10.98 21.326a10.311 10.311 0 01-7.314-3.025c-4.034-4.033-4.034-10.596 0-14.63A10.277 10.277 0 0110.98.641c2.763 0 5.361 1.076 7.314 3.03a10.278 10.278 0 013.03 7.315c0 2.764-1.075 5.361-3.03 7.315a10.311 10.311 0 01-7.315 3.025zm0-19.03A8.63 8.63 0 004.837 4.84a8.633 8.633 0 00-2.545 6.145c0 2.322.904 4.503 2.545 6.145 3.388 3.388 8.902 3.39 12.289 0a8.634 8.634 0 002.546-6.145 8.632 8.632 0 00-2.546-6.145 8.634 8.634 0 00-6.144-2.545z"/><path d="M5.429 11.573a.827.827 0 01.585-1.413h9.93a.829.829 0 01.586 1.413.828.828 0 01-.585.242H6.014a.822.822 0 01-.585-.242z"/></svg><svg viewBox="0 0 22 22" id="needle" xmlns="http://www.w3.org/2000/svg"><path d="M13.742.082a.75.75 0 01.53.219l7.426 7.425a.75.75 0 010 1.06c-.72.72-1.608.883-2.255.883-.265 0-.502-.027-.69-.059l-4.7 4.701a8.9 8.9 0 01.24 1.52c.068 1.053-.049 2.53-1.08 3.562a.75.75 0 01-1.061 0l-4.244-4.242-4.773 4.773c-.292.293-1.828 1.353-2.12 1.06-.293-.292.767-1.83 1.06-2.12l4.773-4.774-4.242-4.243a.75.75 0 010-1.06c1.032-1.032 2.51-1.151 3.562-1.08.513.035 1.021.116 1.52.24l4.7-4.7c-.038-.228-.058-.46-.06-.691 0-.645.163-1.533.884-2.255a.75.75 0 01.53-.219zm.183 3.168v-.003.003zm0-.003v.003a.75.75 0 01-.183.765L8.439 9.316a.75.75 0 01-.766.18H7.67l-.021-.006a7.383 7.383 0 00-1.58-.288c-.633-.042-1.254.012-1.762.225l8.265 8.264c.211-.51.265-1.13.223-1.763a7.387 7.387 0 00-.288-1.581l-.006-.02v-.001a.75.75 0 01.18-.768l5.304-5.302a.75.75 0 01.798-.173l.144.033c.13.026.312.051.516.051.171 0 .345-.016.515-.06L13.89 2.041c-.043.17-.06.345-.06.515.001.233.032.465.093.69l.002.001z"/></svg><svg viewBox="0 0 30 33" id="notifications" xmlns="http://www.w3.org/2000/svg"><path d="M25.075 16.94v-3.057c0-4.46-2.964-8.239-7.025-9.473V3.026A2.877 2.877 0 0015.176.152a2.877 2.877 0 00-2.874 2.874V4.41c-4.061 1.234-7.025 5.014-7.025 9.473v3.056c0 3.917-1.493 7.631-4.204 10.458a.958.958 0 00.692 1.621h8.718a4.798 4.798 0 004.693 3.832 4.798 4.798 0 004.693-3.832h8.718a.958.958 0 00.691-1.62 15.042 15.042 0 01-4.203-10.459zM14.218 3.025a.959.959 0 011.916 0v1.005a9.982 9.982 0 00-1.916 0V3.026zm.958 27.908c-1.249 0-2.314-.8-2.71-1.916h5.419a2.879 2.879 0 01-2.71 1.916zM3.829 27.102A16.937 16.937 0 007.193 16.94v-3.056c0-4.402 3.581-7.983 7.983-7.983 4.402 0 7.983 3.581 7.983 7.983v3.056c0 3.7 1.182 7.239 3.363 10.163H3.83z"/></svg><svg viewBox="0 0 28 24" id="pages" xmlns="http://www.w3.org/2000/svg"><path d="M24.5.707h-21C1.568.709.002 2.139 0 3.904v16.621c.002 1.765 1.568 3.195 3.5 3.196h21c1.932-.002 3.498-1.431 3.5-3.196V3.904C27.998 2.139 26.432.709 24.5.707zm-21 1.279h21c1.16 0 2.099.859 2.1 1.918v.639H1.4v-.64c.001-1.058.94-1.916 2.1-1.917zm21 20.457h-21c-1.16-.001-2.099-.86-2.1-1.918V5.821h25.2v14.704c-.001 1.059-.94 1.917-2.1 1.918z"/><path d="M4.9 14.77h5.6a.735.735 0 00.494-.187.612.612 0 00.205-.452v-3.836a.612.612 0 00-.205-.452.734.734 0 00-.495-.187H4.9a.735.735 0 00-.495.187.613.613 0 00-.205.452v3.836c0 .17.074.332.205.452.132.12.31.188.495.188zm.7-3.835h4.2v2.557H5.6v-2.557zM23.1 9.656h-8.4c-.386 0-.7.286-.7.64 0 .352.313.639.7.639h8.4c.387 0 .7-.287.7-.64 0-.353-.313-.639-.7-.639zM23.1 13.496h-8.4c-.386 0-.7.286-.7.64 0 .352.313.639.7.639h8.4c.387 0 .7-.287.7-.64 0-.353-.313-.639-.7-.639zM23.1 17.328H4.9c-.387 0-.7.286-.7.64 0 .352.313.639.7.639h18.2c.386 0 .7-.287.7-.64 0-.353-.314-.639-.7-.639z"/></svg><svg fill="none" viewBox="0 0 20 20" id="pen" xmlns="http://www.w3.org/2000/svg"><path d="M16.848 1.825a2.448 2.448 0 00-3.46 0l-.865.87-9.218 9.214-.02.02c-.005.005-.005.01-.01.01-.01.015-.024.03-.034.044 0 .005-.005.005-.005.01-.01.014-.014.024-.024.039-.005.005-.005.01-.01.015l-.015.039c0 .005-.005.005-.005.01l-2.045 6.15a.482.482 0 00.118.5.492.492 0 00.504.117l6.145-2.05c.005 0 .005 0 .01-.005a.177.177 0 00.044-.02.017.017 0 00.01-.005c.014-.01.034-.02.048-.03.015-.009.03-.024.044-.034.005-.005.01-.005.01-.01.005-.004.015-.009.02-.019L18.174 6.606a2.448 2.448 0 000-3.46l-1.326-1.321zm-9.1 13.838l-3.406-3.406 8.523-8.524L16.27 7.14l-8.523 8.524zm-3.886-2.5l2.975 2.974-4.467 1.488 1.492-4.463zM17.484 5.92l-.519.524-3.405-3.406.523-.523a1.468 1.468 0 012.075 0l1.33 1.33a1.473 1.473 0 01-.004 2.075z" fill="#8E8E8E" stroke="#8E8E8E" stroke-width=".5"/></svg><svg viewBox="0 0 22 22" id="pencil" xmlns="http://www.w3.org/2000/svg"><path d="M19.217 1.19a2.938 2.938 0 00-4.151 0l-1.04 1.046-11.06 11.056-.024.024c-.006.005-.006.012-.012.012-.012.017-.03.035-.041.052 0 .006-.006.006-.006.012l-.03.047c-.005.006-.005.012-.011.018l-.018.047c0 .005-.006.005-.006.011L.364 20.896a.578.578 0 00.141.599.59.59 0 00.605.141l7.374-2.46c.006 0 .006 0 .012-.006a.212.212 0 00.053-.024.02.02 0 00.012-.005c.017-.012.04-.024.058-.036.018-.011.035-.029.053-.04.006-.007.012-.007.012-.013.006-.005.017-.011.023-.023l12.1-12.102a2.938 2.938 0 000-4.15l-1.59-1.586zM8.297 17.797L4.21 13.709 14.437 3.481l4.087 4.086L8.296 17.796zm-4.663-3l3.57 3.57-5.36 1.784 1.79-5.354zm16.346-8.69l-.622.628-4.087-4.087.628-.628a1.761 1.761 0 012.49 0l1.597 1.597c.682.69.68 1.802-.006 2.49z"/></svg><svg fill="none" viewBox="0 0 24 25" id="question" xmlns="http://www.w3.org/2000/svg"><circle cx="12" cy="12.5" r="10"/><path d="M11.777 17.5a.835.835 0 01-.571-.224.751.751 0 010-1.096c.3-.287.842-.287 1.141 0a.752.752 0 01.004 1.096.845.845 0 01-.575.224zM11.778 15.18h-.007c-.447-.003-.806-.353-.802-.78l.003-.388c0-.022.002-.044.004-.066.112-1.127.894-1.817 1.522-2.372.213-.188.415-.366.587-.552.209-.225.513-.688.193-1.246-.368-.644-1.267-.827-1.965-.674-.73.16-.998.756-1.094 1.097-.115.413-.56.658-.992.548-.432-.111-.688-.536-.572-.95.322-1.152 1.16-1.955 2.296-2.204 1.53-.335 3.07.257 3.747 1.44.563.985.41 2.14-.402 3.017a9.504 9.504 0 01-.7.661c-.58.514-.944.857-1.006 1.352l-.003.35c-.003.426-.365.768-.809.768z"/></svg><svg viewBox="0 0 18 18" id="rss" xmlns="http://www.w3.org/2000/svg"><path d="M2.762 17.571a1.905 1.905 0 100-3.81 1.905 1.905 0 000 3.81zM17.047 17.572c-.572 0-.952-.381-.952-.953a14.27 14.27 0 00-4.19-10.094A14.27 14.27 0 001.81 2.335c-.572 0-.953-.382-.953-.953S1.238.43 1.81.43c4.285 0 8.38 1.714 11.428 4.761 3.047 3.048 4.761 7.143 4.761 11.428 0 .572-.38.953-.952.953zM10.38 17.573c-.57 0-.952-.38-.952-.952 0-2-.762-3.905-2.19-5.428-1.524-1.429-3.428-2.19-5.428-2.19-.572 0-.953-.382-.953-.953s.381-.952.953-.952c2.571 0 4.952.952 6.761 2.761 1.81 1.81 2.762 4.19 2.762 6.762 0 .571-.381.952-.952.952z"/></svg><svg fill="none" viewBox="0 0 25 25" id="search" xmlns="http://www.w3.org/2000/svg"><path d="M23.5 23.499l-5.233-5.243 5.234 5.243zm-2.333-12.25a9.917 9.917 0 11-19.833 0 9.917 9.917 0 0119.833 0v0z" stroke="#8E8E8E" stroke-width="2" stroke-linecap="round"/></svg><svg fill="none" viewBox="0 0 24 24" id="settings" xmlns="http://www.w3.org/2000/svg"><path d="M20.86 14.531l-1.957-1.586c.05-.33.074-.641.074-.945 0-.304-.024-.615-.074-.946L20.86 9.47a.366.366 0 00.087-.475l-1.783-2.988a.394.394 0 00-.468-.165l-2.395.847a7.012 7.012 0 00-1.697-.944l-.44-2.434a.384.384 0 00-.382-.31h-3.566c-.188 0-.35.13-.382.31l-.44 2.434a7.011 7.011 0 00-1.697.944l-2.395-.847a.393.393 0 00-.468.165L3.052 8.994a.366.366 0 00.087.475l1.958 1.585c-.05.331-.074.642-.074.946 0 .304.024.615.074.945L3.14 14.531a.366.366 0 00-.087.475l1.783 2.988a.394.394 0 00.468.165l2.395-.847a7.01 7.01 0 001.697.944l.44 2.434c.033.18.194.31.382.31h3.566c.188 0 .35-.13.382-.31l.44-2.434a7.01 7.01 0 001.697-.944l2.395.846a.396.396 0 00.468-.164l1.783-2.988a.366.366 0 00-.087-.475z"/><circle cx="12" cy="12" r="3.25"/></svg><svg viewBox="0 0 21 22" id="share" xmlns="http://www.w3.org/2000/svg"><path d="M11.121 5.216c-2.894.157-5.6 1.418-7.675 3.59C1.224 11.132 0 14.213 0 17.483V22l1.563-3.772c1.827-3.808 5.53-6.333 9.558-6.568v5.205L21 8.42 11.121 0v5.216zm1.231 1.272V2.71l6.7 5.71-6.7 5.728v-3.796h-.615c-2.335 0-4.627.687-6.629 1.987a12.95 12.95 0 00-3.8 3.805c.633-5.434 5.068-9.657 10.429-9.657h.615z"/></svg><svg fill="none" viewBox="0 0 24 25" id="shield" xmlns="http://www.w3.org/2000/svg"><path d="M20 4.605v9.138a7 7 0 01-3.404 6.006L12 22.5l-4.596-2.751A7 7 0 014 13.743V4.605L12 2.5l8 2.105z"/><path d="M8.5 11l3 3 5-5"/></svg><svg viewBox="0 0 42 43" id="user" xmlns="http://www.w3.org/2000/svg"><path d="M37.123 35.395A20.986 20.986 0 100 21.998a20.849 20.849 0 004.877 13.396l-.03.025c.105.126.225.234.333.358.135.155.28.3.42.45.42.456.852.895 1.305 1.305.138.127.28.243.42.364.48.413.973.806 1.485 1.172.066.045.126.104.192.15v-.017a20.852 20.852 0 0024 0v.017c.066-.046.124-.105.191-.15a21.68 21.68 0 001.486-1.172c.139-.12.282-.239.42-.364.453-.412.885-.849 1.305-1.305.139-.15.283-.295.42-.45.106-.124.227-.232.333-.36l-.033-.023zM21 9.998a6.75 6.75 0 110 13.5A6.75 6.75 0 0121 10zM9.01 35.394A7.494 7.494 0 0116.5 28h9a7.494 7.494 0 017.49 7.395 17.91 17.91 0 01-23.98 0z"/></svg><svg viewBox="0 0 22 20" id="vote" xmlns="http://www.w3.org/2000/svg"><path d="M20 7h-6.31l.95-4.57.03-.32c0-.41-.17-.79-.44-1.06L13.17 0 6.59 6.59C6.22 6.95 6 7.45 6 8v10c0 1.1.9 2 2 2h9c.83 0 1.54-.5 1.84-1.22l3.02-7.05c.09-.23.14-.47.14-.73V9c0-1.1-.9-2-2-2zm0 4l-3 7H8V8l4.34-4.34L11.23 9H20v2zM0 8h4v12H0V8z"/></svg></svg>