<?xml version="1.0" encoding="utf-8"?><!DOCTYPE svg  PUBLIC '-//W3C//DTD SVG 1.1//EN'  'http://www.w3.org/Graphics/SVG/1.1/DTD/svg11.dtd'><svg viewBox="0 0 256 256" xmlns="http://www.w3.org/2000/svg" xmlns:xlink="http://www.w3.org/1999/xlink"><style>:root>svg{display:none}:root>svg:target{display:block}</style><svg fill="none" viewBox="0 0 21 21" id="accept" xmlns="http://www.w3.org/2000/svg"><path d="M9.624 10.57a4.785 4.785 0 100-9.57 4.785 4.785 0 000 9.57zM14.409 20.14H3.179a1.914 1.914 0 01-1.9-2.151l.374-2.99a2.87 2.87 0 012.85-2.515h.336m11.484-.957v5.742m-2.871-2.87h5.742"/></svg><svg viewBox="0 0 52 46" id="add-photo" xmlns="http://www.w3.org/2000/svg"><path fill-rule="evenodd" clip-rule="evenodd" d="M43.52 1.855v9.667a1.813 1.813 0 003.626 0V1.855a1.813 1.813 0 00-3.625 0z"/><path fill-rule="evenodd" clip-rule="evenodd" d="M40.5 8.5h9.667a1.813 1.813 0 000-3.625H40.5a1.813 1.813 0 000 3.625z"/><path fill-rule="evenodd" clip-rule="evenodd" d="M30.833 1.25H19.035a4.23 4.23 0 00-3.782 2.337l-2.289 4.58a.61.61 0 01-.54.333H6.666A6.645 6.645 0 00.02 15.146v24.166c0 1.762.7 3.454 1.945 4.7a6.657 6.657 0 004.7 1.946h38.667c1.762 0 3.454-.7 4.7-1.945a6.657 6.657 0 001.946-4.7V18.77a1.813 1.813 0 00-3.625 0v20.541c0 .803-.319 1.569-.884 2.137a3.026 3.026 0 01-2.137.884H6.667a3.026 3.026 0 01-2.137-.884 3.026 3.026 0 01-.884-2.136V15.145a3.022 3.022 0 013.02-3.021h5.757a4.23 4.23 0 003.782-2.337l2.289-4.58a.61.61 0 01.541-.333h11.798a1.813 1.813 0 000-3.625z"/><path fill-rule="evenodd" clip-rule="evenodd" d="M26 14.543c-6.337 0-11.48 5.143-11.48 11.48C14.52 32.358 19.664 37.5 26 37.5c6.337 0 11.48-5.142 11.48-11.479 0-6.336-5.143-11.479-11.48-11.479zm0 3.625a7.857 7.857 0 017.854 7.854A7.857 7.857 0 0126 33.876a7.857 7.857 0 01-7.854-7.854A7.857 7.857 0 0126 18.168z"/></svg><svg viewBox="0 0 19 12" id="arrow" xmlns="http://www.w3.org/2000/svg"><path d="M9.916 11.576l8.378-9.334a.866.866 0 00.218-.578.866.866 0 00-.218-.578l-.01-.01a.727.727 0 00-.24-.178.69.69 0 00-.812.178l-7.889 8.79-7.885-8.79a.727.727 0 00-.24-.178.69.69 0 00-.812.178l-.01.01a.866.866 0 00-.218.578c0 .215.078.422.218.578l8.378 9.334a.79.79 0 00.26.192.75.75 0 00.882-.192z"/></svg><svg fill="none" viewBox="0 0 20 21" id="arrow-box" xmlns="http://www.w3.org/2000/svg"><path d="M15.5 19.8H2.4a1.6 1.6 0 01-1.6-1.6V6" stroke="#86BB64" stroke-miterlimit="10"/><path d="M.8 6.2V3a1.6 1.6 0 011.6-1.6h15.2A1.6 1.6 0 0119.2 3v15.2a1.6 1.6 0 01-1.6 1.6h-2.4M16 17l-7-7" stroke="#86BB64" stroke-miterlimit="10"/><path d="M8 17h8V9" stroke="#86BB64" stroke-miterlimit="10"/></svg><svg viewBox="0 0 22 15" id="arrow-sub" xmlns="http://www.w3.org/2000/svg"><path fill-rule="evenodd" clip-rule="evenodd" d="M.5 7.5a.75.75 0 01.75-.75h17.69l-4.721-4.718A.751.751 0 0115.281.97l6 6a.75.75 0 010 1.062l-6 6a.75.75 0 11-1.062-1.062l4.72-4.72H1.25A.75.75 0 01.5 7.5z"/></svg><svg viewBox="0 0 20 21" id="attention" xmlns="http://www.w3.org/2000/svg"><path d="M10 .5C4.473.5 0 4.973 0 10.5s4.473 10 10 10 10-4.473 10-10-4.473-10-10-10zm0 18.438A8.433 8.433 0 011.562 10.5 8.433 8.433 0 0110 2.062a8.433 8.433 0 018.438 8.438A8.433 8.433 0 0110 18.938z"/><path d="M10 5.535a.781.781 0 00-.781.781v5.031a.781.781 0 101.562 0v-5.03A.781.781 0 0010 5.534zM10 15.191a1.055 1.055 0 100-2.109 1.055 1.055 0 000 2.11z"/></svg><svg viewBox="0 0 20 21" id="basket" xmlns="http://www.w3.org/2000/svg"><path d="M8 4h4a2 2 0 10-4 0zM6.5 4a3.5 3.5 0 117 0h5.75a.75.75 0 110 1.5h-1.32l-1.17 12.111A3.75 3.75 0 0113.026 21H6.974a3.75 3.75 0 01-3.733-3.389L2.07 5.5H.75a.75.75 0 010-1.5H6.5zm2 4.75a.75.75 0 00-1.5 0v7.5a.75.75 0 101.5 0v-7.5zM12.25 8a.75.75 0 01.75.75v7.5a.75.75 0 11-1.5 0v-7.5a.75.75 0 01.75-.75zm-7.516 9.467a2.25 2.25 0 002.24 2.033h6.052a2.25 2.25 0 002.24-2.033L16.424 5.5H3.576l1.158 11.967z"/></svg><svg fill="none" viewBox="0 0 24 24" id="bg" xmlns="http://www.w3.org/2000/svg"><path d="M21.667 2H4.333A2.336 2.336 0 002 4.333v15.334A2.336 2.336 0 004.333 22h17.334c.184 0 .333-.15.333-.333V2.333A.333.333 0 0021.667 2zm-19 16.035V4.333a1.669 1.669 0 011.666-1.666h17v14.666h-17a2.303 2.303 0 00-1.648.684l-.018.018zm18.666 3.298h-17a1.669 1.669 0 01-1.666-1.666A1.67 1.67 0 014.333 18h17v3.333z"/><rect x="5.65" y="5.65" width="12.7" height="5.7" rx="1.35"/></svg><svg viewBox="0 0 28 28" id="block" xmlns="http://www.w3.org/2000/svg"><path d="M14 0C6.28 0 0 6.28 0 14s6.281 14 14 14c7.72 0 14-6.28 14-14S21.72 0 14 0zm0 1.95c2.862 0 5.493 1.003 7.563 2.675L4.625 21.563A11.994 11.994 0 011.949 14C1.95 7.356 7.355 1.949 14 1.949zm0 24.1a12.002 12.002 0 01-8.031-3.074L22.976 5.97a12.003 12.003 0 013.075 8.032c0 6.644-5.406 12.05-12.051 12.05z"/></svg><svg viewBox="0 0 20 30" id="bookmark" xmlns="http://www.w3.org/2000/svg"><path d="M1.606 28.978c-.47-.267-.757-.795-.756-1.363m.756 1.363l1.47-.12L10 23.374l6.924 5.482.093-.117-.093.117c.428.34.997.387 1.47.12.469-.267.756-.795.756-1.362V1.692c0-.45-.334-.842-.777-.842H1.627c-.443 0-.777.391-.777.842v25.923m.756 1.363c.473.267 1.042.22 1.47-.12l-1.47.12zM.85 27.615H1 .85zm9.608-5.963a.73.73 0 00-.916 0l-7.138 5.653V2.535h15.192v24.77l-7.138-5.653z"/></svg><svg viewBox="0 0 16 21" id="bookmark2" xmlns="http://www.w3.org/2000/svg"><path d="M1 20V3a2 2 0 012-2h10a2 2 0 012 2v17l-7-5.429L1 20z"/></svg><svg viewBox="0 0 24 24" fill-rule="evenodd" clip-rule="evenodd" stroke-linejoin="round" stroke-miterlimit="2" id="burger" xmlns="http://www.w3.org/2000/svg"><path d="M4 6.75h16a.75.75 0 000-1.5H4a.75.75 0 000 1.5zM4 12.75h16a.75.75 0 000-1.5H4a.75.75 0 000 1.5zM4 18.75h16a.75.75 0 000-1.5H4a.75.75 0 000 1.5z"/></svg><svg viewBox="0 0 30 29" id="calc" xmlns="http://www.w3.org/2000/svg"><path d="M28.416 13.918c.327 0 .584.257.584.583a.578.578 0 01-.584.584h-.583v-1.167h.583zM15.583 13.918h12.25v1.167h-12.25v-1.167z"/><path d="M26.083 28.5H15a.578.578 0 00.583-.583v-.584h10.5c.969 0 1.75-.781 1.75-1.75v-10.5h.584A.578.578 0 0029 14.5v11.083a2.918 2.918 0 01-2.917 2.917zM29 3.417V14.5a.578.578 0 00-.583-.583h-.584v-10.5c0-.969-.781-1.75-1.75-1.75h-10.5v-.584A.578.578 0 0015 .5h11.083A2.918 2.918 0 0129 3.417z"/><path d="M24.333 7.5c.327 0 .583.257.583.583a.578.578 0 01-.583.584h-4.667a.578.578 0 01-.583-.584c0-.326.257-.583.583-.583h4.667zM24.333 19.168c.327 0 .583.257.583.583a.578.578 0 01-.583.584h-4.667a.578.578 0 01-.583-.584c0-.326.257-.583.583-.583h4.667zM24.333 22.668c.327 0 .583.257.583.583a.578.578 0 01-.583.584h-4.667a.578.578 0 01-.583-.584c0-.326.257-.583.583-.583h4.667zM15.584 27.332v.583A.578.578 0 0115 28.5a.578.578 0 01-.583-.584v-.583h1.167zM14.417 15.082h1.167v12.25h-1.167v-12.25z"/><path d="M14.417 13.918h1.167v1.167h-1.167v-1.167zM14.417 1.668h1.167v12.25h-1.167V1.668zM15.584 1.083v.584h-1.167v-.584c0-.326.257-.583.583-.583.327 0 .584.257.584.583zM2.167 13.918h12.25v1.167H2.167v-1.167zM10.333 7.5c.327 0 .583.257.583.583a.578.578 0 01-.583.584h-1.75V7.5h1.75zM10.158 22.842a.564.564 0 010 .816.547.547 0 01-.408.175.547.547 0 01-.408-.175L8 22.317l.817-.817 1.341 1.342zM9.342 19.343a.564.564 0 01.816 0 .564.564 0 010 .817L8.817 21.5 8 20.685l1.342-1.342zM7.18 21.5l.816-.817.817.817-.817.817-.816-.817zM8.584 8.668v1.75a.578.578 0 01-.584.583.578.578 0 01-.583-.583v-1.75h1.167z"/><path d="M7.417 7.5h1.167v1.167H7.417V7.5z"/><path d="M8.584 5.751v1.75H7.417v-1.75c0-.326.257-.583.583-.583.327 0 .584.257.584.583zM8 20.685l-.816.816-1.342-1.341a.564.564 0 010-.817.564.564 0 01.817 0L8 20.685zM7.416 7.5v1.167h-1.75a.578.578 0 01-.583-.584c0-.326.257-.583.583-.583h1.75z"/><path d="M6.659 23.658a.547.547 0 01-.409.175.547.547 0 01-.408-.175.564.564 0 010-.816L7.184 21.5l.816.817-1.341 1.341zM2.167 13.918v1.167h-.584A.578.578 0 011 14.5c0-.326.257-.583.583-.583h.584z"/><path d="M1 3.417A2.918 2.918 0 013.917.5H15a.578.578 0 00-.583.583v.584h-10.5c-.969 0-1.75.781-1.75 1.75v10.5h-.584A.578.578 0 001 14.5V3.417zM2.167 25.583c0 .969.781 1.75 1.75 1.75h10.5v.584c0 .326.256.583.583.583H3.917A2.918 2.918 0 011 25.583V14.5c0 .327.257.583.583.583h.584v10.5z"/></svg><svg viewBox="0 0 24 24" id="calendar" xmlns="http://www.w3.org/2000/svg"><path d="M8.719 21.14h6.562a.703.703 0 00.703-.703V19.5c0-1.461-.79-2.74-1.967-3.434a2.802 2.802 0 00.796-1.957A2.816 2.816 0 0012 11.297a2.816 2.816 0 00-2.813 2.812c0 .76.304 1.45.796 1.957A3.986 3.986 0 008.016 19.5v.938c0 .388.314.703.703.703zm1.875-7.03c0-.776.63-1.407 1.406-1.407.775 0 1.406.631 1.406 1.406 0 .776-.63 1.407-1.406 1.407-.775 0-1.406-.631-1.406-1.407zM9.422 19.5A2.581 2.581 0 0112 16.922a2.581 2.581 0 012.578 2.578v.234H9.422V19.5z"/><path d="M21.422 2.813h-.103a3.863 3.863 0 00-.703-1.708C20.09.403 19.341 0 18.563 0c-.78 0-1.528.403-2.054 1.105-.36.48-.6 1.07-.703 1.708h-1.05a3.864 3.864 0 00-.702-1.708C13.527.403 12.78 0 12 0c-.779 0-1.527.403-2.054 1.105-.36.48-.6 1.07-.702 1.708h-1.05a3.864 3.864 0 00-.702-1.708C6.965.403 6.216 0 5.438 0c-.78 0-1.528.403-2.055 1.105-.36.48-.6 1.07-.702 1.708h-.103A2.581 2.581 0 000 5.39v16.03A2.581 2.581 0 002.578 24h18.844A2.581 2.581 0 0024 21.422V5.39a2.581 2.581 0 00-2.578-2.579zm-2.86-1.407c.6 0 1.125.597 1.323 1.407H17.24c.198-.81.724-1.407 1.323-1.407zm-6.562 0c.599 0 1.124.597 1.322 1.407h-2.644c.197-.81.723-1.407 1.322-1.407zm-6.563 0c.6 0 1.125.597 1.323 1.407H4.115c.198-.81.724-1.407 1.322-1.407zm-4.03 3.985c0-.647.525-1.172 1.171-1.172h.103c.102.637.343 1.228.702 1.707.527.702 1.276 1.105 2.054 1.105a.703.703 0 000-1.406c-.598 0-1.124-.596-1.322-1.406h5.129c.102.637.342 1.228.702 1.707.527.702 1.275 1.105 2.054 1.105a.703.703 0 000-1.406c-.599 0-1.124-.596-1.322-1.406h5.128c.102.637.343 1.228.702 1.707.527.702 1.276 1.105 2.055 1.105a.703.703 0 000-1.406c-.6 0-1.125-.596-1.323-1.406h4.182c.646 0 1.172.525 1.172 1.172v3.046H1.406V5.392zm21.187 16.03c0 .647-.526 1.173-1.172 1.173H2.578a1.173 1.173 0 01-1.172-1.172V9.844h21.188v11.578z"/></svg><svg viewBox="0 0 28 28" id="camera" xmlns="http://www.w3.org/2000/svg"><path d="M23.835 6.385h-3.722l-.433-1.27a3.09 3.09 0 00-1.15-1.532A3.211 3.211 0 0016.676 3h-5.354c-.665 0-1.313.204-1.852.583-.539.38-.941.916-1.15 1.532l-.434 1.27H4.165c-.84 0-1.644.326-2.237.906A3.057 3.057 0 001 9.475v12.438c.002.819.336 1.604.93 2.182A3.208 3.208 0 004.164 25h19.673a3.208 3.208 0 002.235-.907c.593-.58.926-1.364.927-2.183V9.47a3.057 3.057 0 00-.93-2.182 3.208 3.208 0 00-2.235-.904zm1.432 15.525c0 .37-.152.726-.42.988-.269.262-.633.41-1.012.41H4.165c-.38 0-.743-.148-1.012-.41a1.383 1.383 0 01-.42-.988V9.47c.002-.37.153-.724.421-.985a1.451 1.451 0 011.011-.41h4.346a.881.881 0 00.507-.159.848.848 0 00.315-.419l.632-1.85c.095-.279.277-.52.52-.692.245-.172.537-.264.838-.264h5.354c.3 0 .594.092.838.264.243.172.426.414.52.692l.632 1.85a.848.848 0 00.315.419.88.88 0 00.507.16h4.346c.38 0 .743.148 1.012.41.268.262.42.617.42.988V21.91z"/><path d="M14 8.75a6.562 6.562 0 106.563 6.563A6.57 6.57 0 0014 8.75zm0 11.375a4.813 4.813 0 110-9.625 4.813 4.813 0 010 9.625zM22.75 11.375a.875.875 0 100-1.75.875.875 0 000 1.75z"/></svg><svg fill="none" viewBox="0 0 28 28" id="case" xmlns="http://www.w3.org/2000/svg"><path d="M25.5 12.797c-.34 0-.704-.093-.704.248v9.342c0 .341-.227.568-.568.568H3.773c-.341 0-.568-.227-.568-.568v-9.342c0-.341-.705-1.25-.705-.25-.34 0-.432-.592-.432-.252v9.844c0 .966.739 1.705 1.705 1.705h20.455c.966 0 1.705-.739 1.705-1.705v-9.842c0-.34-.091.252-.432.252z" fill="#8E8E8E"/><path d="M24.796 6.477H3.205c-.966 0-1.705.738-1.705 1.704v3.637c0 .795.568 1.477 1.307 1.647l8.92 1.99v1.817c0 .341.228.569.569.569h3.409c.341 0 .568-.228.568-.569v-1.818l8.921-1.989a1.706 1.706 0 001.307-1.647V8.18c0-.966-.739-1.704-1.705-1.704zm-9.66 10.227h-2.272v-2.273h2.273v2.273zm10.229-4.886c0 .284-.171.511-.455.568l-8.637 1.932v-.455c0-.34-.227-.568-.568-.568h-3.41c-.34 0-.567.227-.567.568v.455L3.09 12.386a.553.553 0 01-.455-.568V8.18c0-.34.228-.568.569-.568h21.591c.341 0 .569.227.569.568v3.637z" fill="#8E8E8E"/><path d="M16.842 4H11.16c-.966 0-1.705.739-1.705 1.705v.568c0 .34.227.568.568.568.341 0 .568-.227.568-.568v-.568c0-.341.228-.569.569-.569h5.682c.34 0 .568.228.568.569v.568c0 .34.227.568.568.568.341 0 .568-.227.568-.568v-.568c0-.966-.738-1.705-1.704-1.705z" fill="#8E8E8E"/></svg><svg viewBox="0 0 25 17" id="chat" xmlns="http://www.w3.org/2000/svg"><path d="M.824.559h23.72v2.99H.825V.56zM.824 6.941h23.72v2.991H.825v-2.99zM.824 13.328h23.72v2.991H.825v-2.99z"/></svg><svg viewBox="0 0 10 7" id="check" xmlns="http://www.w3.org/2000/svg"><path d="M3.84 6.193a.56.56 0 01-.393-.164L.837 3.388a.498.498 0 01.024-.723.554.554 0 01.76.023L3.834 4.93 8.351.23a.532.532 0 01.376-.19.563.563 0 01.403.13.513.513 0 01.177.369.49.49 0 01-.161.375l-4.91 5.11a.537.537 0 01-.391.168h-.006z" fill="#fff"/></svg><svg fill="none" viewBox="0 0 28 29" id="circle" xmlns="http://www.w3.org/2000/svg"><g clip-path="url(#asclip0_112_18224)"><circle cx="14" cy="14.5" r="13.25"/><path d="M16.8 11h-6.3l3 3.208-3 3.792h6.3"/></g><defs><clipPath id="asclip0_112_18224"><path fill="#fff" transform="translate(0 .5)" d="M0 0h28v28H0z"/></clipPath></defs></svg><svg fill="none" viewBox="0 0 41 40" id="circle1" xmlns="http://www.w3.org/2000/svg"><g clip-path="url(#atclip0_403_29177)" stroke-width="1.5"><circle cx="20.5" cy="20" r="10.25" stroke="#EBF4E5"/><circle cx="20.5" cy="20" r="13.25" stroke="#EBF4E5"/><circle cx="20.5" cy="20" r="16.25" stroke="#EBF4E5"/><circle cx="20.5" cy="20" r="19.25" stroke="#EBF4E5"/><circle cx="20.5" cy="20" r="7.25" stroke="#86BB64"/></g><defs><clipPath id="atclip0_403_29177"><path fill="#fff" transform="translate(.5)" d="M0 0h40v40H0z"/></clipPath></defs></svg><svg fill="none" viewBox="0 0 41 40" id="circle2" xmlns="http://www.w3.org/2000/svg"><g clip-path="url(#auclip0_403_29219)" stroke-width="1.5"><circle cx="20.5" cy="20" r="10.25" stroke="#86BB64"/><circle cx="20.5" cy="20" r="13.25" stroke="#EBF4E5"/><circle cx="20.5" cy="20" r="16.25" stroke="#EBF4E5"/><circle cx="20.5" cy="20" r="19.25" stroke="#EBF4E5"/><circle cx="20.5" cy="20" r="7.25" stroke="#86BB64"/></g><defs><clipPath id="auclip0_403_29219"><path fill="#fff" transform="translate(.5)" d="M0 0h40v40H0z"/></clipPath></defs></svg><svg fill="none" viewBox="0 0 41 40" id="circle3" xmlns="http://www.w3.org/2000/svg"><g clip-path="url(#avclip0_403_20856)" stroke-width="1.5"><circle cx="20.5" cy="20" r="10.25" stroke="#86BB64"/><circle cx="20.5" cy="20" r="13.25" stroke="#86BB64"/><circle cx="20.5" cy="20" r="16.25" stroke="#EBF4E5"/><circle cx="20.5" cy="20" r="19.25" stroke="#EBF4E5"/><circle cx="20.5" cy="20" r="7.25" stroke="#86BB64"/></g><defs><clipPath id="avclip0_403_20856"><path fill="#fff" transform="translate(.5)" d="M0 0h40v40H0z"/></clipPath></defs></svg><svg fill="none" viewBox="0 0 41 40" id="circle4" xmlns="http://www.w3.org/2000/svg"><g clip-path="url(#awclip0_403_29271)" stroke-width="1.5"><circle cx="20.5" cy="20" r="7.25" stroke="#86BB64"/><circle cx="20.5" cy="20" r="10.25" stroke="#86BB64"/><circle cx="20.5" cy="20" r="13.25" stroke="#86BB64"/><circle cx="20.5" cy="20" r="16.25" stroke="#86BB64"/><circle cx="20.5" cy="20" r="19.25" stroke="#EBF4E5"/></g><defs><clipPath id="awclip0_403_29271"><path fill="#fff" transform="translate(.5)" d="M0 0h40v40H0z"/></clipPath></defs></svg><svg fill="none" viewBox="0 0 41 40" id="circle5" xmlns="http://www.w3.org/2000/svg"><g clip-path="url(#axclip0_403_29354)" stroke="#86BB64" stroke-width="1.5"><circle cx="20.5" cy="20" r="10.25"/><circle cx="20.5" cy="20" r="13.25"/><circle cx="20.5" cy="20" r="16.25"/><circle cx="20.5" cy="20" r="19.25"/><circle cx="20.5" cy="20" r="7.25"/></g><defs><clipPath id="axclip0_403_29354"><path fill="#fff" transform="translate(.5)" d="M0 0h40v40H0z"/></clipPath></defs></svg><svg fill="none" viewBox="0 0 15 16" id="clock" xmlns="http://www.w3.org/2000/svg"><path d="M7.5 14.665a6.667 6.667 0 100-13.333 6.667 6.667 0 000 13.333z"/><path d="M9.5 10.667l-1.61-1.61c-.25-.25-.39-.589-.39-.942V4"/></svg><svg viewBox="0 0 16 16" fill="none" id="close" xmlns="http://www.w3.org/2000/svg"><path d="M.646 14.672L14.672.646M1.583.646l14.025 14.026"/></svg><svg fill="none" viewBox="0 0 32 33" id="clusster" xmlns="http://www.w3.org/2000/svg"><path d="M9.128 8.168c2.813.607 4.642 3.33 4.195 6.182a16.952 16.952 0 00-2.173-1.204 3.161 3.161 0 00-2.468-2.754 2.933 2.933 0 00-.662-.069c-1.488 0-2.776 1.07-3.08 2.524a3.162 3.162 0 00.435 2.388 3.096 3.096 0 001.985 1.38c.233.053.456.068.66.068a3.03 3.03 0 001.65-.49 14.026 14.026 0 011.61 1.653 5.325 5.325 0 01-4.366.992c-2.903-.625-4.758-3.502-4.148-6.451.61-2.944 3.472-4.818 6.362-4.219z"/><path d="M14.57 19.462c-.639-1.372-1.558-2.64-2.627-3.745a15.654 15.654 0 012.414 1.78l.36.325a10.112 10.112 0 00-.147 1.64zM9.19 13.666a.712.712 0 00-.056.264l-.126.199a1.18 1.18 0 01-.987.562c-.068 0-.143-.007-.24-.027a1.197 1.197 0 01-.901-1.414l.002-.008a1.167 1.167 0 011.391-.909c.601.137 1.004.719.917 1.333zm6.338 1.634c-.098.198-.188.4-.271.606a13.043 13.043 0 01.001-2.985c.025.74.11 1.532.27 2.379zm1.4-7.642l-.177-.152a.937.937 0 01-.265-1.087l.002-.003a.913.913 0 011.193-.486l.008.004a.96.96 0 01.487 1.257l-.003.005a.913.913 0 01-1.193.486l-.051-.024zM13.355 30.26c1.336-1.878 2.134-4.114 2.167-6.532a9.692 9.692 0 003.09 3.686 11.36 11.36 0 01-.717 2.928 24.687 24.687 0 00-2.728-.147c-.614 0-1.22.023-1.812.065zM30.025 25.423a8.143 8.143 0 01-5.837 2.45 8.162 8.162 0 01-4.467-1.326c-2.737-1.776-4.364-5.141-3.605-8.823a7.735 7.735 0 01.727-2.043l.003-.005c1.128-2.205 3.223-3.841 5.665-4.327 2.937-.575 5.657.41 7.501 2.287l-.92.645-.004.002c-1.014.718-2.285.96-3.43.587l-.009-.003a4.958 4.958 0 00-2.442-.125h-.004c-2 .408-3.58 2.133-3.828 4.175-.367 2.964 1.924 5.506 4.813 5.506.517 0 1.028-.077 1.501-.236 1.145-.377 2.468-.067 3.55.686l.786.55z"/><mask id="baa" fill="#fff"><path d="M16.408 10.719a4 4 0 10-1.856-1.01l.828-.861a2.805 2.805 0 111.302.708l-.274 1.163z"/></mask><path d="M16.408 10.719a4 4 0 10-1.856-1.01l.828-.861a2.805 2.805 0 111.302.708l-.274 1.163z" mask="url(#baa)"/></svg><svg fill="none" viewBox="0 0 16 20" id="copy" xmlns="http://www.w3.org/2000/svg"><path d="M14.277 2.918h-1.229V1.706c0-.94-.774-1.706-1.723-1.706H1.723C.774 0 0 .766 0 1.706v13.667c0 .94.774 1.706 1.723 1.706h1.229v1.215c0 .94.774 1.706 1.723 1.706h9.602c.949 0 1.723-.767 1.723-1.706V4.624c0-.94-.771-1.706-1.723-1.706zM.91 15.37V1.706c0-.446.365-.808.816-.808h9.6c.452 0 .817.362.817.808v13.667a.811.811 0 01-.816.807H1.723a.815.815 0 01-.812-.81zm14.181 2.921a.811.811 0 01-.816.808h-9.6a.811.811 0 01-.816-.808v-1.215h7.465c.949 0 1.723-.767 1.723-1.706V3.817h1.229c.45 0 .815.36.815.807V18.29z" fill="#fff"/></svg><svg viewBox="0 0 22 21" id="decline" xmlns="http://www.w3.org/2000/svg"><path d="M10.98 20.826a10.311 10.311 0 01-7.314-3.025c-4.034-4.033-4.034-10.596 0-14.63A10.277 10.277 0 0110.98.141c2.763 0 5.361 1.076 7.314 3.03a10.278 10.278 0 013.03 7.315c0 2.764-1.075 5.361-3.03 7.315a10.311 10.311 0 01-7.315 3.025zm0-19.03A8.63 8.63 0 004.837 4.34a8.633 8.633 0 00-2.545 6.145c0 2.322.904 4.503 2.545 6.145 3.388 3.388 8.902 3.39 12.289 0a8.634 8.634 0 002.546-6.145 8.632 8.632 0 00-2.546-6.145 8.634 8.634 0 00-6.144-2.545z"/><path d="M5.429 11.073a.827.827 0 01.585-1.413h9.93a.828.828 0 010 1.655h-9.93a.822.822 0 01-.585-.242z"/></svg><svg fill="none" viewBox="0 0 21 22" id="del2" xmlns="http://www.w3.org/2000/svg"><path d="M9.624 11.07a4.785 4.785 0 100-9.57 4.785 4.785 0 000 9.57zM14.409 20.64H3.179a1.914 1.914 0 01-1.9-2.151l.374-2.99a2.871 2.871 0 012.85-2.515h.336m8.613 1.914h5.742"/></svg><svg viewBox="0 0 24 24" id="dots" xmlns="http://www.w3.org/2000/svg"><path d="M6.743 11.835a2.17 2.17 0 10-4.338 0 2.17 2.17 0 004.338 0zM14.335 11.835a2.17 2.17 0 10-4.338 0 2.17 2.17 0 004.338 0zM21.928 11.835a2.17 2.17 0 10-4.339 0 2.17 2.17 0 004.339 0z"/></svg><svg viewBox="0 0 14 21" id="download" xmlns="http://www.w3.org/2000/svg"><path d="M6.411 16.923c.02.02.04.038.061.055l.03.022.036.026.036.022.034.02c.012.007.025.012.038.018l.036.017.037.014.04.014.038.01.04.01.045.006.036.006c.055.005.11.005.165 0l.036-.006.044-.006.042-.01.038-.01.04-.014.037-.014c.012-.005.024-.01.036-.017.012-.005.025-.011.037-.018l.034-.02.036-.022c.013-.008.024-.017.036-.026l.03-.022a.827.827 0 00.06-.055l5.834-5.834a.833.833 0 00-1.178-1.178l-4.411 4.41V1.334a.833.833 0 10-1.667 0v12.989L1.757 9.91a.833.833 0 10-1.179 1.178l5.833 5.834zM12.834 18.832H1.167a.833.833 0 000 1.667h11.667a.833.833 0 100-1.667z"/></svg><svg viewBox="0 0 20 21" id="earth" xmlns="http://www.w3.org/2000/svg"><path d="M10 .5a10 10 0 1010 10 10.011 10.011 0 00-10-10zm0 18.667c-1.377 0-2.818-1.775-3.533-4.667h7.066c-.715 2.892-2.156 4.667-3.533 4.667zm-3.804-6a18.24 18.24 0 010-5.334h7.608c.132.883.198 1.774.196 2.667.002.893-.064 1.784-.196 2.667H6.196zM1.333 10.5c0-.906.144-1.806.424-2.667h3.1a18.743 18.743 0 000 5.334h-3.1a8.627 8.627 0 01-.424-2.667zM10 1.833c1.377 0 2.818 1.775 3.533 4.667H6.467C7.182 3.608 8.623 1.833 10 1.833zm5.143 6h3.1a8.601 8.601 0 010 5.334h-3.1a18.9 18.9 0 00.19-2.667 18.9 18.9 0 00-.19-2.667zM17.68 6.5h-2.778a11.177 11.177 0 00-1.712-4.05 8.709 8.709 0 014.49 4.05zM6.809 2.45A11.177 11.177 0 005.097 6.5H2.32a8.709 8.709 0 014.49-4.05zM2.319 14.5h2.778c.297 1.45.879 2.827 1.712 4.05a8.709 8.709 0 01-4.49-4.05zm10.872 4.05a11.177 11.177 0 001.712-4.05h2.778a8.709 8.709 0 01-4.49 4.05z"/></svg><svg viewBox="0 0 25 25" id="emoji" xmlns="http://www.w3.org/2000/svg"><path d="M16.146 11.458a1.563 1.563 0 100-3.125 1.563 1.563 0 000 3.125zm-5.73-1.562a1.563 1.563 0 11-3.125 0 1.563 1.563 0 013.126 0zM6.593 15.76a.781.781 0 011.083.204l.01.012.045.062c.044.056.115.141.212.247.194.212.491.5.893.789.8.576 2.01 1.155 3.665 1.155 1.654 0 2.865-.579 3.665-1.155.402-.289.7-.577.893-.789.091-.099.177-.202.259-.309l.007-.01a.781.781 0 111.292.88h-.003v.003l-.003.003-.007.01-.023.033a5.75 5.75 0 01-.37.446 7.43 7.43 0 01-1.133 1.002c-1.01.726-2.533 1.449-4.577 1.449s-3.567-.723-4.577-1.45c-.41-.294-.79-.63-1.133-1.001a5.729 5.729 0 01-.392-.478l-.008-.01-.002-.004-.002-.002v-.001a.781.781 0 01.206-1.086zM12.5 0C5.597 0 0 5.597 0 12.5S5.597 25 12.5 25 25 19.403 25 12.5 19.403 0 12.5 0zM1.562 12.5C1.563 6.46 6.46 1.562 12.5 1.562c6.04 0 10.938 4.897 10.938 10.938 0 6.04-4.897 10.938-10.938 10.938-6.04 0-10.938-4.897-10.938-10.938z"/></svg><svg fill="none" viewBox="0 0 24 23" id="exit" xmlns="http://www.w3.org/2000/svg"><path d="M14.5 2H9a5 5 0 00-5 5v8a5 5 0 005 5h5.5M9 10.5h11M16 6.5l4 4-4 4"/></svg><svg viewBox="0 0 20 16" id="eye" xmlns="http://www.w3.org/2000/svg"><path d="M12.483 8.36l1.136-1.136c.083.31.131.632.131.967a3.754 3.754 0 01-3.75 3.75c-.335 0-.658-.048-.967-.13l1.135-1.137a2.489 2.489 0 002.315-2.314zm7.438-.472c-.077-.138-1.167-2.049-3.298-3.668l-.91.91a12.51 12.51 0 012.927 3.062c-.741 1.128-3.647 5-8.64 5a9.185 9.185 0 01-2.1-.25L6.873 13.97c.944.29 1.982.471 3.127.471 6.543 0 9.786-5.703 9.921-5.946a.624.624 0 000-.607zm-2.604-6.13l-13.75 13.75a.623.623 0 01-.884 0 .625.625 0 010-.883l1.75-1.75C1.603 11.168.167 8.655.079 8.495a.625.625 0 010-.607C.214 7.645 3.457 1.94 10 1.94c1.692 0 3.157.386 4.41.957L16.433.875a.625.625 0 11.884.883zM5.365 11.943l1.582-1.582a3.725 3.725 0 01-.697-2.17A3.754 3.754 0 0110 4.441c.809 0 1.556.26 2.17.697l1.279-1.28A9.203 9.203 0 0010 3.192c-4.993 0-7.899 3.872-8.64 5 .47.712 1.823 2.517 4.005 3.752zm2.49-2.49l3.407-3.407c-.372-.22-.8-.355-1.262-.355a2.503 2.503 0 00-2.5 2.5c0 .463.135.89.354 1.262z"/></svg><svg viewBox="0 0 18 12" id="eye2" xmlns="http://www.w3.org/2000/svg"><path d="M17.639 5.658c-.157-.213-3.882-5.236-8.64-5.236C4.243.422.518 5.445.362 5.658a.577.577 0 000 .681c.156.214 3.881 5.237 8.639 5.237 4.757 0 8.482-5.023 8.639-5.237a.577.577 0 000-.68zm-8.64 4.764c-3.504 0-6.539-3.334-7.437-4.424C2.459 4.908 5.488 1.576 9 1.576c3.504 0 6.54 3.333 7.438 4.423-.897 1.09-3.926 4.423-7.438 4.423z"/><path d="M8.999 2.54A3.466 3.466 0 005.537 6 3.466 3.466 0 009 9.463a3.466 3.466 0 003.461-3.461A3.466 3.466 0 009 2.539zm0 5.768A2.31 2.31 0 016.69 6.001a2.31 2.31 0 012.308-2.308A2.31 2.31 0 0111.306 6 2.31 2.31 0 019 8.308z"/></svg><svg viewBox="0 0 36 28" id="family" xmlns="http://www.w3.org/2000/svg"><path d="M29.002 11.03c1.354-.985 2.245-2.656 2.245-4.547C31.247 3.46 28.968 1 26.167 1c-2.802 0-5.081 2.46-5.081 5.483 0 1.89.89 3.56 2.244 4.547a8.618 8.618 0 00-2.727 1.627c-.693-.72-1.623-1.134-2.603-1.134-.98 0-1.91.414-2.602 1.133a8.622 8.622 0 00-2.727-1.627c1.352-.986 2.243-2.655 2.243-4.546C14.914 3.46 12.634 1 9.834 1c-2.802 0-5.08 2.46-5.08 5.483 0 1.891.891 3.562 2.244 4.548-3.478 1.275-5.99 4.832-5.997 9.01l-.001.02c0 1.104.582 2.734 3.352 4.228 1.975 1.064 4.688 1.864 7.847 2.313 1.853.264 3.805.398 5.801.398 1.997 0 3.949-.134 5.802-.398 3.158-.449 5.871-1.249 7.846-2.313C34.418 22.795 35 21.165 35 20.06c0-4.186-2.514-7.751-5.998-9.03zm-6.583-4.547c0-2.23 1.681-4.044 3.748-4.044 2.066 0 3.747 1.814 3.747 4.044 0 2.23-1.681 4.044-3.747 4.044-2.067 0-3.748-1.814-3.748-4.044zm-6.408 7.603c.453-.704 1.196-1.124 1.989-1.124.793 0 1.537.42 1.99 1.124.283.439.432.954.432 1.49 0 1.441-1.087 2.614-2.422 2.614-1.335 0-2.421-1.173-2.421-2.614 0-.537.149-1.052.432-1.49zM6.087 6.483c0-2.23 1.68-4.044 3.746-4.044 2.067 0 3.748 1.814 3.748 4.044 0 2.23-1.681 4.044-3.748 4.044-2.066 0-3.746-1.814-3.746-4.044zM11.62 25.06c-2.689-.442-4.984-1.148-6.672-2.058-1.681-.907-2.609-1.948-2.614-2.933v-.008c0-4.464 3.364-8.095 7.5-8.095 1.759 0 3.437.656 4.78 1.857a4.299 4.299 0 00-.369 1.753c0 1.252.53 2.374 1.36 3.118-2.33 1.023-3.98 3.49-3.985 6.366zm11.428.193A40.529 40.529 0 0118 25.56a40.52 40.52 0 01-5.047-.308v-.177c0-3.004 2.264-5.447 5.047-5.447 2.784 0 5.048 2.443 5.048 5.447v.177zm8.004-2.251c-1.688.91-3.983 1.616-6.67 2.058-.007-2.876-1.655-5.343-3.986-6.366.83-.744 1.36-1.866 1.36-3.118 0-.613-.127-1.209-.37-1.753 1.343-1.201 3.021-1.857 4.78-1.857 4.136 0 7.5 3.631 7.5 8.094 0 .988-.928 2.033-2.614 2.942z"/></svg><svg fill="none" viewBox="0 0 28 28" id="faq" xmlns="http://www.w3.org/2000/svg"><circle cx="14" cy="14" r="13"/><path d="M13.615 16.6a.577.577 0 00.57.582h.007a.576.576 0 00.576-.572l.005-.487v-.027l.003-.028c.108-.904.756-1.505 1.495-2.188.313-.288.615-.568.896-.884.948-1.07 1.113-2.45.471-3.624L13.615 16.6zm0 0l.005-.539m-.005.539l.005-.539m0 0v-.004m0 .004v-.004m0 0c0-.013 0-.027.002-.04m-.002.04l.002-.04m0 0v-.005m0 .005v-.005m0 0c.13-1.354 1.018-2.195 1.867-2.979m-1.866 2.979l1.867-2.98m0 0l.02-.017m-.02.018l.02-.018m-3.875-2.391c.142-.529.578-1.597 1.827-1.883l-1.827 1.883zm0 0a.578.578 0 01-.707.408m.707-.408l-.707.408m4.581 1.983c.273-.252.553-.511.796-.785m-.796.785l.796-.785m0 0c.323-.364.902-1.243.321-2.304m-.321 2.304l.321-2.304m0 0c-.32-.588-.863-.944-1.432-1.122a3.387 3.387 0 00-1.732-.063l3.164 1.185zm-5.698 1.106a.578.578 0 01-.408-.707c.385-1.44 1.367-2.407 2.683-2.709l-2.275 3.416zm2.276-3.416c1.85-.423 3.657.336 4.434 1.755l-4.434-1.755zM13.786 20.247l-.005-.005a.571.571 0 010-.808l.005-.004c.203-.203.608-.203.811 0l.005.005a.568.568 0 01.166.4c0 .152-.059.3-.166.412a.585.585 0 01-.817 0z"/></svg><svg viewBox="0 0 24 21" id="followers" xmlns="http://www.w3.org/2000/svg"><path d="M21.923.117H2.077A2.08 2.08 0 000 2.194v12.923a2.08 2.08 0 002.077 2.077h6.808l2.561 3.416a.692.692 0 001.108 0l2.561-3.416h6.808A2.08 2.08 0 0024 15.117V2.194A2.08 2.08 0 0021.923.117zm.692 15c0 .382-.31.692-.692.692H14.77a.692.692 0 00-.554.277L12 19.04l-2.215-2.954a.692.692 0 00-.554-.276H2.077a.693.693 0 01-.692-.693V2.194c0-.382.31-.692.692-.692h19.846c.382 0 .692.31.692.692v12.923z"/><path d="M14.287 8.483a3.453 3.453 0 001.175-2.596A3.465 3.465 0 0012 2.426 3.465 3.465 0 008.54 5.887c0 1.033.455 1.96 1.174 2.596a5.314 5.314 0 00-3.02 4.789c0 .382.31.692.692.692h9.23c.383 0 .693-.31.693-.692a5.314 5.314 0 00-3.021-4.79zM12 3.81a2.08 2.08 0 012.077 2.077A2.08 2.08 0 0112 7.964a2.08 2.08 0 01-2.077-2.077A2.08 2.08 0 0112 3.81zm-3.862 8.77A3.93 3.93 0 0112 9.349a3.93 3.93 0 013.862 3.23H8.138z"/></svg><svg fill="none" viewBox="0 0 24 24" id="fon" xmlns="http://www.w3.org/2000/svg"><path d="M21.667 2H4.333A2.336 2.336 0 002 4.333v15.334A2.336 2.336 0 004.333 22h17.334c.184 0 .333-.15.333-.333V2.333A.333.333 0 0021.667 2zm-19 16.035V4.333a1.669 1.669 0 011.666-1.666h17v14.666h-17a2.303 2.303 0 00-1.648.684l-.018.018zm18.666 3.298h-17a1.669 1.669 0 01-1.666-1.666A1.67 1.67 0 014.333 18h17v3.333z" fill="#292929"/><rect x="5.65" y="5.65" width="12.7" height="5.7" rx="1.35"/></svg><svg viewBox="0 0 36 35" id="friends" xmlns="http://www.w3.org/2000/svg"><path d="M16.857 33.849H6.94c-.281 0-.517-.296-.548-.687l-.358-4.502-.761 4.591c-.058.35-.28.598-.537.598H1.432c-.17 0-.329-.109-.433-.295a1.025 1.025 0 01-.103-.66L2.93 21.182c1.084-5.068 4.574-8.426 8.31-8.024 8.84.953 15.25 1.125 18.045.482.742-.168 1.49.287 1.908 1.165.31.652.403 1.46.256 2.216-.145.746-.513 1.367-1.008 1.703-2.182 1.479-6.62 3.83-12.232 3.354l-.803 11.077c-.029.394-.266.694-.548.694zm-9.424-1.545h8.926l.807-11.13c.03-.418.29-.736.594-.69 5.607.651 10.05-1.693 12.2-3.151.212-.143.362-.399.425-.72a1.57 1.57 0 00-.11-.951c-.178-.375-.493-.575-.811-.498-3.696.846-11.995.214-18.31-.467-3.215-.35-6.234 2.55-7.162 6.889l-1.86 10.718H4.3l1.389-8.383c.06-.367.307-.618.568-.596.268.022.486.311.516.684l.66 8.295zM12.422 11.965a5.412 5.412 0 01-5.406-5.407 5.412 5.412 0 015.406-5.406 5.412 5.412 0 015.406 5.406 5.412 5.412 0 01-5.406 5.407zm0-9.52a4.118 4.118 0 00-4.113 4.113 4.118 4.118 0 004.113 4.114 4.118 4.118 0 004.113-4.114 4.118 4.118 0 00-4.113-4.113zM24.605 12.76A4.51 4.51 0 0120.1 8.256a4.51 4.51 0 014.505-4.506 4.51 4.51 0 014.505 4.506 4.51 4.51 0 01-4.505 4.504zm0-7.801a3.3 3.3 0 00-3.297 3.297 3.3 3.3 0 003.297 3.296A3.3 3.3 0 0027.9 8.256a3.3 3.3 0 00-3.296-3.297z"/><path d="M34.53 33.85h-4.346c-.23 0-.44-.176-.536-.45l-1.046-2.98v2.652c0 .43-.265.778-.59.778H18.59c-.168 0-.328-.093-.44-.257a.947.947 0 01-.148-.603l.73-9.043c.033-.396.286-.696.588-.696.07 0 7.148-.048 12.018-3.714a.461.461 0 01.513-.046c.168.088.295.272.346.5l2.897 12.86a.984.984 0 01-.092.686c-.112.197-.288.313-.474.313zm-3.97-1.556h3.178l-2.465-10.943c-4.314 2.9-9.715 3.366-11.42 3.44l-.606 7.503h8.174V26.89c0-.364.193-.68.464-.759.268-.077.545.102.662.433l2.014 5.73z"/></svg><svg viewBox="0 0 24 24" id="friends2" xmlns="http://www.w3.org/2000/svg"><g clip-path="url(#bqclip0_650_24223)"><path d="M23.297 10.96h-1.883c-.057 0-.113.002-.17.005a5.96 5.96 0 00-1.39-.929 4.467 4.467 0 00-2.582-8.114 4.474 4.474 0 00-4.469 4.469c0 1.184.463 2.262 1.218 3.062h-3.289a4.452 4.452 0 001.218-3.062 4.474 4.474 0 00-4.469-4.47 4.474 4.474 0 00-4.469 4.47c0 1.381.631 2.619 1.62 3.44a5.935 5.935 0 00-1.877 1.135 2.562 2.562 0 00-.169-.007H.703a.703.703 0 00-.703.704v3.765c0 .388.315.703.703.703h.05v5.322c0 .388.315.703.703.703h21.088a.703.703 0 00.703-.703v-5.322h.05a.703.703 0 00.703-.703v-3.766a.703.703 0 00-.703-.703zm-.703 3.765h-1.18a1.181 1.181 0 010-2.36h1.18v2.36zm-8.385-8.334a3.066 3.066 0 013.063-3.063 3.066 3.066 0 013.062 3.063 3.066 3.066 0 01-3.062 3.062 3.066 3.066 0 01-3.063-3.062zM7.481 3.328a3.066 3.066 0 013.063 3.063A3.066 3.066 0 017.48 9.453 3.066 3.066 0 014.42 6.391 3.066 3.066 0 017.48 3.328zm-6.075 9.038h1.18c.65 0 1.18.529 1.18 1.18 0 .65-.53 1.179-1.18 1.179h-1.18v-2.36zm.753 3.765h.427a2.589 2.589 0 002.586-2.586 2.58 2.58 0 00-.916-1.972h.017a4.538 4.538 0 012.455-.714h6.698a5.964 5.964 0 00-2.13 4.57v5.321H5.173v-3.063a.703.703 0 00-1.406 0v3.063H2.159V16.13zm19.682 4.619h-1.607v-3.063a.703.703 0 00-1.406 0v3.063h-6.125v-5.322a4.574 4.574 0 017.034-3.849 2.58 2.58 0 00-.909 1.966 2.589 2.589 0 002.586 2.586h.427v4.619z"/></g><defs><clipPath id="bqclip0_650_24223"><path fill="#fff" d="M0 0h24v24H0z"/></clipPath></defs></svg><svg viewBox="0 0 21 24" id="gender" xmlns="http://www.w3.org/2000/svg"><path d="M10.825 11.561c1.588 0 2.964-.57 4.087-1.694 1.124-1.123 1.694-2.498 1.694-4.087 0-1.588-.57-2.963-1.694-4.087C13.788.57 12.413 0 10.825 0 9.237 0 7.862.57 6.738 1.693c-1.124 1.124-1.694 2.5-1.694 4.087 0 1.589.57 2.964 1.694 4.088 1.124 1.123 2.5 1.693 4.087 1.693zM7.733 2.688c.862-.862 1.873-1.282 3.092-1.282s2.23.42 3.093 1.282c.862.862 1.281 1.874 1.281 3.092 0 1.22-.419 2.23-1.281 3.093-.863.862-1.874 1.282-3.093 1.282-1.218 0-2.23-.42-3.092-1.282C6.87 8.011 6.45 6.999 6.45 5.78c0-1.218.42-2.23 1.282-3.092z"/><path d="M20.94 18.424a14.276 14.276 0 00-.195-1.516 11.953 11.953 0 00-.373-1.525 7.535 7.535 0 00-.627-1.422 5.36 5.36 0 00-.945-1.232 4.17 4.17 0 00-1.357-.853 4.695 4.695 0 00-1.734-.313c-.245 0-.482.1-.94.398-.28.184-.61.396-.978.631-.314.2-.74.388-1.266.558a5.029 5.029 0 01-1.55.25 5.032 5.032 0 01-1.548-.25c-.526-.17-.952-.357-1.265-.558-.365-.232-.694-.445-.98-.631-.457-.298-.694-.399-.94-.399-.623 0-1.206.106-1.732.315a4.166 4.166 0 00-1.358.853 5.362 5.362 0 00-.945 1.231c-.26.459-.472.937-.627 1.422-.15.47-.275.982-.373 1.525a14.181 14.181 0 00-.194 1.517c-.032.458-.048.935-.048 1.417 0 1.253.398 2.267 1.183 3.015.776.738 1.802 1.113 3.05 1.113h11.557c1.248 0 2.274-.375 3.05-1.113.785-.747 1.183-1.762 1.183-3.015 0-.483-.016-.96-.048-1.418zm-2.105 3.414c-.513.488-1.193.725-2.08.725H5.197c-.887 0-1.567-.237-2.08-.724-.502-.479-.747-1.132-.747-1.997 0-.45.015-.893.045-1.32.029-.418.088-.877.176-1.366.086-.482.196-.934.328-1.344.125-.393.297-.781.51-1.156.203-.357.436-.664.694-.91.241-.231.545-.42.903-.562a3.237 3.237 0 011.108-.214c.05.027.137.077.28.17.288.188.622.403.99.638.415.265.95.504 1.59.71.653.212 1.32.319 1.981.319.662 0 1.328-.107 1.981-.319.64-.206 1.175-.445 1.59-.71.378-.241.702-.45.991-.639.142-.092.23-.142.279-.169.404.011.777.083 1.108.214.358.142.662.331.903.562.258.246.492.553.695.91.213.374.384.764.51 1.156.131.41.242.862.328 1.344.088.49.147.949.176 1.366.03.425.045.87.045 1.32 0 .865-.245 1.518-.747 1.996z"/></svg><svg viewBox="0 0 20 19" id="gift" xmlns="http://www.w3.org/2000/svg"><path d="M18.26 4.845h-3.852c.276-.188.514-.376.68-.544a2.547 2.547 0 000-3.581c-.954-.96-2.617-.96-3.571 0-.527.53-1.929 2.685-1.735 4.125h-.088C9.887 3.405 8.487 1.25 7.96.72c-.955-.96-2.618-.96-3.57 0A2.548 2.548 0 004.387 4.3c.167.168.404.356.68.544H1.218A1.22 1.22 0 000 6.063v3.043c0 .336.272.609.608.609h.609v7.304c0 .67.546 1.217 1.217 1.217h14.608a1.22 1.22 0 001.218-1.217V9.715h.608a.609.609 0 00.609-.609V6.063a1.22 1.22 0 00-1.217-1.218zM5.252 1.578c.247-.248.575-.385.923-.385.347 0 .674.137.922.385.82.825 1.636 2.934 1.352 3.227 0 0-.051.04-.225.04-.841 0-2.447-.874-2.972-1.402a1.328 1.328 0 010-1.865zm3.878 15.44H2.434V9.716H9.13v7.304zm0-8.52H1.217V6.062H9.13v2.434zm3.25-6.92c.494-.495 1.351-.494 1.844 0 .51.514.51 1.351 0 1.865-.525.528-2.13 1.402-2.971 1.402-.175 0-.226-.038-.227-.04-.282-.293.533-2.402 1.354-3.227zm4.662 15.44h-6.695V9.716h6.695v7.304zm1.218-8.52h-7.913V6.062H18.26v2.434z"/></svg><svg viewBox="0 0 28 28" id="groups" xmlns="http://www.w3.org/2000/svg"><path d="M22.321 10.202a.715.715 0 00-.542.137c-.76.572-1.643.91-2.576.99.092-.23.166-.47.228-.715 2.53-.34 4.5-2.592 4.5-5.282 0-2.94-2.318-5.332-5.168-5.332-2.103 0-3.984 1.332-4.77 3.301h-.025C13.18 1.33 11.298 0 9.194 0 6.345 0 4.028 2.392 4.028 5.332c0 2.69 1.97 4.94 4.496 5.282.062.245.136.484.228.715a4.992 4.992 0 01-2.58-.996.722.722 0 00-.533-.139c-3.426.483-5.84 3.42-5.626 6.84V19.5c0 .141.038.279.11.399.532.894 1.793 1.566 3.748 2.003.003.065.004.13.008.196v2.737c0 .14.038.279.11.398C5.297 27.427 10.438 28 14.125 28c.53 0 1.03-.012 1.485-.033 2.18-.1 7.37-.57 8.446-2.792a.779.779 0 00.078-.34v-2.762c0-.05-.006-.098-.007-.147 2.06-.445 3.338-1.144 3.795-2.085a.78.78 0 00.078-.34v-2.493c0-3.383-2.441-6.31-5.679-6.806zM9.806 9.13c0-2.376 1.871-4.308 4.172-4.308 2.3 0 4.173 1.932 4.173 4.308 0 2.375-1.872 4.307-4.173 4.307-2.3 0-4.172-1.932-4.172-4.307zm8.958-7.608c2.036 0 3.694 1.71 3.694 3.81 0 1.786-1.217 3.3-2.839 3.702-.041-2.62-1.764-4.822-4.102-5.508.632-1.21 1.873-2.004 3.247-2.004zM5.502 5.332c0-2.1 1.656-3.81 3.692-3.81 1.373 0 2.615.794 3.25 2.003-2.34.684-4.066 2.887-4.108 5.509-1.62-.403-2.834-1.916-2.834-3.701zM22.66 24.622c-.59.793-3.135 1.646-7.115 1.827-4.695.215-9.149-.612-10.193-1.86v-2.515l-.001-.051c-.188-2.859 1.78-5.334 4.617-5.867a7.028 7.028 0 004.01 1.249 7.025 7.025 0 003.993-1.239c2.692.555 4.689 3.044 4.689 5.908v2.548zm3.866-5.341c-.278.345-1.078.792-2.581 1.132-.659-2.968-3.031-5.341-6.037-5.802a.717.717 0 00-.541.137 5.605 5.605 0 01-3.389 1.135 5.604 5.604 0 01-3.397-1.141.72.72 0 00-.534-.14c-3.16.445-5.536 2.798-6.069 5.768-1.617-.386-2.251-.859-2.49-1.123v-2.238c0-.017-.001-.035-.003-.052-.168-2.53 1.57-4.722 4.077-5.208a6.407 6.407 0 004.078 1.107c1.037 1.284 2.596 2.104 4.338 2.104s3.301-.82 4.338-2.104a6.402 6.402 0 004.067-1.098c2.381.506 4.143 2.713 4.143 5.25v2.273z"/></svg><svg fill="none" viewBox="0 0 20 20" id="heart" xmlns="http://www.w3.org/2000/svg"><circle cx="10" cy="10" r="9.6" fill="#fff"/><path d="M15.16 7.132a3.264 3.264 0 00-.714-1.04 3.332 3.332 0 00-2.34-.952A3.354 3.354 0 0010 5.884a3.353 3.353 0 00-3.391-.487 3.313 3.313 0 00-1.77 1.736 3.22 3.22 0 00-.263 1.28c0 .418.085.853.255 1.296.141.37.345.755.605 1.143.412.614.978 1.254 1.681 1.903a18.79 18.79 0 002.368 1.85l.298.19a.403.403 0 00.433 0l.297-.19a19.02 19.02 0 002.368-1.85c.704-.649 1.27-1.289 1.682-1.903.26-.388.464-.772.605-1.143.17-.443.255-.878.255-1.297a3.195 3.195 0 00-.263-1.279zM10 13.802s-4.47-2.864-4.47-5.39c0-1.28 1.058-2.317 2.364-2.317A2.37 2.37 0 0110 7.355a2.37 2.37 0 012.105-1.26c1.306 0 2.365 1.037 2.365 2.316 0 2.527-4.47 5.39-4.47 5.39z"/></svg><svg viewBox="0 0 24 25" id="image" xmlns="http://www.w3.org/2000/svg"><path d="M19.14 22.25H4.86a2.61 2.61 0 01-2.61-2.61V5.36a2.61 2.61 0 012.61-2.61h14.28a2.61 2.61 0 012.61 2.61v14.28a2.61 2.61 0 01-2.61 2.61zm-14.28-18a1.11 1.11 0 00-1.11 1.11v14.28a1.11 1.11 0 001.11 1.11h14.28a1.11 1.11 0 001.11-1.11V5.36a1.11 1.11 0 00-1.11-1.11H4.86z"/><path d="M3 19.31a.76.76 0 01-.57-.26.75.75 0 01.09-1.06l5.12-4.32a2 2 0 012.7.11l2.43 2.43a.5.5 0 00.65 0l2.36-1.71a2 2 0 012.44 0l3.25 2.59a.755.755 0 01-.94 1.18l-3.24-2.6a.5.5 0 00-.61 0l-2.36 1.83a2 2 0 01-2.61-.18l-2.43-2.48a.5.5 0 00-.67 0l-5.13 4.3a.72.72 0 01-.48.17zM15 12.25a2.75 2.75 0 110-5.5 2.75 2.75 0 010 5.5zm0-4a1.25 1.25 0 100 2.5 1.25 1.25 0 000-2.5z"/></svg><svg viewBox="0 0 28 28" id="info" xmlns="http://www.w3.org/2000/svg"><path d="M14 1.75C7.235 1.75 1.75 7.235 1.75 14S7.235 26.25 14 26.25 26.25 20.765 26.25 14 20.765 1.75 14 1.75zm0 22.422C8.384 24.172 3.828 19.616 3.828 14 3.828 8.384 8.384 3.828 14 3.828c5.616 0 10.172 4.556 10.172 10.172 0 5.616-4.556 10.172-10.172 10.172z"/><path d="M12.688 9.188a1.313 1.313 0 102.625 0 1.313 1.313 0 00-2.626 0zm1.968 3.062h-1.312a.22.22 0 00-.219.219v7.437c0 .12.098.219.219.219h1.312a.22.22 0 00.219-.219V12.47a.22.22 0 00-.219-.219z"/></svg><svg viewBox="0 0 16 14" id="like" xmlns="http://www.w3.org/2000/svg"><path d="M15.225 2.983a4.57 4.57 0 00-1-1.455A4.664 4.664 0 0010.948.196a4.695 4.695 0 00-2.949 1.038A4.695 4.695 0 005.052.195a4.664 4.664 0 00-3.276 1.333 4.543 4.543 0 00-1.37 3.246c0 .586.12 1.196.357 1.816.199.519.483 1.057.847 1.6.577.86 1.37 1.756 2.354 2.665a26.319 26.319 0 003.315 2.589l.417.267a.565.565 0 00.606 0l.417-.267a26.664 26.664 0 003.315-2.59c.985-.908 1.777-1.805 2.354-2.664a8.04 8.04 0 00.847-1.6c.238-.62.357-1.23.357-1.816a4.475 4.475 0 00-.367-1.79zM8 12.321S1.742 8.31 1.742 4.774c0-1.79 1.482-3.243 3.31-3.243 1.285 0 2.4.717 2.948 1.765a3.32 3.32 0 012.948-1.765c1.828 0 3.31 1.452 3.31 3.243C14.258 8.311 8 12.321 8 12.321z"/></svg><svg fill="none" viewBox="0 0 28 28" id="like-empty" xmlns="http://www.w3.org/2000/svg"><circle cx="14" cy="14" r="13.5"/><path d="M21.225 9.983a4.57 4.57 0 00-1-1.455 4.665 4.665 0 00-3.276-1.332 4.695 4.695 0 00-2.949 1.038 4.695 4.695 0 00-2.948-1.039 4.664 4.664 0 00-3.276 1.333 4.543 4.543 0 00-1.37 3.246c0 .586.12 1.196.357 1.816.199.519.483 1.057.847 1.6.577.86 1.37 1.756 2.354 2.665a26.315 26.315 0 003.315 2.589l.417.267a.564.564 0 00.606 0l.417-.267a26.658 26.658 0 003.315-2.59c.985-.908 1.777-1.805 2.354-2.664a8.04 8.04 0 00.847-1.6c.238-.62.357-1.23.357-1.816a4.475 4.475 0 00-.367-1.79zM14 19.321s-6.258-4.01-6.258-7.547c0-1.79 1.482-3.243 3.31-3.243 1.285 0 2.4.717 2.948 1.765a3.32 3.32 0 012.948-1.765c1.828 0 3.31 1.452 3.31 3.243 0 3.537-6.258 7.547-6.258 7.547z"/></svg><svg fill="none" viewBox="0 0 28 28" id="like-green" xmlns="http://www.w3.org/2000/svg"><circle cx="14" cy="14" r="14" fill="#86BB64"/><path d="M21.225 9.983a4.57 4.57 0 00-1-1.455 4.665 4.665 0 00-3.276-1.332 4.695 4.695 0 00-2.949 1.038 4.695 4.695 0 00-2.948-1.039 4.664 4.664 0 00-3.276 1.333 4.543 4.543 0 00-1.37 3.246c0 .586.12 1.196.357 1.816.199.519.483 1.057.847 1.6.577.86 1.37 1.756 2.354 2.665a26.315 26.315 0 003.315 2.589l.417.267a.564.564 0 00.606 0l.417-.267a26.658 26.658 0 003.315-2.59c.985-.908 1.777-1.805 2.354-2.664a8.04 8.04 0 00.847-1.6c.238-.62.357-1.23.357-1.816a4.475 4.475 0 00-.367-1.79zM14 19.321s-6.258-4.01-6.258-7.547c0-1.79 1.482-3.243 3.31-3.243 1.285 0 2.4.717 2.948 1.765a3.32 3.32 0 012.948-1.765c1.828 0 3.31 1.452 3.31 3.243 0 3.537-6.258 7.547-6.258 7.547z" fill="#fff"/></svg><svg fill="none" viewBox="0 0 28 28" id="like-white" xmlns="http://www.w3.org/2000/svg"><circle cx="14" cy="14" r="13.5" stroke="#85BB65"/><path d="M21.225 9.983a4.57 4.57 0 00-1-1.455 4.665 4.665 0 00-3.276-1.332 4.695 4.695 0 00-2.949 1.038 4.695 4.695 0 00-2.948-1.039 4.664 4.664 0 00-3.276 1.333 4.543 4.543 0 00-1.37 3.246c0 .586.12 1.196.357 1.816.199.519.483 1.057.847 1.6.577.86 1.37 1.756 2.354 2.665a26.315 26.315 0 003.315 2.589l.417.267a.564.564 0 00.606 0l.417-.267a26.658 26.658 0 003.315-2.59c.985-.908 1.777-1.805 2.354-2.664a8.04 8.04 0 00.847-1.6c.238-.62.357-1.23.357-1.816a4.475 4.475 0 00-.367-1.79zM14 19.321s-6.258-4.01-6.258-7.547c0-1.79 1.482-3.243 3.31-3.243 1.285 0 2.4.717 2.948 1.765a3.32 3.32 0 012.948-1.765c1.828 0 3.31 1.452 3.31 3.243 0 3.537-6.258 7.547-6.258 7.547z" fill="#85BB65"/></svg><svg viewBox="0 0 18 19" id="link" xmlns="http://www.w3.org/2000/svg"><path d="M3.738 7.798l-2.279 2.366A5.28 5.28 0 000 13.824a5.28 5.28 0 001.46 3.66A4.89 4.89 0 004.981 19a4.89 4.89 0 003.523-1.516l3.036-3.155a5.215 5.215 0 001.225-2.092 5.369 5.369 0 00.162-2.442 5.278 5.278 0 00-.936-2.247A5.026 5.026 0 0010.166 6l-.973 1.01a1.722 1.722 0 00-.256.344 3.3 3.3 0 011.463.91c.403.43.691.963.835 1.544.145.582.14 1.192-.012 1.771a3.482 3.482 0 01-.856 1.532l-3.034 3.153a3.261 3.261 0 01-2.35 1.012 3.261 3.261 0 01-2.35-1.012 3.521 3.521 0 01-.973-2.44c0-.916.35-1.794.973-2.442l1.317-1.366a7.19 7.19 0 01-.212-2.22v.002z"/><path d="M6.459 4.67a5.215 5.215 0 00-1.225 2.092 5.37 5.37 0 00-.162 2.443 5.28 5.28 0 00.936 2.247A5.026 5.026 0 007.834 13l1.287-1.339a3.295 3.295 0 01-1.489-.893 3.485 3.485 0 01-.859-1.547 3.58 3.58 0 010-1.786c.151-.585.448-1.119.86-1.547l3.034-3.154a3.261 3.261 0 012.35-1.011c.881 0 1.726.364 2.35 1.011.623.648.973 1.526.973 2.442 0 .915-.35 1.793-.973 2.44L14.05 8.984c.186.725.257 1.476.212 2.22l2.279-2.366A5.28 5.28 0 0018 5.177a5.28 5.28 0 00-1.46-3.66A4.89 4.89 0 0013.019 0a4.89 4.89 0 00-3.523 1.516L6.459 4.67z"/></svg><svg viewBox="0 0 16 21" id="lock" xmlns="http://www.w3.org/2000/svg"><path d="M8 0a5.882 5.882 0 00-5.906 5.906v2.625A1.934 1.934 0 00.125 10.5v8.531C.125 20.147.978 21 2.094 21h11.812a1.934 1.934 0 001.969-1.969V10.5a1.934 1.934 0 00-1.969-1.969V5.906A5.882 5.882 0 008 0zm6.563 10.5v8.531c0 .394-.263.657-.657.657H2.094c-.394 0-.656-.263-.656-.657V10.5c0-.394.262-.656.656-.656H13.906c.394 0 .656.262.656.656zM3.405 8.531V5.906A4.565 4.565 0 018 1.313a4.566 4.566 0 014.594 4.593v2.625H3.406z"/><path d="M8 11.813a1.934 1.934 0 00-1.969 1.968c0 .853.525 1.575 1.313 1.838v1.444c0 .393.262.656.656.656s.656-.263.656-.657V15.62A1.912 1.912 0 009.97 13.78 1.934 1.934 0 008 11.812zm0 2.624c-.394 0-.656-.262-.656-.656s.262-.656.656-.656.656.262.656.656-.262.656-.656.656z"/></svg><svg fill="none" viewBox="0 0 30 30" id="login" xmlns="http://www.w3.org/2000/svg"><path d="M4.494 28.996a3.51 3.51 0 01-2.477-1.014 3.53 3.53 0 01-.003-4.955l11.122-11.11a8.033 8.033 0 01-.473-2.752c0-4.503 3.664-8.169 8.168-8.169 1.09 0 2.137.208 3.11.617a.582.582 0 01.185.95l-3.559 3.56.663 2.643 2.642.663 3.56-3.56a.583.583 0 01.951.186A7.97 7.97 0 0129 9.165c0 4.503-3.664 8.169-8.169 8.169-.96 0-1.883-.16-2.75-.473L6.972 27.98a3.516 3.516 0 01-2.478 1.016zM20.83 2.163a7.009 7.009 0 00-7.002 7.002c0 .942.178 1.838.527 2.668a.585.585 0 01-.125.639L2.84 23.85c-.9.91-.9 2.395.003 3.307.909.9 2.394.899 3.306-.005l11.376-11.387a.581.581 0 01.64-.125c.826.35 1.724.527 2.665.527a7.009 7.009 0 006.766-8.812l-3.133 3.133a.58.58 0 01-.554.154l-3.303-.828a.584.584 0 01-.423-.424l-.829-3.302c-.05-.2.008-.411.153-.556L22.64 2.4a6.886 6.886 0 00-1.81-.236z"/></svg><svg viewBox="0 0 36 33" id="message" xmlns="http://www.w3.org/2000/svg"><path d="M30.766.152H5.236C2.566.152.395 2.344.395 5.038v15.77c0 2.688 2.162 4.877 4.823 4.886v7.156l10.19-7.156h15.358c2.67 0 4.841-2.192 4.841-4.886V5.038c0-2.694-2.171-4.886-4.84-4.886zm2.778 20.656c0 1.546-1.246 2.804-2.778 2.804H14.76l-7.478 5.252v-5.252H5.236c-1.532 0-2.778-1.258-2.778-2.804V5.038c0-1.546 1.246-2.803 2.778-2.803h25.53c1.532 0 2.778 1.257 2.778 2.803v15.77z"/><path d="M9.215 6.898h17.532V9.11H9.215V6.9zM9.215 11.617h17.532v2.21H9.215v-2.21zM9.215 16.336h17.532v2.21H9.215v-2.21z"/></svg><svg viewBox="0 0 22 22" id="minus" xmlns="http://www.w3.org/2000/svg"><path d="M10.98 21.326a10.311 10.311 0 01-7.314-3.025c-4.034-4.033-4.034-10.596 0-14.63A10.277 10.277 0 0110.98.641c2.763 0 5.361 1.076 7.314 3.03a10.278 10.278 0 013.03 7.315c0 2.764-1.075 5.361-3.03 7.315a10.311 10.311 0 01-7.315 3.025zm0-19.03A8.63 8.63 0 004.837 4.84a8.633 8.633 0 00-2.545 6.145c0 2.322.904 4.503 2.545 6.145 3.388 3.388 8.902 3.39 12.289 0a8.634 8.634 0 002.546-6.145 8.632 8.632 0 00-2.546-6.145 8.634 8.634 0 00-6.144-2.545z"/><path d="M5.429 11.573a.827.827 0 01.585-1.413h9.93a.829.829 0 01.586 1.413.828.828 0 01-.585.242H6.014a.822.822 0 01-.585-.242z"/></svg><svg viewBox="0 0 24 24" id="money-box" xmlns="http://www.w3.org/2000/svg"><g clip-path="url(#cgclip0_650_23049)"><path d="M11.5 9.262h1v.573h-1v-.573zM11.5 5.5h1v.573h-1V5.5zM6.5 12h11v1h-11v-1z"/><path d="M12 10.607a5.31 5.31 0 01-5.304-5.303A5.31 5.31 0 0112 0a5.31 5.31 0 015.303 5.304A5.31 5.31 0 0112 10.607zm0-9.16a3.861 3.861 0 00-3.857 3.857A3.861 3.861 0 0012 9.16a3.861 3.861 0 003.857-3.857A3.861 3.861 0 0012 1.446z"/><path d="M12.2 8.196h-1.405V6.749H12.2c.153 0 .282-.165.282-.361 0-.196-.128-.362-.282-.362h-.402c-.952 0-1.728-.81-1.728-1.808 0-.997.777-1.808 1.73-1.808h1.405v1.447H11.8c-.152 0-.281.165-.281.361 0 .196.128.362.281.362h.402c.953 0 1.728.81 1.728 1.808 0 .997-.776 1.808-1.729 1.808zM11.277 12.293h1.447v10.125h-1.447V12.293z"/><path d="M22.849 17.838h-7.41a1.697 1.697 0 01-1.446-.819l-2.612-4.354A.723.723 0 0112 11.57h7.955c.255 0 .49.134.62.351l2.893 4.822a.723.723 0 01-.62 1.095zm-9.57-4.821l1.954 3.258a.242.242 0 00.206.117h6.132l-2.025-3.375h-6.268z"/><path d="M8.562 17.838h-7.41a.725.725 0 01-.62-1.095l2.893-4.822a.723.723 0 01.62-.35H12a.725.725 0 01.62 1.095L10.01 17.02a1.7 1.7 0 01-1.447.818zM2.43 16.392h6.132a.244.244 0 00.207-.118l1.954-3.257H4.455L2.43 16.392z"/><path d="M16.644 23.144H5.01a1.69 1.69 0 01-1.688-1.688v-4.339h1.447v4.34c0 .133.108.24.24.24h11.636v1.447z"/><path d="M18.991 23.144h-2.373v-1.446h2.373a.241.241 0 00.241-.242v-4.339h1.447v4.34a1.69 1.69 0 01-1.688 1.687z"/></g><defs><clipPath id="cgclip0_650_23049"><path fill="#fff" d="M0 0h24v24H0z"/></clipPath></defs></svg><svg viewBox="0 0 22 22" id="needle" xmlns="http://www.w3.org/2000/svg"><path d="M13.742.082a.75.75 0 01.53.219l7.426 7.425a.75.75 0 010 1.06c-.72.72-1.608.883-2.255.883-.265 0-.502-.027-.69-.059l-4.7 4.701a8.9 8.9 0 01.24 1.52c.068 1.053-.049 2.53-1.08 3.562a.75.75 0 01-1.061 0l-4.244-4.242-4.773 4.773c-.292.293-1.828 1.353-2.12 1.06-.293-.292.767-1.83 1.06-2.12l4.773-4.774-4.242-4.243a.75.75 0 010-1.06c1.032-1.032 2.51-1.151 3.562-1.08.513.035 1.021.116 1.52.24l4.7-4.7c-.038-.228-.058-.46-.06-.691 0-.645.163-1.533.884-2.255a.75.75 0 01.53-.219zm.183 3.168v-.003.003zm0-.003v.003a.75.75 0 01-.183.765L8.439 9.316a.75.75 0 01-.766.18H7.67l-.021-.006a7.383 7.383 0 00-1.58-.288c-.633-.042-1.254.012-1.762.225l8.265 8.264c.211-.51.265-1.13.223-1.763a7.387 7.387 0 00-.288-1.581l-.006-.02v-.001a.75.75 0 01.18-.768l5.304-5.302a.75.75 0 01.798-.173l.144.033c.13.026.312.051.516.051.171 0 .345-.016.515-.06L13.89 2.041c-.043.17-.06.345-.06.515.001.233.032.465.093.69l.002.001z"/></svg><svg viewBox="0 0 95 75" id="new-album" xmlns="http://www.w3.org/2000/svg"><path d="M84.375 3.375h-40.5A10.125 10.125 0 0036.315 0h-26.19A10.125 10.125 0 000 10.125v54A10.125 10.125 0 0010.125 74.25h74.25A10.125 10.125 0 0094.5 64.125V13.5A10.125 10.125 0 0084.375 3.375zM87.75 27v37.125a3.375 3.375 0 01-3.375 3.375h-74.25a3.375 3.375 0 01-3.375-3.375v-54a3.375 3.375 0 013.375-3.375h26.19a3.375 3.375 0 013.038 1.856l3.003 6.042a10.124 10.124 0 009.079 5.602h32.94a3.375 3.375 0 013.375 3.375V27zm0-12.893a10.125 10.125 0 00-3.375-.607h-32.94a3.375 3.375 0 01-3.038-1.856l-.742-1.519h36.72A3.375 3.375 0 0187.75 13.5v.607zm-27 29.768a3.375 3.375 0 01-3.375 3.375h-6.75V54a3.375 3.375 0 01-6.75 0v-6.75h-6.75a3.375 3.375 0 010-6.75h6.75v-6.75a3.375 3.375 0 016.75 0v6.75h6.75a3.375 3.375 0 013.375 3.375z"/></svg><svg viewBox="0 0 23 16" id="next" xmlns="http://www.w3.org/2000/svg"><path d="M22.707 8.707a1 1 0 000-1.414L16.343.929a1 1 0 10-1.414 1.414L20.586 8l-5.657 5.657a1 1 0 001.414 1.414l6.364-6.364zM0 9h22V7H0v2z"/></svg><svg viewBox="0 0 30 33" id="notifications" xmlns="http://www.w3.org/2000/svg"><path d="M25.075 16.94v-3.057c0-4.46-2.964-8.239-7.025-9.473V3.026A2.877 2.877 0 0015.176.152a2.877 2.877 0 00-2.874 2.874V4.41c-4.061 1.234-7.025 5.014-7.025 9.473v3.056c0 3.917-1.493 7.631-4.204 10.458a.958.958 0 00.692 1.621h8.718a4.798 4.798 0 004.693 3.832 4.798 4.798 0 004.693-3.832h8.718a.958.958 0 00.691-1.62 15.042 15.042 0 01-4.203-10.459zM14.218 3.025a.959.959 0 011.916 0v1.005a9.982 9.982 0 00-1.916 0V3.026zm.958 27.908c-1.249 0-2.314-.8-2.71-1.916h5.419a2.879 2.879 0 01-2.71 1.916zM3.829 27.102A16.937 16.937 0 007.193 16.94v-3.056c0-4.402 3.581-7.983 7.983-7.983 4.402 0 7.983 3.581 7.983 7.983v3.056c0 3.7 1.182 7.239 3.363 10.163H3.83z"/></svg><svg viewBox="0 0 28 24" id="pages" xmlns="http://www.w3.org/2000/svg"><path d="M24.5.707h-21C1.568.709.002 2.139 0 3.904v16.621c.002 1.765 1.568 3.195 3.5 3.196h21c1.932-.002 3.498-1.431 3.5-3.196V3.904C27.998 2.139 26.432.709 24.5.707zm-21 1.279h21c1.16 0 2.099.859 2.1 1.918v.639H1.4v-.64c.001-1.058.94-1.916 2.1-1.917zm21 20.457h-21c-1.16-.001-2.099-.86-2.1-1.918V5.821h25.2v14.704c-.001 1.059-.94 1.917-2.1 1.918z"/><path d="M4.9 14.77h5.6a.735.735 0 00.494-.187.612.612 0 00.205-.452v-3.836a.612.612 0 00-.205-.452.734.734 0 00-.495-.187H4.9a.735.735 0 00-.495.187.613.613 0 00-.205.452v3.836c0 .17.074.332.205.452.132.12.31.188.495.188zm.7-3.835h4.2v2.557H5.6v-2.557zM23.1 9.656h-8.4c-.386 0-.7.286-.7.64 0 .352.313.639.7.639h8.4c.387 0 .7-.287.7-.64 0-.353-.313-.639-.7-.639zM23.1 13.496h-8.4c-.386 0-.7.286-.7.64 0 .352.313.639.7.639h8.4c.387 0 .7-.287.7-.64 0-.353-.313-.639-.7-.639zM23.1 17.328H4.9c-.387 0-.7.286-.7.64 0 .352.313.639.7.639h18.2c.386 0 .7-.287.7-.64 0-.353-.314-.639-.7-.639z"/></svg><svg fill="none" viewBox="0 0 20 20" id="pen" xmlns="http://www.w3.org/2000/svg"><path d="M16.848 1.825a2.448 2.448 0 00-3.46 0l-.865.87-9.218 9.214-.02.02c-.005.005-.005.01-.01.01-.01.015-.024.03-.034.044 0 .005-.005.005-.005.01-.01.014-.014.024-.024.039-.005.005-.005.01-.01.015l-.015.039c0 .005-.005.005-.005.01l-2.045 6.15a.482.482 0 00.118.5.492.492 0 00.504.117l6.145-2.05c.005 0 .005 0 .01-.005a.177.177 0 00.044-.02.017.017 0 00.01-.005c.014-.01.034-.02.048-.03.015-.009.03-.024.044-.034.005-.005.01-.005.01-.01.005-.004.015-.009.02-.019L18.174 6.606a2.448 2.448 0 000-3.46l-1.326-1.321zm-9.1 13.838l-3.406-3.406 8.523-8.524L16.27 7.14l-8.523 8.524zm-3.886-2.5l2.975 2.974-4.467 1.488 1.492-4.463zM17.484 5.92l-.519.524-3.405-3.406.523-.523a1.468 1.468 0 012.075 0l1.33 1.33a1.473 1.473 0 01-.004 2.075z" fill="#8E8E8E" stroke="#8E8E8E" stroke-width=".5"/></svg><svg viewBox="0 0 22 22" id="pencil" xmlns="http://www.w3.org/2000/svg"><path d="M19.217 1.19a2.938 2.938 0 00-4.151 0l-1.04 1.046-11.06 11.056-.024.024c-.006.005-.006.012-.012.012-.012.017-.03.035-.041.052 0 .006-.006.006-.006.012l-.03.047c-.005.006-.005.012-.011.018l-.018.047c0 .005-.006.005-.006.011L.364 20.896a.578.578 0 00.141.599.59.59 0 00.605.141l7.374-2.46c.006 0 .006 0 .012-.006a.212.212 0 00.053-.024.02.02 0 00.012-.005c.017-.012.04-.024.058-.036.018-.011.035-.029.053-.04.006-.007.012-.007.012-.013.006-.005.017-.011.023-.023l12.1-12.102a2.938 2.938 0 000-4.15l-1.59-1.586zM8.297 17.797L4.21 13.709 14.437 3.481l4.087 4.086L8.296 17.796zm-4.663-3l3.57 3.57-5.36 1.784 1.79-5.354zm16.346-8.69l-.622.628-4.087-4.087.628-.628a1.761 1.761 0 012.49 0l1.597 1.597c.682.69.68 1.802-.006 2.49z"/></svg><svg fill="none" viewBox="0 0 15 15" id="plus" xmlns="http://www.w3.org/2000/svg"><path d="M7.5 14V7.5m0 0V1m0 6.5H14m-6.5 0H1"/></svg><svg viewBox="0 0 23 16" id="prev" xmlns="http://www.w3.org/2000/svg"><path d="M.293 8.707a1 1 0 010-1.414L6.657.929A1 1 0 018.07 2.343L2.414 8l5.657 5.657a1 1 0 11-1.414 1.414L.293 8.707zM23 9H1V7h22v2z"/></svg><svg fill="none" viewBox="0 0 24 25" id="question" xmlns="http://www.w3.org/2000/svg"><circle cx="12" cy="12.5" r="10"/><path d="M11.777 17.5a.835.835 0 01-.571-.224.751.751 0 010-1.096c.3-.287.842-.287 1.141 0a.752.752 0 01.004 1.096.845.845 0 01-.575.224zM11.778 15.18h-.007c-.447-.003-.806-.353-.802-.78l.003-.388c0-.022.002-.044.004-.066.112-1.127.894-1.817 1.522-2.372.213-.188.415-.366.587-.552.209-.225.513-.688.193-1.246-.368-.644-1.267-.827-1.965-.674-.73.16-.998.756-1.094 1.097-.115.413-.56.658-.992.548-.432-.111-.688-.536-.572-.95.322-1.152 1.16-1.955 2.296-2.204 1.53-.335 3.07.257 3.747 1.44.563.985.41 2.14-.402 3.017a9.504 9.504 0 01-.7.661c-.58.514-.944.857-1.006 1.352l-.003.35c-.003.426-.365.768-.809.768z"/></svg><svg fill="none" viewBox="0 0 20 20" id="refresh" xmlns="http://www.w3.org/2000/svg"><g clip-path="url(#crclip0_219_5672)"><path d="M17.172 13.835a8.428 8.428 0 01-3.698 3.757 8.221 8.221 0 01-5.167.786 8.307 8.307 0 01-4.615-2.494c-1.24-1.32-2.03-3-2.256-4.797a8.63 8.63 0 01.986-5.223 8.41 8.41 0 013.842-3.603 8.216 8.216 0 015.195-.574c1.747.378 3.18 1.24 4.363 2.602.462.503.85 1.07 1.152 1.682"/><path d="M12.766 6.043l4.76.857.841-4.845"/></g><defs><clipPath id="crclip0_219_5672"><path fill="#fff" transform="matrix(-1 0 0 1 20 0)" d="M0 0h20v20H0z"/></clipPath></defs></svg><svg viewBox="0 0 18 18" id="rss" xmlns="http://www.w3.org/2000/svg"><path d="M2.762 17.571a1.905 1.905 0 100-3.81 1.905 1.905 0 000 3.81zM17.047 17.572c-.572 0-.952-.381-.952-.953a14.27 14.27 0 00-4.19-10.094A14.27 14.27 0 001.81 2.335c-.572 0-.953-.382-.953-.953S1.238.43 1.81.43c4.285 0 8.38 1.714 11.428 4.761 3.047 3.048 4.761 7.143 4.761 11.428 0 .572-.38.953-.952.953zM10.38 17.573c-.57 0-.952-.38-.952-.952 0-2-.762-3.905-2.19-5.428-1.524-1.429-3.428-2.19-5.428-2.19-.572 0-.953-.382-.953-.953s.381-.952.953-.952c2.571 0 4.952.952 6.761 2.761 1.81 1.81 2.762 4.19 2.762 6.762 0 .571-.381.952-.952.952z"/></svg><svg fill="none" viewBox="0 0 14 14" id="save" xmlns="http://www.w3.org/2000/svg"><g clip-path="url(#ctclip0_1177_24768)" fill="#8E8E8E"><path d="M12.133 13.61H1.866a1.287 1.287 0 01-1.283-1.283V2.061c0-.706.578-1.284 1.283-1.284h7.765c.384 0 .705.129.962.45l2.502 2.759c.193.256.321.577.321.898v7.443c0 .706-.577 1.284-1.283 1.284zM1.866 2.06v10.267h10.267V4.884L9.631 2.061H1.866z"/><path d="M9.917 13.61H4.083c-.35 0-.583-.234-.583-.584v-3.5a1.17 1.17 0 011.167-1.167h4.666A1.17 1.17 0 0110.5 9.526v3.5c0 .35-.233.583-.583.583zm-5.25-1.167h4.666V9.526H4.667v2.917zM8.75 5.444h-3.5c-.35 0-.583-.233-.583-.583s.233-.584.583-.584h3.5c.35 0 .584.234.584.584s-.234.583-.584.583z"/></g><defs><clipPath id="ctclip0_1177_24768"><path fill="#fff" d="M0 0h14v14H0z"/></clipPath></defs></svg><svg fill="none" viewBox="0 0 25 25" id="search" xmlns="http://www.w3.org/2000/svg"><path d="M23.5 23.499l-5.233-5.243 5.234 5.243zm-2.333-12.25a9.917 9.917 0 11-19.833 0 9.917 9.917 0 0119.833 0v0z" stroke="#8E8E8E" stroke-width="2" stroke-linecap="round"/></svg><svg viewBox="0 0 100 100" id="search-icon" xmlns="http://www.w3.org/2000/svg"><path d="M66.8 62.1l-.5.5-7.3-7.3c4.3-5.1 6.9-11.7 6.9-18.9 0-7.7-3.1-15.2-8.6-20.7C51.8 10.1 44.2 7 36.5 7 20.3 7 7.2 20.2 7.2 36.4c0 7.9 3.1 15.3 8.7 20.9 5.5 5.5 12.8 8.5 20.5 8.5h.2c7.2 0 13.8-2.6 18.9-6.9l7.3 7.3-.8.7c-1 1-1 2.6 0 3.5l20.8 20.8c2.3 2.3 6.1 2.3 8.4 0 2.3-2.3 2.3-6.1 0-8.4L70.3 62.1c-1-1-2.5-1-3.5 0zm-30.3-1.4h-.1c-6.4 0-12.5-2.5-17-7-4.6-4.6-7.2-10.8-7.2-17.3C12.2 22.9 23.1 12 36.5 12c6.4 0 12.6 2.6 17.2 7.2s7.2 10.8 7.2 17.2c0 13.4-10.9 24.3-24.4 24.3z"/><path d="M16.8 36.4c0 2.1.3 4.1.9 6.1.5 1.4 2.1 2.1 3.5 1.5 1.1-.5 1.7-1.8 1.3-3-.5-1.5-.7-3-.7-4.6 0-3.7 1.4-7.2 3.9-9.9.8-.9.8-2.3.1-3.2-1-1.2-2.7-1.2-3.8-.1-3.3 3.5-5.2 8.2-5.2 13.2z"/></svg><svg fill="none" viewBox="0 0 24 24" id="settings" xmlns="http://www.w3.org/2000/svg"><path d="M20.86 14.531l-1.957-1.586c.05-.33.074-.641.074-.945 0-.304-.024-.615-.074-.946L20.86 9.47a.366.366 0 00.087-.475l-1.783-2.988a.394.394 0 00-.468-.165l-2.395.847a7.012 7.012 0 00-1.697-.944l-.44-2.434a.384.384 0 00-.382-.31h-3.566c-.188 0-.35.13-.382.31l-.44 2.434a7.011 7.011 0 00-1.697.944l-2.395-.847a.393.393 0 00-.468.165L3.052 8.994a.366.366 0 00.087.475l1.958 1.585c-.05.331-.074.642-.074.946 0 .304.024.615.074.945L3.14 14.531a.366.366 0 00-.087.475l1.783 2.988a.394.394 0 00.468.165l2.395-.847a7.01 7.01 0 001.697.944l.44 2.434c.033.18.194.31.382.31h3.566c.188 0 .35-.13.382-.31l.44-2.434a7.01 7.01 0 001.697-.944l2.395.846a.396.396 0 00.468-.164l1.783-2.988a.366.366 0 00-.087-.475z"/><circle cx="12" cy="12" r="3.25"/></svg><svg viewBox="0 0 21 22" id="share" xmlns="http://www.w3.org/2000/svg"><path d="M11.121 5.216c-2.894.157-5.6 1.418-7.675 3.59C1.224 11.132 0 14.213 0 17.483V22l1.563-3.772c1.827-3.808 5.53-6.333 9.558-6.568v5.205L21 8.42 11.121 0v5.216zm1.231 1.272V2.71l6.7 5.71-6.7 5.728v-3.796h-.615c-2.335 0-4.627.687-6.629 1.987a12.95 12.95 0 00-3.8 3.805c.633-5.434 5.068-9.657 10.429-9.657h.615z"/></svg><svg fill="none" viewBox="0 0 24 25" id="shield" xmlns="http://www.w3.org/2000/svg"><path d="M20 4.605v9.138a7 7 0 01-3.404 6.006L12 22.5l-4.596-2.751A7 7 0 014 13.743V4.605L12 2.5l8 2.105z"/><path d="M8.5 11l3 3 5-5"/></svg><svg viewBox="0 0 32 33" id="star" xmlns="http://www.w3.org/2000/svg"><path d="M8.267 29.5c-.307 0-.611-.093-.871-.275a1.42 1.42 0 01-.58-1.489l1.802-7.688-6.109-5.191c-.449-.38-.62-.981-.436-1.532a1.48 1.48 0 011.28-.991l8.083-.711 3.195-7.247A1.49 1.49 0 0116 3.5a1.49 1.49 0 011.368.875l3.196 7.248 8.082.71a1.477 1.477 0 011.28.992c.185.55.015 1.152-.434 1.532l-6.11 5.19 1.802 7.688a1.42 1.42 0 01-.579 1.49 1.525 1.525 0 01-1.635.068L16 25.257l-6.97 4.038a1.528 1.528 0 01-.763.205zM16 23.519c.265 0 .527.069.763.204l6.578 3.812-1.7-7.256a1.415 1.415 0 01.471-1.406l5.768-4.901-7.631-.672a1.483 1.483 0 01-1.237-.874L16 5.588l-3.016 6.84a1.48 1.48 0 01-1.233.87l-7.633.671 5.768 4.902c.413.35.594.889.472 1.407l-1.699 7.256 6.578-3.81c.236-.136.498-.205.763-.205zm-4.626-11.756l-.001.002.001-.002zm9.25-.004v0z"/></svg><svg viewBox="0 0 24 24" id="star2" xmlns="http://www.w3.org/2000/svg"><g clip-path="url(#daclip0_658_19967)"><path d="M12.31 15.334h-1.358v-4.977H10.5V9h1.131c.375 0 .679.304.679.679v5.655z"/><path d="M5.094 24a.748.748 0 01-.74-.868l1.238-7.763L.213 9.898a.75.75 0 01.42-1.267L8.007 7.48 11.29.433A.753.753 0 0111.967 0h.003a.75.75 0 01.678.429l3.331 7.025 3.744.559-.22 1.484-4.14-.618a.75.75 0 01-.568-.421l-2.818-5.944L9.2 8.477a.75.75 0 01-.564.425l-6.326.987 4.621 4.699a.746.746 0 01.205.644L6.08 21.844l5.59-3.112a.75.75 0 01.726-.003l5.611 3.075-1.102-6.605a.752.752 0 01.202-.646l4.588-4.729-2.193-.327.221-1.484 3.64.543a.75.75 0 01.427 1.265l-5.342 5.506 1.294 7.755a.75.75 0 01-1.1.781l-6.604-3.618-6.577 3.662a.778.778 0 01-.367.093z"/></g><defs><clipPath id="daclip0_658_19967"><path fill="#fff" d="M0 0h24v24H0z"/></clipPath></defs></svg><svg fill="none" viewBox="0 0 11 12" id="sum" xmlns="http://www.w3.org/2000/svg"><path d="M10 1H1l4.286 4.583L1 11h9"/></svg><svg viewBox="0 0 256 256" id="tap" xmlns="http://www.w3.org/2000/svg"><path d="M188 86a25.867 25.867 0 00-15.546 5.171A25.972 25.972 0 00134 78.108V36a26 26 0 00-52 0v98.874l-10.731-18.587a26 26 0 00-45.162 25.775C58.187 209.712 79.47 238 128 238a86.097 86.097 0 0086-86v-40a26.03 26.03 0 00-26-26zm14 66a74.084 74.084 0 01-74 74c-38.79 0-57.53-18.357-91.146-89.283q-.104-.22-.226-.43a14 14 0 1124.248-14l21.928 37.98a6 6 0 0011.196-3V36a14 14 0 0128 0v68a6 6 0 0012 0v-4a14 14 0 0128 0v12a6 6 0 0012 0 14 14 0 0128 0z"/></svg><svg fill="none" viewBox="0 0 19 21" id="tape" xmlns="http://www.w3.org/2000/svg"><path d="M.5.5h18v6.308H.5zM.5 10.731h9.231v9.231H.5zM11.692 11.192H19M11.692 14.115H19M11.692 17.038H19M11.692 19.962H19"/></svg><svg viewBox="0 0 32 33" id="target" xmlns="http://www.w3.org/2000/svg"><path d="M18.093 8.878A7.92 7.92 0 0016 8.598c-4.357 0-7.902 3.545-7.902 7.902s3.545 7.902 7.902 7.902 7.902-3.545 7.902-7.902c0-.71-.095-1.415-.28-2.093a.875.875 0 011.687-.463c.227.83.343 1.69.343 2.556 0 5.322-4.33 9.652-9.652 9.652-5.322 0-9.652-4.33-9.652-9.652 0-5.322 4.33-9.652 9.652-9.652a9.67 9.67 0 012.556.343.876.876 0 01-.463 1.687zm10.245 3.052a.875.875 0 00-.59 1.088 12.26 12.26 0 01.502 3.482c0 6.755-5.495 12.25-12.25 12.25S3.75 23.255 3.75 16.5 9.245 4.25 16 4.25c1.185 0 2.357.169 3.482.502a.875.875 0 10.497-1.678A14.007 14.007 0 0016 2.5c-3.74 0-7.255 1.456-9.9 4.1A13.909 13.909 0 002 16.5c0 3.74 1.456 7.255 4.1 9.9a13.908 13.908 0 009.9 4.1c3.74 0 7.255-1.456 9.9-4.1a13.909 13.909 0 004.1-9.9c0-1.353-.193-2.692-.574-3.979a.875.875 0 00-1.087-.59zM16 13c.129 0 .259.007.386.021a.875.875 0 10.191-1.74A5.256 5.256 0 0010.75 16.5 5.256 5.256 0 0016 21.751a5.256 5.256 0 005.25-5.25.875.875 0 10-1.75 0c0 1.93-1.57 3.5-3.5 3.5s-3.5-1.57-3.5-3.5S14.07 13 16 13zm4.468-2.205l.436-4.372a.875.875 0 01.251-.532l3.135-3.135a.875.875 0 011.491.55l.249 3.164 3.163.249a.875.875 0 01.55 1.49l-3.134 3.136a.874.874 0 01-.532.251l-4.372.437-5.086 5.086a.872.872 0 01-1.238 0 .875.875 0 010-1.238l5.087-5.086zm1.816-.579l3.308-.33 1.572-1.571-2.016-.159a.875.875 0 01-.804-.804l-.159-2.016-1.571 1.572-.33 3.308z"/></svg><svg viewBox="0 0 42 43" id="user" xmlns="http://www.w3.org/2000/svg"><path d="M37.123 35.395A20.986 20.986 0 100 21.998a20.849 20.849 0 004.877 13.396l-.03.025c.105.126.225.234.333.358.135.155.28.3.42.45.42.456.852.895 1.305 1.305.138.127.28.243.42.364.48.413.973.806 1.485 1.172.066.045.126.104.192.15v-.017a20.852 20.852 0 0024 0v.017c.066-.046.124-.105.191-.15a21.68 21.68 0 001.486-1.172c.139-.12.282-.239.42-.364.453-.412.885-.849 1.305-1.305.139-.15.283-.295.42-.45.106-.124.227-.232.333-.36l-.033-.023zM21 9.998a6.75 6.75 0 110 13.5A6.75 6.75 0 0121 10zM9.01 35.394A7.494 7.494 0 0116.5 28h9a7.494 7.494 0 017.49 7.395 17.91 17.91 0 01-23.98 0z"/></svg><svg viewBox="0 0 22 21" id="user2" xmlns="http://www.w3.org/2000/svg"><path d="M18.425 3.075A10.431 10.431 0 0011 0a10.431 10.431 0 00-7.425 3.075A10.431 10.431 0 00.5 10.5c0 2.805 1.092 5.441 3.075 7.425A10.431 10.431 0 0011 21c2.805 0 5.442-1.092 7.425-3.075A10.431 10.431 0 0021.5 10.5c0-2.805-1.092-5.441-3.075-7.425zM5.057 17.608C5.404 14.625 7.97 12.32 11 12.32c1.598 0 3.1.623 4.231 1.753a5.979 5.979 0 011.712 3.534A9.227 9.227 0 0111 19.77a9.227 9.227 0 01-5.943-2.162zM11 11.054a3.193 3.193 0 01-3.19-3.19c0-1.758 1.432-3.188 3.19-3.188s3.19 1.43 3.19 3.189c0 1.758-1.432 3.189-3.19 3.189zm7.002 5.514a7.215 7.215 0 00-1.901-3.364 7.191 7.191 0 00-2.627-1.679 4.419 4.419 0 001.946-3.66A4.425 4.425 0 0011 3.445a4.418 4.418 0 00-2.473 8.08 7.198 7.198 0 00-2.443 1.5 7.191 7.191 0 00-2.087 3.542A9.23 9.23 0 011.73 10.5c0-5.111 4.159-9.27 9.27-9.27s9.27 4.159 9.27 9.27a9.23 9.23 0 01-2.268 6.068z"/></svg><svg viewBox="0 0 22 20" id="vote" xmlns="http://www.w3.org/2000/svg"><path d="M20 7h-6.31l.95-4.57.03-.32c0-.41-.17-.79-.44-1.06L13.17 0 6.59 6.59C6.22 6.95 6 7.45 6 8v10c0 1.1.9 2 2 2h9c.83 0 1.54-.5 1.84-1.22l3.02-7.05c.09-.23.14-.47.14-.73V9c0-1.1-.9-2-2-2zm0 4l-3 7H8V8l4.34-4.34L11.23 9H20v2zM0 8h4v12H0V8z"/></svg><svg viewBox="0 0 24 24" id="x-mark" xmlns="http://www.w3.org/2000/svg"><path d="M10.94 12L8.817 9.88a.75.75 0 011.06-1.061L12 10.939l2.12-2.12a.75.75 0 111.061 1.06L13.061 12l2.12 2.121a.75.75 0 11-1.06 1.06L12 13.062l-2.121 2.12a.75.75 0 01-1.06-1.06l2.12-2.12z"/><path d="M12 21a9 9 0 100-18 9 9 0 000 18zm0 1.5a10.5 10.5 0 110-21 10.5 10.5 0 010 21z"/></svg></svg>