<svg width="67" height="86" viewBox="0 0 67 86" fill="none" xmlns="http://www.w3.org/2000/svg">
<path d="M62.7273 47.6921L49.737 27.5622C51.5775 26.6061 52.8365 24.6982 52.8365 22.504C52.8365 20.1024 51.3284 18.0437 49.1996 17.2009L53.1349 3.60072C53.3047 3.01397 53.1392 2.38254 52.7028 1.951C50.085 -0.636546 45.8258 -0.636546 43.208 1.951C42.5818 2.57 41.7493 2.91083 40.8638 2.91083C39.9783 2.91083 39.1458 2.57 38.5157 1.94697L38.5074 1.93874C35.8989 -0.640074 31.647 -0.647297 29.028 1.92345L28.9793 1.97149C27.6866 3.24024 25.5871 3.23654 24.2992 1.96326L24.2868 1.951C21.669 -0.636546 17.4098 -0.636546 14.792 1.951C14.3553 2.38287 14.1899 3.01481 14.36 3.60189L18.3038 17.1978C16.1705 18.0383 14.6582 20.0993 14.6582 22.5042C14.6582 24.6983 15.9171 26.6062 17.7578 27.5624L4.76736 47.6921C-0.258211 55.4796 -0.576664 64.9647 3.91549 73.0645C8.40764 81.1642 16.6684 86 26.0131 86H41.4813C50.8259 86 59.0866 81.1642 63.579 73.0645C68.0711 64.9647 67.7528 55.4796 62.7273 47.6921ZM21.8834 4.32655L21.8958 4.33882C24.5046 6.91746 28.7563 6.92451 31.3751 4.3541L31.4239 4.30606C32.7164 3.03732 34.8159 3.04101 36.1079 4.31815L36.1162 4.32639C38.734 6.91393 42.9932 6.91393 45.611 4.32639C46.6762 3.27349 48.2917 3.08821 49.5506 3.77054L45.7828 16.7928H21.7222L17.9446 3.77038C19.2034 3.08821 20.8185 3.27383 21.8834 4.32655ZM60.5989 71.4495C56.7125 78.4569 49.5658 82.6406 41.4815 82.6406H26.0133C17.9289 82.6406 10.7823 78.4571 6.89593 71.4495C3.00958 64.4421 3.28504 56.2364 7.63275 49.4989L21.3675 28.2153H41.7336C42.6722 28.2153 44.2825 27.8869 44.2825 26.9591C44.2825 26.0314 43.5218 24.8557 42.5832 24.8557H20.4359C19.1241 24.8557 18.0569 23.8008 18.0569 22.504C18.0569 21.2072 19.1241 20.1523 20.4359 20.1523H20.4415H47.0587C48.3705 20.1523 49.4377 21.2072 49.4377 22.504C49.4377 23.8008 48.3705 24.8557 47.0587 24.8557H41.3943C40.4558 24.8557 39.695 25.6078 39.695 26.5355C39.695 27.4633 40.4558 28.2153 41.3943 28.2153H46.1271L59.862 49.4989C64.2097 56.2362 64.4852 64.4419 60.5989 71.4495Z" fill="#86BB64"/>
<path d="M36.7432 54.8571C36.3169 54.7081 35.8817 54.553 35.4467 54.3919V46.7788C36.5988 47.1139 37.3682 47.6573 37.4009 47.6809C38.1484 48.2344 39.2089 48.0875 39.7738 47.3506C40.3405 46.6112 40.1935 45.5576 39.4455 44.9972C39.3457 44.9225 37.7657 43.7631 35.4467 43.3242V41.6524C35.4467 40.7247 34.6859 39.9727 33.7473 39.9727C32.8088 39.9727 32.048 40.7247 32.048 41.6524V43.3121C31.7601 43.3667 31.4684 43.4357 31.1727 43.5236C28.7811 44.2339 26.9934 46.2557 26.5072 48.7999C26.0635 51.1231 26.8165 53.3637 28.4723 54.6474C29.3709 55.3441 30.4936 55.9802 32.048 56.6558V66.3979C30.7098 66.3142 29.8146 66.0132 28.3223 65.0482C27.537 64.54 26.4836 64.7579 25.9699 65.5343C25.456 66.3107 25.6762 67.3517 26.4617 67.8596C28.6378 69.2668 30.1113 69.6654 32.048 69.7596V71.4967C32.048 72.4245 32.8088 73.1765 33.7473 73.1765C34.6859 73.1765 35.4467 72.4245 35.4467 71.4967V69.5851C39.0856 68.7973 41.2138 65.7957 41.6913 62.9878C42.3155 59.3167 40.3733 56.1253 36.7432 54.8571ZM30.5698 52.0038C29.9166 51.4973 29.6396 50.5085 29.8469 49.4231C30.0375 48.425 30.7169 47.2214 32.048 46.7761V52.928C31.4893 52.6335 30.9851 52.3258 30.5698 52.0038ZM38.3396 62.4306C38.0949 63.8693 37.1125 65.3952 35.4465 66.0695V57.9664C35.5019 57.9859 35.5544 58.0048 35.6105 58.0245C38.6572 59.089 38.4697 61.6661 38.3396 62.4306Z" fill="#86BB64"/>
</svg>
