<svg width="70" height="86" viewBox="0 0 70 86" fill="none" xmlns="http://www.w3.org/2000/svg">
<path d="M59.7423 86H11.0089C8.34885 85.997 5.79859 84.9389 3.91763 83.058C2.03668 81.177 0.978621 78.6267 0.975586 75.9667V10.0333C0.978621 7.37326 2.03668 4.823 3.91763 2.94205C5.79859 1.06109 8.34885 0.00303488 11.0089 0H59.7423C62.4023 0.00303488 64.9526 1.06109 66.8335 2.94205C68.7145 4.823 69.7726 7.37326 69.7756 10.0333V75.9667C69.7726 78.6267 68.7145 81.177 66.8335 83.058C64.9526 84.9389 62.4023 85.997 59.7423 86V86ZM11.0089 2.86667C9.1089 2.86894 7.28735 3.62473 5.94383 4.96825C4.60032 6.31177 3.84453 8.13331 3.84225 10.0333V75.9667C3.84453 77.8667 4.60032 79.6882 5.94383 81.0317C7.28735 82.3753 9.1089 83.1311 11.0089 83.1333H59.7423C61.6423 83.1311 63.4638 82.3753 64.8073 81.0317C66.1509 79.6882 66.9066 77.8667 66.9089 75.9667V10.0333C66.9066 8.13331 66.1509 6.31177 64.8073 4.96825C63.4638 3.62473 61.6423 2.86894 59.7423 2.86667H11.0089Z" fill="#86BB64"/>
<path d="M39.6754 80.2669H31.0754C29.935 80.2669 28.8412 79.8139 28.0348 79.0075C27.2284 78.2011 26.7754 77.1074 26.7754 75.9669V70.2336C26.7754 69.0932 27.2284 67.9994 28.0348 67.193C28.8412 66.3866 29.935 65.9336 31.0754 65.9336H39.6754C40.8158 65.9336 41.9095 66.3866 42.7159 67.193C43.5224 67.9994 43.9754 69.0932 43.9754 70.2336V75.9669C43.9754 77.1074 43.5224 78.2011 42.7159 79.0075C41.9095 79.8139 40.8158 80.2669 39.6754 80.2669ZM31.0754 68.8003C30.6952 68.8003 30.3307 68.9513 30.0619 69.2201C29.7931 69.4889 29.6421 69.8535 29.6421 70.2336V75.9669C29.6421 76.3471 29.7931 76.7116 30.0619 76.9804C30.3307 77.2493 30.6952 77.4003 31.0754 77.4003H39.6754C40.0555 77.4003 40.4201 77.2493 40.6889 76.9804C40.9577 76.7116 41.1087 76.3471 41.1087 75.9669V70.2336C41.1087 69.8535 40.9577 69.4889 40.6889 69.2201C40.4201 68.9513 40.0555 68.8003 39.6754 68.8003H31.0754Z" fill="#86BB64"/>
<path d="M19.609 80.2669H11.009C9.86855 80.2669 8.77483 79.8139 7.96842 79.0075C7.16202 78.2011 6.70898 77.1074 6.70898 75.9669V70.2336C6.70898 69.0932 7.16202 67.9994 7.96842 67.193C8.77483 66.3866 9.86855 65.9336 11.009 65.9336H19.609C20.7494 65.9336 21.8431 66.3866 22.6495 67.193C23.456 67.9994 23.909 69.0932 23.909 70.2336V75.9669C23.909 77.1074 23.456 78.2011 22.6495 79.0075C21.8431 79.8139 20.7494 80.2669 19.609 80.2669ZM11.009 68.8003C10.6288 68.8003 10.2643 68.9513 9.99547 69.2201C9.72666 69.4889 9.57565 69.8535 9.57565 70.2336V75.9669C9.57565 76.3471 9.72666 76.7116 9.99547 76.9804C10.2643 77.2493 10.6288 77.4003 11.009 77.4003H19.609C19.9891 77.4003 20.3537 77.2493 20.6225 76.9804C20.8913 76.7116 21.0423 76.3471 21.0423 75.9669V70.2336C21.0423 69.8535 20.8913 69.4889 20.6225 69.2201C20.3537 68.9513 19.9891 68.8003 19.609 68.8003H11.009Z" fill="#86BB64"/>
<path d="M59.7428 80.2677H51.1428C50.0023 80.2677 48.9086 79.8147 48.1022 79.0083C47.2958 78.2019 46.8428 77.1081 46.8428 75.9677V53.0344C46.8428 51.8939 47.2958 50.8002 48.1022 49.9938C48.9086 49.1874 50.0023 48.7344 51.1428 48.7344H59.7428C60.8832 48.7344 61.9769 49.1874 62.7833 49.9938C63.5897 50.8002 64.0428 51.8939 64.0428 53.0344V75.9677C64.0428 77.1081 63.5897 78.2019 62.7833 79.0083C61.9769 79.8147 60.8832 80.2677 59.7428 80.2677ZM51.1428 51.601C50.7626 51.601 50.3981 51.7521 50.1293 52.0209C49.8605 52.2897 49.7094 52.6542 49.7094 53.0344V75.9677C49.7094 76.3479 49.8605 76.7124 50.1293 76.9812C50.3981 77.25 50.7626 77.401 51.1428 77.401H59.7428C60.1229 77.401 60.4875 77.25 60.7563 76.9812C61.0251 76.7124 61.1761 76.3479 61.1761 75.9677V53.0344C61.1761 52.6542 61.0251 52.2897 60.7563 52.0209C60.4875 51.7521 60.1229 51.601 59.7428 51.601H51.1428Z" fill="#86BB64"/>
<path d="M39.6754 63.0677H31.0754C29.935 63.0677 28.8412 62.6147 28.0348 61.8083C27.2284 61.0019 26.7754 59.9081 26.7754 58.7677V53.0344C26.7754 51.8939 27.2284 50.8002 28.0348 49.9938C28.8412 49.1874 29.935 48.7344 31.0754 48.7344H39.6754C40.8158 48.7344 41.9095 49.1874 42.7159 49.9938C43.5224 50.8002 43.9754 51.8939 43.9754 53.0344V58.7677C43.9754 59.9081 43.5224 61.0019 42.7159 61.8083C41.9095 62.6147 40.8158 63.0677 39.6754 63.0677ZM31.0754 51.601C30.6952 51.601 30.3307 51.7521 30.0619 52.0209C29.7931 52.2897 29.6421 52.6542 29.6421 53.0344V58.7677C29.6421 59.1479 29.7931 59.5124 30.0619 59.7812C30.3307 60.05 30.6952 60.201 31.0754 60.201H39.6754C40.0555 60.201 40.4201 60.05 40.6889 59.7812C40.9577 59.5124 41.1087 59.1479 41.1087 58.7677V53.0344C41.1087 52.6542 40.9577 52.2897 40.6889 52.0209C40.4201 51.7521 40.0555 51.601 39.6754 51.601H31.0754Z" fill="#86BB64"/>
<path d="M19.609 63.0677H11.009C9.86855 63.0677 8.77483 62.6147 7.96842 61.8083C7.16202 61.0019 6.70898 59.9081 6.70898 58.7677V53.0344C6.70898 51.8939 7.16202 50.8002 7.96842 49.9938C8.77483 49.1874 9.86855 48.7344 11.009 48.7344H19.609C20.7494 48.7344 21.8431 49.1874 22.6495 49.9938C23.456 50.8002 23.909 51.8939 23.909 53.0344V58.7677C23.909 59.9081 23.456 61.0019 22.6495 61.8083C21.8431 62.6147 20.7494 63.0677 19.609 63.0677ZM11.009 51.601C10.6288 51.601 10.2643 51.7521 9.99547 52.0209C9.72666 52.2897 9.57565 52.6542 9.57565 53.0344V58.7677C9.57565 59.1479 9.72666 59.5124 9.99547 59.7812C10.2643 60.05 10.6288 60.201 11.009 60.201H19.609C19.9891 60.201 20.3537 60.05 20.6225 59.7812C20.8913 59.5124 21.0423 59.1479 21.0423 58.7677V53.0344C21.0423 52.6542 20.8913 52.2897 20.6225 52.0209C20.3537 51.7521 19.9891 51.601 19.609 51.601H11.009Z" fill="#86BB64"/>
<path d="M39.6754 45.8646H31.0754C29.935 45.8646 28.8412 45.4115 28.0348 44.6051C27.2284 43.7987 26.7754 42.705 26.7754 41.5646V35.8313C26.7754 34.6908 27.2284 33.5971 28.0348 32.7907C28.8412 31.9843 29.935 31.5313 31.0754 31.5312H39.6754C40.8158 31.5313 41.9095 31.9843 42.7159 32.7907C43.5224 33.5971 43.9754 34.6908 43.9754 35.8313V41.5646C43.9754 42.705 43.5224 43.7987 42.7159 44.6051C41.9095 45.4115 40.8158 45.8646 39.6754 45.8646V45.8646ZM31.0754 34.3979C30.6952 34.3979 30.3307 34.5489 30.0619 34.8177C29.7931 35.0865 29.6421 35.4511 29.6421 35.8313V41.5646C29.6421 41.9447 29.7931 42.3093 30.0619 42.5781C30.3307 42.8469 30.6952 42.9979 31.0754 42.9979H39.6754C40.0555 42.9979 40.4201 42.8469 40.6889 42.5781C40.9577 42.3093 41.1087 41.9447 41.1087 41.5646V35.8313C41.1087 35.4511 40.9577 35.0865 40.6889 34.8177C40.4201 34.5489 40.0555 34.3979 39.6754 34.3979H31.0754Z" fill="#86BB64"/>
<path d="M19.609 45.8646H11.009C9.86855 45.8646 8.77483 45.4115 7.96842 44.6051C7.16202 43.7987 6.70898 42.705 6.70898 41.5646V35.8313C6.70898 34.6908 7.16202 33.5971 7.96842 32.7907C8.77483 31.9843 9.86855 31.5313 11.009 31.5312H19.609C20.7494 31.5313 21.8431 31.9843 22.6495 32.7907C23.456 33.5971 23.909 34.6908 23.909 35.8313V41.5646C23.909 42.705 23.456 43.7987 22.6495 44.6051C21.8431 45.4115 20.7494 45.8646 19.609 45.8646V45.8646ZM11.009 34.3979C10.6288 34.3979 10.2643 34.5489 9.99547 34.8177C9.72666 35.0865 9.57565 35.4511 9.57565 35.8313V41.5646C9.57565 41.9447 9.72666 42.3093 9.99547 42.5781C10.2643 42.8469 10.6288 42.9979 11.009 42.9979H19.609C19.9891 42.9979 20.3537 42.8469 20.6225 42.5781C20.8913 42.3093 21.0423 41.9447 21.0423 41.5646V35.8313C21.0423 35.4511 20.8913 35.0865 20.6225 34.8177C20.3537 34.5489 19.9891 34.3979 19.609 34.3979H11.009Z" fill="#86BB64"/>
<path d="M59.7428 45.8646H51.1428C50.0023 45.8646 48.9086 45.4115 48.1022 44.6051C47.2958 43.7987 46.8428 42.705 46.8428 41.5646V35.8313C46.8428 34.6908 47.2958 33.5971 48.1022 32.7907C48.9086 31.9843 50.0023 31.5313 51.1428 31.5312H59.7428C60.8832 31.5313 61.9769 31.9843 62.7833 32.7907C63.5897 33.5971 64.0428 34.6908 64.0428 35.8313V41.5646C64.0428 42.705 63.5897 43.7987 62.7833 44.6051C61.9769 45.4115 60.8832 45.8646 59.7428 45.8646V45.8646ZM51.1428 34.3979C50.7626 34.3979 50.3981 34.5489 50.1293 34.8177C49.8605 35.0865 49.7094 35.4511 49.7094 35.8313V41.5646C49.7094 41.9447 49.8605 42.3093 50.1293 42.5781C50.3981 42.8469 50.7626 42.9979 51.1428 42.9979H59.7428C60.1229 42.9979 60.4875 42.8469 60.7563 42.5781C61.0251 42.3093 61.1761 41.9447 61.1761 41.5646V35.8313C61.1761 35.4511 61.0251 35.0865 60.7563 34.8177C60.4875 34.5489 60.1229 34.3979 59.7428 34.3979H51.1428Z" fill="#86BB64"/>
<path d="M59.7423 25.801H11.009C9.86855 25.801 8.77483 25.348 7.96842 24.5416C7.16202 23.7352 6.70898 22.6415 6.70898 21.501V10.0344C6.70898 8.89394 7.16202 7.80022 7.96842 6.99382C8.77483 6.18741 9.86855 5.73438 11.009 5.73438H59.7423C60.8828 5.73438 61.9765 6.18741 62.7829 6.99382C63.5893 7.80022 64.0423 8.89394 64.0423 10.0344V21.501C64.0423 22.6415 63.5893 23.7352 62.7829 24.5416C61.9765 25.348 60.8828 25.801 59.7423 25.801ZM11.009 8.60104C10.6288 8.60104 10.2643 8.75205 9.99547 9.02086C9.72666 9.28966 9.57565 9.65423 9.57565 10.0344V21.501C9.57565 21.8812 9.72666 22.2458 9.99547 22.5146C10.2643 22.7834 10.6288 22.9344 11.009 22.9344H59.7423C60.1225 22.9344 60.487 22.7834 60.7558 22.5146C61.0246 22.2458 61.1757 21.8812 61.1757 21.501V10.0344C61.1757 9.65423 61.0246 9.28966 60.7558 9.02086C60.487 8.75205 60.1225 8.60104 59.7423 8.60104H11.009Z" fill="#86BB64"/>
<path d="M55.4426 21.4979C54.3021 21.4979 53.2084 21.0449 52.402 20.2385C51.5956 19.4321 51.1426 18.3383 51.1426 17.1979V14.3312C51.1426 13.1908 51.5956 12.0971 52.402 11.2907C53.2084 10.4843 54.3021 10.0313 55.4426 10.0312C56.583 10.0312 57.6767 10.4843 58.4831 11.2907C59.2895 12.0971 59.7426 13.1908 59.7426 14.3312V17.1979C59.7426 18.3383 59.2895 19.4321 58.4831 20.2385C57.6767 21.0449 56.583 21.4979 55.4426 21.4979V21.4979ZM55.4426 12.8979C55.0624 12.8979 54.6979 13.0489 54.4291 13.3177C54.1603 13.5865 54.0092 13.9511 54.0092 14.3312V17.1979C54.0092 17.5781 54.1603 17.9426 54.4291 18.2114C54.6979 18.4802 55.0624 18.6312 55.4426 18.6312C55.8227 18.6312 56.1873 18.4802 56.4561 18.2114C56.7249 17.9426 56.8759 17.5781 56.8759 17.1979V14.3312C56.8759 13.9511 56.7249 13.5865 56.4561 13.3177C56.1873 13.0489 55.8227 12.8979 55.4426 12.8979Z" fill="#86BB64"/>
</svg>
