<svg width="51" height="89" viewBox="0 0 51 89" fill="none" xmlns="http://www.w3.org/2000/svg">
<path d="M19.5342 69.621H21.6861V67.6736C21.1574 66.9054 20.6571 66.117 20.1794 65.3145H5.56648C2.97352 65.3145 0.863823 63.2035 0.863823 60.6088L0.863823 23.7752C0.863823 22.7842 1.23968 21.5323 2.22988 21.5323C3.22008 21.5323 4.45021 21.7076 4.45021 22.6986L4.45021 53.9903C8.37893 54.6876 11.4837 57.7944 12.1807 61.7256H18.2637C16.5989 58.213 15.4031 54.4737 14.7396 50.6552L13.6133 44.1734C13.5512 43.8162 13.5211 43.46 13.5211 43.1076C13.5211 42.6136 13.5817 42.1277 13.695 41.6579C10.6037 39.7726 8.63266 36.3657 8.63266 32.6571C8.63266 26.8516 13.3527 22.1285 19.1544 22.1285C24.9561 22.1285 29.6762 26.8518 29.6762 32.6573C29.6762 35.9409 28.1624 38.9813 25.6313 40.9563L30.262 49.3353C30.6018 49.9498 31.2488 50.3317 31.9505 50.3317C33.0144 50.3317 33.8798 49.4657 33.8798 48.4011V11.324C29.9511 10.6267 26.8463 7.51997 26.1493 3.58871H12.1807C11.4838 7.51997 8.37911 10.6267 4.45021 11.324V24.5827C4.45021 25.5737 3.64722 26.377 2.65702 26.377C1.66681 26.377 0.863823 25.5737 0.863823 24.5827V4.7057C0.863823 2.11106 2.97352 0 5.56648 0H32.7633C35.3565 0 37.4662 2.11106 37.4662 4.7057L37.4662 28.2776L44.3712 37.2382C46.1628 39.563 47.1494 42.4602 47.1494 45.3961V69.621H48.2254C49.2156 69.621 50.0186 70.4243 50.0186 71.4153V87.2056C50.0186 88.1967 49.2156 89 48.2254 89H19.5342C18.544 89 17.741 88.1967 17.741 87.2056V71.4153C17.741 70.4243 18.544 69.621 19.5342 69.621ZM4.45039 57.6698V60.6088C4.45039 61.2248 4.95105 61.7258 5.56666 61.7258H8.50373C7.93422 59.7777 6.39727 58.2397 4.45039 57.6698ZM26.0898 32.6573C26.0898 28.8306 22.9786 25.7174 19.1546 25.7174C15.3304 25.7174 12.2192 28.8306 12.2192 32.6573C12.2192 35.0818 13.4976 37.3102 15.5062 38.5591C16.0872 38.0184 16.7784 37.5819 17.5592 37.2905C19.5643 36.5422 21.7705 36.9158 23.4188 38.1272C25.0885 36.8248 26.0898 34.8223 26.0898 32.6573ZM4.45039 4.7057V7.64468C6.39727 7.07478 7.93422 5.53684 8.50373 3.58871H5.56666C4.95105 3.58871 4.45039 4.0897 4.45039 4.7057ZM32.7633 3.58871H29.8265C30.396 5.53684 31.9329 7.07478 33.8798 7.64468V4.7057C33.8798 4.0897 33.379 3.58871 32.7633 3.58871ZM43.563 45.3961C43.563 43.249 42.8415 41.1302 41.5312 39.4299L37.4662 34.1546V48.4011C37.4662 51.4443 34.9919 53.9204 31.9505 53.9204C29.9444 53.9204 28.0949 52.829 27.1237 51.0724L22.0216 41.8408C21.3984 40.7134 20.0189 40.2029 18.8126 40.6529C17.6315 41.094 16.9307 42.3161 17.1468 43.5589L18.2731 50.0406C19.2699 55.7777 21.576 61.321 24.9418 66.071C25.1568 66.3743 25.2723 66.7371 25.2723 67.1089V69.621H43.563V45.3961ZM21.3274 73.2097V85.4113H46.4322V73.2097H21.3274Z" fill="#86BB64"/>
</svg>
