<svg width="90" height="86" viewBox="0 0 90 86" fill="none" xmlns="http://www.w3.org/2000/svg">
<g clip-path="url(#clip0_762_27273)">
<path d="M60.1094 55.1553C57.977 55.1553 56.2422 53.7205 56.2422 51.957C56.2422 50.1933 57.977 48.7585 60.1094 48.7585C62.2418 48.7585 63.9765 50.1933 63.9765 51.957C63.9765 52.8845 64.7637 53.6367 65.7343 53.6367C66.705 53.6367 67.4922 52.8845 67.4922 51.957C67.4922 48.8789 65.092 46.2909 61.8672 45.5884V44.7148C61.8672 43.7873 61.08 43.0352 60.1094 43.0352C59.1387 43.0352 58.3516 43.7873 58.3516 44.7148V45.5884C55.1267 46.2909 52.7266 48.8789 52.7266 51.957C52.7266 55.5728 56.0385 58.5146 60.1094 58.5146C62.2418 58.5146 63.9765 59.9494 63.9765 61.7131C63.9765 63.4767 62.2418 64.9115 60.1094 64.9115C57.977 64.9115 56.2422 63.4767 56.2422 61.7131C56.2422 60.7856 55.455 60.0334 54.4844 60.0334C53.5137 60.0334 52.7266 60.7856 52.7266 61.7131C52.7266 64.7911 55.1267 67.3792 58.3516 68.0816V68.8072C58.3516 69.7348 59.1387 70.4869 60.1094 70.4869C61.08 70.4869 61.8672 69.7348 61.8672 68.8072V68.0816C65.092 67.3792 67.4922 64.7911 67.4922 61.7131C67.4922 58.0971 64.1803 55.1553 60.1094 55.1553Z" fill="#86BB64"/>
<path d="M79.3617 45.1637C77.0655 41.7447 73.8304 39.0089 70.0063 37.2523C69.1311 36.8501 68.0808 37.2022 67.6603 38.0384C67.2397 38.8745 67.6079 39.8779 68.483 40.2799C75.147 43.341 79.4528 49.8815 79.4528 56.9425C79.4528 59.9639 78.6733 62.9603 77.1991 65.6082C76.7431 66.427 77.0681 67.4443 77.9252 67.88C78.1882 68.0137 78.4708 68.0772 78.7493 68.0772C79.3782 68.0772 79.9866 67.7537 80.3027 67.1861C82.0466 64.0545 82.9684 60.5122 82.9684 56.9425C82.9684 52.75 81.7212 48.677 79.3617 45.1637Z" fill="#86BB64"/>
<path d="M51.7509 73.6058C45.087 70.5446 40.7812 64.0041 40.7812 56.9432C40.7812 53.9218 41.5607 50.9254 43.0349 48.2775C43.4909 47.4587 43.1659 46.4415 42.3088 46.0058C41.452 45.57 40.3871 45.8806 39.9313 46.6996C38.1874 49.8314 37.2656 53.3735 37.2656 56.9432C37.2656 61.1357 38.5128 65.2086 40.8723 68.722C43.1685 72.141 46.4036 74.8768 50.2277 76.6336C50.4733 76.7465 50.7327 76.7997 50.9881 76.7997C51.6427 76.7997 52.271 76.4489 52.5737 75.8475C52.994 75.0114 52.6259 74.0078 51.7509 73.6058Z" fill="#86BB64"/>
<path d="M68.0991 29.4227C67.8852 28.9356 67.6231 28.4765 67.3181 28.0507H71.8944C76.3529 28.0507 79.9803 24.5845 79.9803 20.3242C79.9803 16.0638 76.3529 12.5976 71.8944 12.5976H57.8179C58.7128 11.3543 59.2382 9.85017 59.2382 8.23045C59.2382 3.9701 55.6108 0.503906 51.1522 0.503906H8.08592C3.62741 0.503906 0 3.9701 0 8.23045C0 12.4908 3.62741 15.957 8.08592 15.957H22.1625C21.2676 17.2003 20.7421 18.7045 20.7421 20.3242C20.7421 21.9439 21.2674 23.4481 22.1625 24.6914H17.5781C13.1196 24.6914 9.49217 28.1576 9.49217 32.4179C9.49217 34.8647 10.6899 37.0481 12.5534 38.4648C10.6899 39.8814 9.49217 42.0648 9.49217 44.5116C9.49217 46.9584 10.6899 49.1419 12.5534 50.5585C10.6899 51.9751 9.49217 54.1586 9.49217 56.6054C9.49217 59.0522 10.6899 61.2356 12.5534 62.6522C10.6899 64.0689 9.49217 66.2523 9.49217 68.6991C9.49217 72.9594 13.1196 76.4256 17.5781 76.4256H38.2939C43.7512 82.0034 51.5147 85.4961 60.1173 85.4961C76.5946 85.4961 90 72.6865 90 56.9415C90 43.8371 80.7135 32.7678 68.0991 29.4227ZM71.8944 15.957C74.4146 15.957 76.4647 17.9162 76.4647 20.3242C76.4647 22.7322 74.4146 24.6914 71.8944 24.6914H60.6444H28.8281C26.3079 24.6914 24.2578 22.7322 24.2578 20.3242C24.2578 17.9162 26.3079 15.957 28.8281 15.957H71.8944ZM8.08592 12.5976C5.56575 12.5976 3.51562 10.6384 3.51562 8.23045C3.51562 5.82246 5.56575 3.86328 8.08592 3.86328H51.1522C53.6724 3.86328 55.7226 5.82246 55.7226 8.23045C55.7226 10.6384 53.6724 12.5976 51.1522 12.5976H8.08592ZM17.5781 28.0507H60.6444C61.3525 28.0507 62.0305 28.2079 62.6387 28.4895C61.8072 28.4228 60.9666 28.3868 60.1173 28.3868C51.8652 28.3868 44.384 31.5999 38.971 36.7851H17.5781C15.0581 36.7851 13.0078 34.8259 13.0078 32.4179C13.0078 30.0099 15.0581 28.0507 17.5781 28.0507ZM17.5781 40.1445H35.9674C33.972 42.7569 32.4291 45.7034 31.4493 48.8788H17.5781C15.0579 48.8788 13.0078 46.9198 13.0078 44.5116C13.0078 42.1036 15.0579 40.1445 17.5781 40.1445ZM17.5781 52.2382H30.6421C30.3755 53.7689 30.2345 55.3396 30.2345 56.9415C30.2345 58.3097 30.338 59.6552 30.5337 60.9725H17.5781C15.0579 60.9725 13.0078 59.0135 13.0078 56.6054C13.0078 54.1972 15.0579 52.2382 17.5781 52.2382ZM17.5781 73.0663C15.0579 73.0663 13.0078 71.1073 13.0078 68.6991C13.0078 66.2909 15.0579 64.3319 17.5781 64.3319H31.2514C32.1384 67.4919 33.5793 70.4369 35.4689 73.0663H17.5781ZM60.1173 82.1367C45.5784 82.1367 33.7501 70.8341 33.7501 56.9415C33.7501 43.0488 45.5784 31.7462 60.1173 31.7462C74.6561 31.7462 86.4844 43.0488 86.4844 56.9415C86.4844 70.8341 74.6561 82.1367 60.1173 82.1367Z" fill="#86BB64"/>
</g>
<defs>
<clipPath id="clip0_762_27273">
<rect width="90" height="86" fill="white"/>
</clipPath>
</defs>
</svg>
