<svg width="137" height="160" viewBox="0 0 137 160" fill="none" xmlns="http://www.w3.org/2000/svg">
<path d="M77.3645 0.230604C77.3637 0.230994 77.3633 0.230999 77.3626 0.231389L1.97816 30.2474C0.376441 30.8844 -0.405612 32.6998 0.231424 34.3016C0.231814 34.3027 0.232204 34.3039 0.232984 34.3051L48.721 156.103C48.9356 156.6 49.2781 157.031 49.7136 157.352C50.2398 158.365 51.2816 159.005 52.4228 159.016L133.58 159.022C135.303 159.022 136.701 157.625 136.701 155.901L136.711 24.8014C136.711 23.0776 135.314 21.6799 133.59 21.6798L89.266 21.6764L81.4203 1.97344C80.7817 0.37211 78.9659 -0.407993 77.3645 0.230604ZM130.468 27.9224L130.459 152.779L55.5447 152.773L55.5543 27.9166L130.468 27.9224ZM49.321 106.935L28.4989 54.6682C33.4023 50.004 36.1894 43.541 36.2164 36.7737L49.3268 31.562L49.321 106.935ZM82.5612 21.6759L52.4333 21.6736C50.7095 21.6734 49.3118 23.071 49.3117 24.7948L49.3117 24.8447L32.699 31.4577C32.5605 31.531 32.4286 31.6165 32.3057 31.7136C30.8023 32.0483 29.7764 33.4404 29.902 34.9753C30.4754 41.272 27.8225 47.4315 22.8526 51.3403C21.6519 52.313 21.3533 54.0227 22.1531 55.3451C22.1706 55.4933 22.1979 55.6404 22.2342 55.7852L47.6376 119.595C47.9403 120.367 48.5407 120.985 49.3043 121.309L49.3028 140.687L7.18745 34.8924L76.7815 7.18272L82.5612 21.6759Z" fill="#86BB64"/>
<path d="M109.387 144.306C111.178 138.246 115.915 133.504 121.973 131.706C123.296 131.312 124.202 130.096 124.202 128.716C124.192 128.554 124.168 128.393 124.13 128.235C124.17 128.095 124.199 127.952 124.218 127.808L124.224 52.8937C124.207 52.7649 124.181 52.6377 124.145 52.5128C124.525 50.9533 123.569 49.3816 122.009 49.0019C122.003 49.0007 121.998 48.9991 121.992 48.998C115.928 47.2035 111.185 42.4601 109.392 36.3959C108.942 34.9252 107.477 34.0113 105.958 34.2543C105.807 34.2125 105.653 34.1825 105.496 34.1637L80.5252 34.1618C80.3687 34.1802 80.2142 34.2114 80.0632 34.2554C78.5442 34.0107 77.0779 34.9248 76.6295 36.3965C74.8354 42.4605 70.0901 47.2019 64.0242 48.9904C62.5435 49.4421 61.6272 50.922 61.8827 52.4488C61.8425 52.5931 61.8132 52.7402 61.7953 52.8889L61.7895 127.803C61.8082 127.96 61.8394 128.116 61.8831 128.268C61.6411 129.786 62.5544 131.251 64.0242 131.702C70.087 133.497 74.828 138.24 76.6212 144.304C77.0706 145.774 78.536 146.688 80.0546 146.445C80.2064 146.486 80.3605 146.515 80.5166 146.533L105.488 146.535C105.635 146.517 105.78 146.487 105.922 146.447C107.45 146.703 108.932 145.788 109.387 144.306ZM81.7843 140.29C79.2674 134.022 74.3 129.054 68.0324 126.536L68.038 54.1598C74.306 51.6417 79.2741 46.6731 81.792 40.4048L104.229 40.4065C106.748 46.6725 111.715 51.6398 117.981 54.1605L117.975 126.54C111.709 129.059 106.742 134.026 104.221 140.292L81.7843 140.29Z" fill="#86BB64"/>
<path d="M111.735 90.3486C111.736 80.005 103.351 71.6195 93.0077 71.6187C82.6641 71.6179 74.2786 80.0022 74.2778 90.3457C74.277 100.689 82.6613 109.075 93.0048 109.076C103.344 109.066 111.724 100.688 111.735 90.3486ZM80.5206 90.3462C80.5212 83.4506 86.1116 77.861 93.0072 77.8615C99.9028 77.8621 105.492 83.4525 105.492 90.3481C105.491 97.2437 99.9009 102.833 93.0053 102.833C86.1097 102.832 80.5201 97.2418 80.5206 90.3462Z" fill="#86BB64"/>
<path d="M97.6859 124.682C97.6861 122.096 95.5898 120 93.0041 119.999C90.4184 119.999 88.3218 122.095 88.3216 124.681C88.3214 127.267 90.4177 129.363 93.0034 129.364C95.5895 129.364 97.6857 127.268 97.6859 124.682ZM91.4431 124.681C91.4431 123.82 92.142 123.121 93.0039 123.121C93.8658 123.121 94.5645 123.82 94.5645 124.682C94.5644 125.544 93.8655 126.242 93.0036 126.242C92.1417 126.242 91.443 125.543 91.4431 124.681Z" fill="#86BB64"/>
<path d="M97.6908 56.0139C97.691 53.4282 95.5947 51.3316 93.009 51.3314C90.4233 51.3312 88.3267 53.4275 88.3265 56.0132C88.3263 58.5989 90.4226 60.6955 93.0083 60.6957C95.5944 60.6959 97.6906 58.5996 97.6908 56.0139ZM91.4479 56.0134C91.448 55.1515 92.1469 54.4528 93.0088 54.4528C93.8707 54.4529 94.5694 55.1518 94.5694 56.0137C94.5693 56.8756 93.8704 57.5743 93.0085 57.5743C92.1466 57.5742 91.4479 56.8753 91.4479 56.0134Z" fill="#86BB64"/>
</svg>
