<svg width="111" height="132" viewBox="0 0 111 132" fill="none" xmlns="http://www.w3.org/2000/svg">
<path d="M31.3349 131.957C29.8011 131.957 28.2779 131.486 26.978 130.562C24.5565 128.837 23.4254 125.873 24.0844 123.012L33.091 84.0175L2.54639 57.6895C0.301158 55.7631 -0.556559 52.7122 0.365247 49.9207C1.28705 47.1344 3.79505 45.1617 6.76448 44.8919L47.1787 41.2857L63.157 4.53383C64.3352 1.83363 67.0183 0.0898438 69.9995 0.0898438C72.9807 0.0898438 75.6639 1.83363 76.842 4.52753L92.8204 41.2857L133.228 44.8919C136.204 45.1554 138.712 47.1344 139.634 49.9207C140.556 52.707 139.703 55.7631 137.458 57.6895L106.913 84.0123L115.92 123.006C116.58 125.873 115.448 128.837 113.027 130.557C110.612 132.277 107.392 132.409 104.849 130.907L69.9995 110.438L35.1503 130.918C33.9722 131.606 32.6594 131.957 31.3349 131.957V131.957ZM69.9995 101.62C71.324 101.62 72.6357 101.97 73.8149 102.657L106.704 121.991L98.2038 85.187C97.5971 82.5677 98.5018 79.8328 100.561 78.0607L129.402 53.2004L91.2449 49.7947C88.4976 49.548 86.1349 47.8504 85.0614 45.3623L69.9995 10.6796L54.9195 45.3675C53.8578 47.8388 51.495 49.5364 48.7542 49.7832L10.5916 53.1888L39.4315 78.0491C41.4972 79.8265 42.4009 82.5561 41.7888 85.1818L33.295 121.985L66.1841 102.657C67.3623 101.97 68.675 101.62 69.9995 101.62V101.62ZM46.87 41.9965C46.87 41.9965 46.87 42.0028 46.8636 42.008L46.87 41.9965ZM93.1173 41.9797L93.1237 41.9912C93.1237 41.9849 93.1237 41.9849 93.1173 41.9797Z" fill="#86BB64"/>
</svg>
