<svg width="85" height="108" viewBox="0 0 85 108" fill="none" xmlns="http://www.w3.org/2000/svg">
<path d="M22.8709 46.5198L17.3535 41.0024L41.2622 17.0938L52.297 28.1285" stroke="#86BB64" stroke-width="4" stroke-miterlimit="10"/>
<path d="M78.0438 53.875L90.9196 66.7508L67.0109 90.6594L32.9023 56.5509" stroke="#86BB64" stroke-width="4" stroke-miterlimit="10"/>
<path d="M27.2686 99.1324L35.0849 91.3161C36.7107 89.6903 38.8054 88.6126 41.0731 88.2337L45.132 87.5569C47.4015 87.1781 49.4944 86.1022 51.1202 84.4746L55.9755 79.6211" stroke="#86BB64" stroke-width="4" stroke-miterlimit="10"/>
<path d="M31.1772 69.7271C32.2383 68.4894 33.9064 65.6296 33.9064 61.2322C33.9064 59.7793 33.2591 57.1346 32.448 55.4794C32.1869 54.9405 32.0673 54.3502 32.0673 53.7525C32.0673 52.6545 32.5032 51.6007 33.2811 50.8227L39.7402 44.3637C40.7149 43.389 41.263 42.0648 41.263 40.6854C41.263 37.8127 38.9346 35.4844 36.0619 35.4844C34.6826 35.4844 33.3584 36.0324 32.3836 37.0072L22.0569 47.3339C19.0463 50.3446 17.3543 54.4293 17.3543 58.6868V62.6244C17.3543 64.0884 16.7731 65.4916 15.7377 66.5252L5.31348 76.9494" stroke="#86BB64" stroke-width="4" stroke-miterlimit="10"/>
<path d="M81.7235 48.3579C81.7235 49.535 81.2563 50.6642 80.4232 51.4955L75.6672 56.2515C74.8341 57.0846 73.7049 57.5536 72.5278 57.5536C71.3508 57.5536 70.2216 57.0864 69.3903 56.2533L49.9194 36.7843C49.0863 35.9511 48.6191 34.8219 48.6191 33.6449C48.6191 32.4678 49.0881 31.3368 49.9212 30.5055L54.6846 25.7476C55.5159 24.9164 56.6433 24.4492 57.8222 24.4492C58.9992 24.4492 60.1284 24.9164 60.9615 25.7495L80.4251 45.2185C81.2563 46.0498 81.7235 47.1809 81.7235 48.3579V48.3579Z" stroke="#86BB64" stroke-width="4" stroke-miterlimit="10"/>
<path d="M86.1211 21.89L93.851 14.1602" stroke="#86BB64" stroke-width="4" stroke-miterlimit="10"/>
<path d="M86.1211 85.8594L93.8215 93.5598" stroke="#86BB64" stroke-width="4" stroke-miterlimit="10"/>
<path d="M66.4326 11.5198L69.252 1" stroke="#86BB64" stroke-width="4" stroke-miterlimit="10"/>
<path d="M11.5198 43.3897L1 40.5703" stroke="#86BB64" stroke-width="4" stroke-miterlimit="10"/>
<path d="M41.8399 11.5198L39.0205 1" stroke="#86BB64" stroke-width="4" stroke-miterlimit="10"/>
<path d="M22.1517 21.89L14.4219 14.1602" stroke="#86BB64" stroke-width="4" stroke-miterlimit="10"/>
<path d="M66.4326 96.2344L69.252 106.754" stroke="#86BB64" stroke-width="4" stroke-miterlimit="10"/>
</svg>
