<svg width="1021" height="723" viewBox="0 0 1021 723" fill="none" xmlns="http://www.w3.org/2000/svg">
<g opacity="0.07">
<path d="M271.285 410.508C255.264 423.304 235.001 431.147 212.382 431.147C206.256 431.147 200.131 430.734 194.005 429.496C170.915 425.368 151.123 413.397 138.4 396.06C125.677 378.722 120.965 358.083 126.148 337.856C134.63 302.356 170.915 276.35 212.382 276.35C218.508 276.35 224.634 276.763 230.76 278.001C273.17 285.844 301.915 319.28 300.501 356.019C341.026 370.879 378.253 390.281 413.123 411.746C415.48 405.141 418.778 398.949 420.192 391.932C444.224 291.21 371.185 192.553 256.206 171.087C141.699 150.448 28.6052 214.844 4.57284 315.565C-19.4596 416.287 53.5801 514.944 168.559 536.409C239.713 549.619 309.926 529.805 358.933 489.351C333.487 459.63 303.328 433.211 271.285 410.508Z" fill="#619441"/>
<path d="M780.207 630.939C838.503 630.939 885.761 589.541 885.761 538.473C885.761 487.406 838.503 446.008 780.207 446.008C721.912 446.008 674.653 487.406 674.653 538.473C674.653 589.541 721.912 630.939 780.207 630.939Z" fill="#85BB64"/>
<path d="M473.438 479.443C479.093 455.501 488.517 432.797 501.24 411.745C478.622 314.738 494.643 242.5 518.676 193.79C525.744 196.68 533.755 197.918 540.823 197.918C562.028 197.918 582.762 187.185 591.715 168.61C603.967 143.842 591.244 115.359 562.971 104.214C555.902 101.324 547.891 100.086 540.823 100.086C519.618 100.086 498.884 110.819 489.931 129.394C480.035 149.621 487.104 171.912 505.481 185.534C456.003 246.628 431.028 341.157 446.107 438.164C447.521 446.007 449.406 453.437 451.291 461.28C399.927 421.239 339.611 389.041 274.582 367.163C274.582 366.75 275.053 365.925 275.524 365.512C283.064 334.965 260.445 305.244 226.046 298.639C221.334 297.814 216.621 297.401 212.38 297.401C182.693 297.401 155.834 315.564 149.708 341.983C142.168 372.53 164.787 402.251 199.186 408.855C203.898 409.681 208.139 410.094 212.38 410.094C234.528 410.094 254.79 399.774 266.571 383.675C370.24 450.96 454.589 553.333 454.118 661.898C454.118 749.41 414.064 829.079 348.093 890.998C385.319 886.87 424.431 884.393 464.485 884.393C502.654 884.393 539.881 886.457 575.222 890.585C594.542 852.608 606.323 812.154 610.093 769.637C506.895 711.02 444.693 599.979 473.438 479.443Z" fill="#85BB64"/>
<path d="M826.384 661.897C812.248 666.025 796.697 668.089 780.676 668.089C692.557 668.089 622.345 600.803 633.654 521.96C641.194 467.884 689.73 422.064 750.517 411.331C776.906 406.79 802.352 408.442 825.442 414.633C873.507 428.256 925.813 419.174 966.809 393.994L1020.53 361.383C950.787 288.319 838.636 247.865 717.061 268.505C623.758 284.604 544.122 338.679 501.24 411.331C488.517 432.384 479.093 455.087 473.438 479.029C444.694 599.978 506.424 711.019 610.564 769.636C659.571 797.293 718.003 813.392 780.676 813.392C877.277 813.392 963.51 775.415 1021 715.147L971.992 685.426C929.582 659.833 875.392 647.862 826.384 661.897Z" fill="#619441"/>
<path d="M609.623 12.5776C523.86 -20.4459 423.49 13.816 385.792 88.9443C352.806 154.578 378.723 230.12 442.81 270.161C452.234 240.852 464.486 212.782 480.979 189.253C464.486 170.677 459.303 144.671 471.083 121.555C483.335 97.2002 510.666 81.514 541.296 81.514C551.662 81.514 562.029 83.578 571.925 87.2932C610.565 102.154 628.001 141.782 611.037 175.631C598.785 199.986 571.454 215.672 540.824 215.672C536.583 215.672 532.814 215.259 528.572 214.433C519.619 236.312 512.551 263.143 509.724 294.928C585.591 307.312 663.814 273.05 696.328 208.654C734.497 133.526 695.386 45.601 609.623 12.5776Z" fill="#619441"/>
</g>
</svg>
