<svg width="398" height="488" viewBox="0 0 398 488" fill="none" xmlns="http://www.w3.org/2000/svg">
<path d="M396.828 515.424L397.117 513.929C386.692 511.05 374.174 501.644 362.067 492.482C353.097 486.025 343.95 478.905 335.6 474.762C329.623 471.755 323.324 468.835 317.435 466.159C301.41 459.109 284.654 451.901 273.559 437.507C251.193 408.058 253.385 366.01 261.667 338.987C263.324 333.583 266.235 326.425 269.203 318.189C281.571 285.82 300.196 236.893 287.275 216.963C277.701 201.808 256.528 196.137 236.32 190.206C219.129 185.241 201.207 180.116 190.121 169.618C172.406 152.39 165.734 126.181 159.328 100.964C153.099 76.4086 146.605 50.861 129.944 33.705C112.462 16.0599 63.9383 3.53556 39.5565 2.62102C34.376 2.59038 28.3751 2.07067 22.1408 1.96777C-10.6714 0.475136 -55.7187 -1.64011 -79.7127 14.351C-93.7406 23.7763 -105.532 38.9812 -116.446 53.5971C-133.256 75.8154 -150.532 98.8674 -177.946 103.371L-177.503 105.025C-149.768 100.435 -132.258 76.9658 -115.127 54.6613C-104.212 40.0455 -92.743 24.9267 -78.7151 15.5015C-54.5441 0.171637 -10.1402 2.45915 22.672 3.95178C28.9062 4.05468 34.5854 4.66052 40.0876 4.60502C64.3809 5.1889 112.172 17.5549 129.244 34.9554C145.407 51.5362 152.134 76.667 158.363 101.223C164.857 126.77 171.617 153.31 189.743 170.783C200.917 181.611 218.84 186.736 236.441 191.946C256.56 197.545 277.178 203.72 286.575 218.214C298.909 237.237 280.517 285.748 268.382 317.7C265.093 326.022 262.27 333.511 260.614 338.915C252.098 366.355 249.995 408.733 272.538 438.843C283.809 453.899 300.566 461.107 316.912 468.071C323.123 470.661 329.333 473.25 334.989 476.343C343.339 480.486 352.397 487.275 361.134 494.15C373.241 503.311 386.081 512.631 396.828 515.424Z" fill="white" fill-opacity="0.3"/>
</svg>
