<svg width="755" height="854" viewBox="0 0 755 854" fill="none" xmlns="http://www.w3.org/2000/svg">
<path d="M0.71191 854.509L0.286285 852.152C15.6304 851.222 29.4035 851.244 43.1046 851.833C79.3572 851.831 110.471 852.328 143.744 835.826C166.164 824.855 180.807 812.32 194.665 800.261C215.022 782.694 234.522 766.169 272.28 760.025C281.916 758.37 291.552 756.715 301.116 755.627C378.058 743.52 457.214 731.118 479.023 690.703C491.538 666.382 483.223 634.808 452.297 592.878C447.308 586.486 442.392 579.528 436.69 573.045C410.392 540.339 385.306 509.515 409.76 465.405C417.195 452.531 430.477 445.005 443.759 437.479C460.896 428.14 476.534 419.186 477.698 398.605C478.575 380.291 459.406 354.249 440.094 329.339C419 301.325 397.338 272.087 400.786 250.644C407.252 211.16 497.104 205.875 550.487 202.291C556.34 201.883 561.478 201.384 566.545 201.452C577.536 200.545 587.028 200.023 595.806 199.411C677.666 194.262 687.871 193.831 682.106 113.638C681.615 106.091 681.195 97.9762 679.918 90.9044C677.318 54.2988 674.495 25.1503 695.206 10.5071C709.561 0.238736 734.541 -2.34628 773 3.1146L772.64 5.94787C734.895 0.57763 711.414 2.77725 697.844 12.5696C677.918 26.7368 680.885 54.7519 684.344 90.3149C684.835 97.8627 686.04 105.501 686.531 113.049C692.008 195.508 679.59 196.234 597.017 201.292C588.239 201.904 578.034 202.335 567.756 203.333C562.618 203.832 557.551 203.764 551.699 204.172C499.1 207.28 411.389 212.837 405.211 250.055C401.835 270.93 422.856 299.512 444.021 326.959C463.831 353.659 483.144 378.568 482.124 398.016C480.815 419.73 463.606 429.636 447.182 439.066C434.686 446.115 421.476 453.074 414.826 465.473C390.588 507.882 415.675 538.707 441.331 570.756C446.319 577.148 452.021 583.63 456.938 590.588C488.506 633.176 496.677 665.883 484.09 690.771C462.065 732.886 381.482 745.106 303.754 757.689C294.118 759.344 284.482 760.999 274.918 762.088C237.874 768.322 220.017 783.328 199.587 801.462C184.944 813.997 170.301 826.532 147.881 837.503C113.823 854.481 81.9954 853.894 45.0293 853.804C29.7571 854.168 15.984 854.146 0.71191 854.509Z" fill="#D5F5C0"/>
</svg>
