<svg width="30" height="30" viewBox="0 0 30 30" fill="none" xmlns="http://www.w3.org/2000/svg">
<g clip-path="url(#clip0_299_21228)">
<path d="M15 30C23.2843 30 30 23.2843 30 15C30 6.71573 23.2843 0 15 0C6.71573 0 0 6.71573 0 15C0 23.2843 6.71573 30 15 30Z" fill="#3B5998"/>
<path d="M18.7718 15.5883H16.0952V25.394H12.04V15.5883H10.1113V12.1422H12.04V9.91217C12.04 8.31746 12.7975 5.82031 16.1313 5.82031L19.1352 5.83288V9.17792H16.9557C16.5982 9.17792 16.0955 9.35654 16.0955 10.1173V12.1454H19.1261L18.7718 15.5883Z" fill="white"/>
</g>
<defs>
<clipPath id="clip0_299_21228">
<rect width="30" height="30" fill="white"/>
</clipPath>
</defs>
</svg>
