<svg width="31" height="30" viewBox="0 0 31 30" fill="none" xmlns="http://www.w3.org/2000/svg">
<g clip-path="url(#clip0_299_21220)">
<path d="M7.14863 18.1293L6.10438 22.0277L2.28764 22.1084C1.14699 19.9928 0.5 17.5722 0.5 14.9999C0.5 12.5126 1.10492 10.1669 2.17719 8.10156H2.17801L5.57598 8.72453L7.06449 12.1021C6.75295 13.0104 6.58314 13.9854 6.58314 14.9999C6.58326 16.101 6.78271 17.156 7.14863 18.1293Z" fill="#FBBB00"/>
<path d="M30.2382 12.1992C30.4105 13.1066 30.5003 14.0437 30.5003 15.0014C30.5003 16.0753 30.3874 17.1229 30.1723 18.1333C29.4421 21.5718 27.5341 24.5742 24.891 26.6989L24.8902 26.6981L20.6103 26.4797L20.0045 22.6984C21.7584 21.6698 23.129 20.0602 23.851 18.1333H15.8301V12.1992H23.968H30.2382Z" fill="#518EF8"/>
<path d="M24.8893 26.6962L24.8901 26.697C22.3195 28.7632 19.0541 29.9995 15.4995 29.9995C9.78711 29.9995 4.82064 26.8066 2.28711 22.108L7.14811 18.1289C8.41484 21.5096 11.6761 23.9163 15.4995 23.9163C17.1429 23.9163 18.6825 23.472 20.0036 22.6965L24.8893 26.6962Z" fill="#28B446"/>
<path d="M25.075 3.45328L20.2156 7.43156C18.8484 6.57691 17.2321 6.0832 15.5005 6.0832C11.5906 6.0832 8.26838 8.60021 7.0651 12.1022L2.17855 8.10164H2.17773C4.67418 3.28846 9.70328 0 15.5005 0C19.1401 0 22.4772 1.29645 25.075 3.45328Z" fill="#F14336"/>
</g>
<defs>
<clipPath id="clip0_299_21220">
<rect width="30" height="30" fill="white" transform="translate(0.5)"/>
</clipPath>
</defs>
</svg>
