<svg width="36" height="36" viewBox="0 0 36 36" fill="none" xmlns="http://www.w3.org/2000/svg">
<g clip-path="url(#clip0_1_42313)">
<path d="M9.51003 16.5727C8.94885 17.0896 8.23912 17.4064 7.44686 17.4064C7.23229 17.4064 7.01772 17.3898 6.80315 17.3397C5.99438 17.173 5.30116 16.6894 4.85551 15.9891C4.40987 15.2888 4.24481 14.4551 4.42637 13.638C4.72347 12.204 5.99438 11.1535 7.44686 11.1535C7.66143 11.1535 7.876 11.1702 8.09057 11.2202C9.57605 11.5371 10.5829 12.8877 10.5334 14.3717C11.9528 14.972 13.2568 15.7557 14.4782 16.6227C14.5607 16.356 14.6762 16.1058 14.7257 15.8224C15.5675 11.7538 13.0092 7.76865 8.98186 6.90158C4.97105 6.06786 1.00976 8.66906 0.167984 12.7376C-0.673791 16.8062 1.88454 20.7913 5.91186 21.6584C8.40417 22.192 10.8635 21.3916 12.58 19.7575C11.6887 18.557 10.6324 17.4898 9.51003 16.5727Z" fill="#619441"/>
<path d="M27.3378 25.4779C29.3797 25.4779 31.035 23.8057 31.035 21.7429C31.035 19.6801 29.3797 18.0078 27.3378 18.0078C25.2959 18.0078 23.6406 19.6801 23.6406 21.7429C23.6406 23.8057 25.2959 25.4779 27.3378 25.4779Z" fill="#85BB64"/>
<path d="M16.5932 19.3589C16.7912 18.3918 17.1213 17.4747 17.567 16.6243C16.7747 12.7058 17.3359 9.78782 18.1777 7.82024C18.4253 7.93696 18.7059 7.98699 18.9534 7.98699C19.6962 7.98699 20.4224 7.55345 20.736 6.8031C21.1652 5.80264 20.7195 4.65211 19.7292 4.2019C19.4816 4.08518 19.201 4.03516 18.9534 4.03516C18.2107 4.03516 17.4845 4.46869 17.1709 5.21904C16.8243 6.03608 17.0718 6.9365 17.7155 7.48675C15.9825 9.95456 15.1077 13.773 15.6359 17.6915C15.6854 18.0083 15.7514 18.3084 15.8174 18.6252C14.0183 17.0078 11.9056 15.7072 9.6279 14.8235C9.6279 14.8068 9.64441 14.7735 9.66091 14.7568C9.925 13.5229 9.13274 12.3223 7.92785 12.0555C7.76279 12.0222 7.59774 12.0055 7.44919 12.0055C6.40935 12.0055 5.46855 12.7392 5.25398 13.8063C4.98989 15.0403 5.78215 16.2408 6.98704 16.5076C7.1521 16.5409 7.30064 16.5576 7.44919 16.5576C8.22495 16.5576 8.93468 16.1408 9.34731 15.4905C12.9785 18.2084 15.933 22.3436 15.9165 26.729C15.9165 30.264 14.5135 33.4821 12.2027 35.9833C13.5067 35.8165 14.8766 35.7165 16.2796 35.7165C17.6165 35.7165 18.9204 35.7999 20.1583 35.9666C20.8351 34.4326 21.2477 32.7985 21.3797 31.081C17.7651 28.7132 15.5863 24.2278 16.5932 19.3589Z" fill="#85BB64"/>
<path d="M28.9534 26.7289C28.4582 26.8957 27.9136 26.979 27.3524 26.979C24.2659 26.979 21.8066 24.2611 22.2027 21.0763C22.4668 18.892 24.1668 17.0411 26.296 16.6076C27.2203 16.4242 28.1116 16.4909 28.9204 16.741C30.6039 17.2912 32.436 16.9244 33.872 15.9073L35.7536 14.59C33.3108 11.6386 29.3825 10.0045 25.1242 10.8382C21.8561 11.4885 19.0667 13.6729 17.5647 16.6076C17.119 17.458 16.7889 18.3751 16.5909 19.3422C15.584 24.2278 17.7463 28.7132 21.3939 31.0809C23.1105 32.1981 25.1572 32.8484 27.3524 32.8484C30.736 32.8484 33.7565 31.3144 35.7701 28.8799L34.0536 27.6794C32.5681 26.6456 30.67 26.162 28.9534 26.7289Z" fill="#619441"/>
<path d="M21.3582 0.500247C18.3542 -0.833704 14.8386 0.55027 13.5181 3.58501C12.3628 6.23624 13.2706 9.28765 15.5153 10.9051C15.8454 9.72118 16.2745 8.58732 16.8522 7.63688C16.2745 6.88654 16.093 5.83605 16.5056 4.90229C16.9347 3.9185 17.8921 3.28487 18.9649 3.28487C19.328 3.28487 19.6911 3.36824 20.0378 3.51831C21.3912 4.11859 22.0019 5.71933 21.4077 7.08663C20.9786 8.07042 20.0213 8.70405 18.9484 8.70405C18.7999 8.70405 18.6678 8.68737 18.5193 8.65402C18.2057 9.53776 17.9581 10.6216 17.8591 11.9055C20.5164 12.4058 23.2563 11.0218 24.3952 8.42058C25.7321 5.38584 24.3622 1.8342 21.3582 0.500247Z" fill="#619441"/>
</g>
<defs>
<clipPath id="clip0_1_42313">
<rect width="36" height="36" fill="white"/>
</clipPath>
</defs>
</svg>
