<svg width="188" height="64" viewBox="0 0 188 64" fill="none" xmlns="http://www.w3.org/2000/svg">
<g clip-path="url(#clip0_3_323646)">
<path d="M78.2558 48.466H63.3496V28.8125H69.3649V43.3081H74.8814C76.7593 43.3081 78.2851 44.8496 78.2851 46.7467V48.466H78.2558Z" fill="#619441"/>
<path d="M95.9211 39.5434C95.9211 42.4188 95.0995 44.7013 93.4563 46.3614C91.8131 48.051 89.6417 48.8811 86.9422 48.8811C84.1546 48.8811 81.9246 48.051 80.252 46.3614C78.5795 44.6717 77.7285 42.4188 77.7285 39.5434V28.8125H79.8706C82.0126 28.8125 83.7438 30.5615 83.7438 32.7254V39.5434C83.7438 40.7884 84.0372 41.7666 84.6241 42.4484C85.211 43.1302 85.9739 43.486 86.9422 43.486C87.8518 43.486 88.5854 43.1302 89.1136 42.4484C89.6417 41.7666 89.9058 40.7884 89.9058 39.573V32.7551C89.9058 30.5911 91.6371 28.8421 93.7791 28.8421H95.9505V39.5434H95.9211Z" fill="#619441"/>
<path d="M110.827 34.7702C109.507 35.0369 108.245 34.4737 107.188 33.5844C106.748 33.1991 106.132 32.9916 105.428 32.9916C104.9 32.9916 104.46 33.1101 104.107 33.3473C103.785 33.5844 103.609 33.9105 103.609 34.3255C103.609 34.9184 103.931 35.2741 104.577 35.4223L108.45 36.4302C110.358 36.9045 111.766 37.6159 112.705 38.5645C113.644 39.4834 114.113 40.7285 114.113 42.2996C114.113 43.8114 113.673 45.086 112.764 46.1236C111.883 47.1611 110.827 47.9022 109.595 48.3172C108.362 48.7322 107.042 48.9397 105.663 48.9397C103.227 48.9397 101.173 48.3764 99.5006 47.25C97.8281 46.1236 96.8598 44.6414 96.5957 42.8035L100.029 42.1513C101.32 41.9142 102.611 42.3885 103.55 43.3074C104.078 43.841 104.812 44.1078 105.721 44.1078C106.308 44.1078 106.778 43.9892 107.159 43.7521C107.541 43.5149 107.717 43.1889 107.717 42.7442C107.717 42.2106 107.335 41.8253 106.602 41.6178L102.582 40.6099C98.9725 39.7206 97.1826 37.8234 97.1826 34.8591C97.1826 32.784 97.9455 31.1833 99.4713 30.0569C100.997 28.9304 102.963 28.3672 105.34 28.3672C107.687 28.3672 109.624 28.8711 111.12 29.8494C112.617 30.8276 113.556 32.2505 113.879 34.0884L110.827 34.7702Z" fill="#619441"/>
<path d="M129.871 29.879C131.367 30.8572 132.306 32.2801 132.629 34.118L129.46 34.7702C128.139 35.0369 126.878 34.4737 125.821 33.5844C125.381 33.1991 124.765 32.9916 124.061 32.9916C123.533 32.9916 123.092 33.1101 122.74 33.3473C122.418 33.5844 122.241 33.9105 122.241 34.3255C122.241 34.9184 122.564 35.2741 123.21 35.4223L127.083 36.4302C128.99 36.9045 130.399 37.6159 131.338 38.5645C132.277 39.4834 132.746 40.7285 132.746 42.2996C132.746 43.8114 132.306 45.086 131.396 46.1236C130.516 47.1611 129.46 47.9022 128.227 48.3172C126.995 48.7322 125.675 48.9397 124.295 48.9397C121.86 48.9397 119.806 48.3764 118.133 47.25C116.461 46.1236 115.493 44.6414 115.229 42.8035L118.662 42.1513C119.953 41.9142 121.244 42.3885 122.183 43.3074C122.711 43.841 123.445 44.1078 124.354 44.1078C124.941 44.1078 125.411 43.9892 125.792 43.7521C126.173 43.5149 126.349 43.1889 126.349 42.7442C126.349 42.2106 125.968 41.8253 125.234 41.6178L121.214 40.6099C117.605 39.7206 115.815 37.8234 115.815 34.8591C115.815 32.784 116.578 31.1833 118.104 30.0569C119.63 28.9304 121.596 28.3672 123.973 28.3672C126.438 28.3968 128.374 28.8711 129.871 29.879Z" fill="#619441"/>
<path d="M145.804 33.9704V48.4957H139.789V33.9704H133.773V28.8125H151.79V33.9408H145.804V33.9704Z" fill="#619441"/>
<path d="M168.573 48.466H152.904V28.8125H168.427V29.85C168.427 32.0436 166.666 33.8222 164.495 33.8222H158.89V36.3716H165.668V40.907H158.89V43.4563H164.641C166.813 43.4563 168.573 45.2349 168.573 47.4285V48.466Z" fill="#619441"/>
<path d="M182.628 48.466C181.484 48.466 180.369 47.9621 179.635 47.0728L175.762 42.4188H175.351V48.466H169.336V28.8125H179.958C182.071 28.8125 183.773 29.435 185.064 30.6504C186.355 31.8954 187 33.4962 187 35.5119C187 37.0534 186.59 38.3873 185.797 39.5138C185.005 40.6402 183.89 41.4406 182.482 41.9445L187.998 48.466H182.628ZM175.351 37.7352H178.667C179.43 37.7352 180.017 37.5573 180.457 37.1719C180.897 36.7866 181.102 36.3123 181.102 35.6898C181.102 35.0969 180.897 34.6226 180.457 34.2965C180.017 33.9408 179.43 33.7629 178.667 33.7629H175.351V37.7352Z" fill="#619441"/>
<path d="M16.9006 29.4657C15.903 30.3846 14.6412 30.9478 13.2328 30.9478C12.8513 30.9478 12.4699 30.9182 12.0884 30.8292C10.6506 30.5328 9.41821 29.6732 8.62595 28.4281C7.83369 27.1831 7.54026 25.7009 7.86303 24.2484C8.3912 21.6991 10.6506 19.8316 13.2328 19.8316C13.6142 19.8316 13.9957 19.8612 14.3772 19.9501C17.018 20.5134 18.8079 22.9145 18.7199 25.5527C21.2434 26.6199 23.5615 28.0131 25.7329 29.5546C25.8796 29.0803 26.085 28.6356 26.173 28.1317C27.6695 20.8987 23.1213 13.814 15.9617 12.2725C8.83135 10.7903 1.78905 15.4147 0.292561 22.6477C-1.20393 29.8807 3.34422 36.9654 10.5039 38.5069C14.9347 39.4555 19.3068 38.0326 22.3584 35.1275C20.7739 32.9932 18.896 31.096 16.9006 29.4657Z" fill="#619441"/>
<path d="M48.5904 45.2919C52.2205 45.2919 55.1632 42.3191 55.1632 38.6518C55.1632 34.9846 52.2205 32.0117 48.5904 32.0117C44.9603 32.0117 42.0176 34.9846 42.0176 38.6518C42.0176 42.3191 44.9603 45.2919 48.5904 45.2919Z" fill="#85BB64"/>
<path d="M29.4892 34.4141C29.8413 32.6948 30.4282 31.0644 31.2204 29.5526C29.812 22.5864 30.8096 17.3988 32.3061 13.9009C32.7463 14.1084 33.2451 14.1974 33.6852 14.1974C35.0057 14.1974 36.2968 13.4266 36.8543 12.0927C37.6172 10.3141 36.8249 8.26868 35.0644 7.46831C34.6242 7.26081 34.1254 7.17188 33.6852 7.17188C32.3648 7.17188 31.0737 7.9426 30.5162 9.27655C29.9 10.7291 30.3402 12.3298 31.4845 13.308C28.4035 17.6953 26.8484 24.4836 27.7873 31.4498C27.8754 32.013 27.9927 32.5466 28.1101 33.1098C24.9117 30.2344 21.1558 27.9222 17.1065 26.3511C17.1065 26.3215 17.1358 26.2622 17.1652 26.2326C17.6347 24.0389 16.2262 21.9046 14.0842 21.4303C13.7908 21.371 13.4973 21.3414 13.2332 21.3414C11.3846 21.3414 9.71209 22.6457 9.33064 24.5429C8.86115 26.7365 10.2696 28.8708 12.4116 29.3451C12.7051 29.4044 12.9692 29.434 13.2332 29.434C14.6124 29.434 15.8741 28.6929 16.6077 27.5369C23.0631 32.3687 28.3155 39.7203 28.2862 47.5165C28.2862 53.8009 25.792 59.522 21.684 63.9685C24.0021 63.6721 26.4375 63.4942 28.9317 63.4942C31.3085 63.4942 33.6266 63.6425 35.8273 63.9389C37.0303 61.2117 37.7639 58.3067 37.9987 55.2534C31.5726 51.044 27.6993 43.07 29.4892 34.4141Z" fill="#85BB64"/>
<path d="M51.4679 47.5151C50.5877 47.8115 49.6193 47.9597 48.6217 47.9597C43.1346 47.9597 38.7625 43.1278 39.4667 37.466C39.9362 33.5827 42.9585 30.2923 46.7437 29.5215C48.3869 29.1955 49.9715 29.314 51.4093 29.7587C54.4022 30.7369 57.6593 30.0848 60.2121 28.2765L63.5572 25.9347C59.2145 20.6878 52.2309 17.7828 44.6604 19.2649C38.8505 20.421 33.8915 24.3043 31.2213 29.5215C30.4291 31.0334 29.8422 32.6637 29.4901 34.3831C27.7002 43.0686 31.5441 51.0426 38.0289 55.252C41.0806 57.2381 44.7191 58.3942 48.6217 58.3942C54.637 58.3942 60.0067 55.667 63.5866 51.3391L60.5349 49.2047C57.894 47.3668 54.5196 46.5072 51.4679 47.5151Z" fill="#619441"/>
<path d="M37.9679 0.887591C32.6275 -1.48388 26.3775 0.976521 24.0301 6.37161C21.9761 11.0849 23.5899 16.5096 27.5806 19.385C28.1674 17.2804 28.9303 15.2646 29.9573 13.5749C28.9303 12.241 28.6076 10.3735 29.3411 8.71344C30.1041 6.96448 31.8059 5.83803 33.7132 5.83803C34.3588 5.83803 35.0043 5.98625 35.6205 6.25304C38.0266 7.3202 39.1123 10.166 38.056 12.5967C37.2931 14.3457 35.5912 15.4721 33.6839 15.4721C33.4198 15.4721 33.1851 15.4425 32.921 15.3832C32.3635 16.9543 31.9233 18.8811 31.7473 21.1636C36.4715 22.0529 41.3424 19.5925 43.367 14.9682C45.7438 9.57309 43.3084 3.25906 37.9679 0.887591Z" fill="#619441"/>
</g>
<defs>
<clipPath id="clip0_3_323646">
<rect width="188" height="64" fill="white"/>
</clipPath>
</defs>
</svg>
